<svg id="_27-sign" data-name="27-sign" xmlns="http://www.w3.org/2000/svg" width="95.823" height="79.853" viewBox="0 0 95.823 79.853">
  <path id="Path_37" data-name="Path 37" d="M87.838,19.963H81L50.028.607a3.993,3.993,0,0,0-4.232,0L14.825,19.963H7.985A8,8,0,0,0,0,27.948V71.867a8,8,0,0,0,7.985,7.985H87.838a8,8,0,0,0,7.985-7.985V27.948A8,8,0,0,0,87.838,19.963ZM47.912,8.7l18.02,11.262H29.892ZM87.838,71.867H7.985V27.948H87.838l0,43.919Z" fill="#90599f"/>
  <path id="Path_38" data-name="Path 38" d="M83.746,74.112a10.145,10.145,0,0,0-8.285-4.65,9.383,9.383,0,0,0-5.622,1.915,9.383,9.383,0,0,0-5.624-1.915,10.151,10.151,0,0,0-8.285,4.65A10.146,10.146,0,0,0,46.714,76.4a9.647,9.647,0,0,0-2.246,10.521c3.945,9.945,17.652,11.4,19.2,11.538q.172.015.343.015a3.993,3.993,0,0,0,2.976-1.332,32.137,32.137,0,0,0,2.864-3.825,32.49,32.49,0,0,0,2.832,3.825,3.993,3.993,0,0,0,2.976,1.332c.114,0,.229,0,.343-.015,1.55-.133,15.257-1.593,19.2-11.538A9.647,9.647,0,0,0,92.961,76.4,10.135,10.135,0,0,0,83.746,74.112ZM62.317,90.2c-3.514-.686-8.945-2.5-10.424-6.223a1.633,1.633,0,0,1,.3-1.762,1.787,1.787,0,0,1,1.251-.394,6.737,6.737,0,0,1,2.715.729,3.993,3.993,0,0,0,5.405-2.146c.724-1.827,1.743-2.962,2.657-2.962a1.631,1.631,0,0,1,1.423,1.08C67.12,82.257,64.4,87.3,62.317,90.2Zm25.47-6.223c-1.477,3.724-6.9,5.532-10.407,6.22A21.587,21.587,0,0,1,73.906,83.1a15.653,15.653,0,0,0-.047-4.65l.181.072a1.632,1.632,0,0,1,1.423-1.08c.914,0,1.933,1.135,2.657,2.962a3.993,3.993,0,0,0,5.405,2.146c1.78-.834,3.3-.962,3.966-.335A1.633,1.633,0,0,1,87.786,83.98Z" transform="translate(-21.928 -34.795)" fill="#90599f"/>
  <circle id="Ellipse_4" data-name="Ellipse 4" cx="4" cy="4" r="4" transform="translate(75.823 31.853)" fill="#90599f"/>
  <circle id="Ellipse_5" data-name="Ellipse 5" cx="4" cy="4" r="4" transform="translate(75.823 59.853)" fill="#90599f"/>
  <circle id="Ellipse_6" data-name="Ellipse 6" cx="4" cy="4" r="4" transform="translate(11.823 31.853)" fill="#90599f"/>
  <circle id="Ellipse_7" data-name="Ellipse 7" cx="4" cy="4" r="4" transform="translate(11.823 59.853)" fill="#90599f"/>
</svg>
