<svg xmlns="http://www.w3.org/2000/svg" xmlns:xlink="http://www.w3.org/1999/xlink" width="56" height="56" viewBox="0 0 56 56">
  <defs>
    <clipPath id="clip-path">
      <rect id="Rectangle_321" data-name="Rectangle 321" width="56" height="56" rx="20" transform="translate(-7261 -20075)" fill="#c4c4c4" opacity="0.41"/>
    </clipPath>
    <clipPath id="clip-path-2">
      <rect id="Rectangle_320" data-name="Rectangle 320" width="58" height="56" transform="translate(-6462 -21356.404)" fill="#fff" stroke="#707070" stroke-width="1"/>
    </clipPath>
  </defs>
  <g id="Mask_Group_13" data-name="Mask Group 13" transform="translate(7261 20075)" clip-path="url(#clip-path)">
    <g id="Mask_Group_12" data-name="Mask Group 12" transform="translate(-799 1281.404)" clip-path="url(#clip-path-2)">
      <g id="Group_486" data-name="Group 486" transform="translate(-6478.567 -21351.238)">
        <g id="woman" transform="translate(67.855 17.371)">
          <path id="Path_10795" data-name="Path 10795" d="M524.174,1036.492a76.826,76.826,0,0,1-14.2,1.352c-.338,0-.338.338-1.014-1.69s17.914-7.1,17.914-7.1l8.788-4.056v11.492l-3.042-.338-1.352-7.1-4.394,1.352S526.878,1034.464,524.174,1036.492Z" transform="translate(-470.771 -760.52)" fill="#bea69a"/>
          <path id="Path_10797" data-name="Path 10797" d="M427.771,385s-5.841,6.435-7.99,10.315-7.558,11.992-7.558,11.992a2.39,2.39,0,0,0-.068,3.258c1.42,1.812,7.125,8.166,6.976,10.059s-.446,4.137-.973,4.7l-.527.568a9.127,9.127,0,0,0,1.014,4.056c1.014,1.69-.676,3.042.338,4.056L420,435.023s0,1.352.338,1.69-2.7,7.774-2.7,7.774-15.886,54.079-17.238,67.6c0,0-4.732,25.012-4.056,34.813s4.394,34.137,4.056,41.573a56.943,56.943,0,0,1-1.352,11.154s.224,1.949.676,2.366c4.394,4.056-3.718,6.084-3.718,6.084s7.41,5.526,27.039,5.408c8.8-.053,13.355-.3,21.294-3.042,9.8-3.38,29.405-10.816,33.123-8.788,0,0-2.7-55.093-8.788-73.344L457.515,480.99l3.718-2.7L459.2,428.6s-4.394-12.506-4.394-18.252-1.352-18.59-3.38-20.618-15.886-1.69-15.886-1.69Z" transform="translate(-396 -336.836)" fill="#f7f4eb"/>
          <path id="Path_10798" data-name="Path 10798" d="M441.126,262.98s-6.084.676-9.126,8.45a9.171,9.171,0,0,0,1.014,3.718l2.7,5.408s-2.028,8.788-1.352,11.492,1.69,4.732,2.7,5.408a4.285,4.285,0,0,0,1.014,2.7c1.014,1.014,7.436,8.45,8.45,10.816l5.746-7.1s.649-7.923-2.7-8.788C449.576,295.089,443.492,262.3,441.126,262.98Z" transform="translate(-419.832 -256.051)" fill="#7e302e"/>
          <path id="Path_10799" data-name="Path 10799" d="M453.718,270.958s2.493-1.366,2.493-1.028a17.783,17.783,0,0,0,3.08,3.993c1.352,1.352,6.256,4.809,7.27,4.809s.676,6.76-.338,9.464c0,0-3.718,7.436-2.7,11.154a12.659,12.659,0,0,0,7.1,8.45,5.172,5.172,0,0,1,1.352,3.38v2.028l-11.83,13.52s-1.014-9.464,4.394-17.576a50.476,50.476,0,0,0-.676-5.746c-.338-1.014,0-2.366-2.366-4.056a27.123,27.123,0,0,1-7.774.676s-2.366-8.45-2.366-9.126v-2.366s-1.352-.621-1.352-1.69c0-.338.338-.676,1.69-2.028s-1.014-5.07-.676-7.1S453.718,270.958,453.718,270.958Z" transform="translate(-431.748 -260.311)" fill="#efae90"/>
          <path id="Path_10800" data-name="Path 10800" d="M472.541,300.7a2.675,2.675,0,0,0-.676,2.366,2.5,2.5,0,0,0,1.014,1.69s3.718-.338,3.718-1.69S473.217,300.023,472.541,300.7Z" transform="translate(-446.177 -280.926)" fill="#f3f0e7"/>
          <path id="Path_10801" data-name="Path 10801" d="M455.7,305.042s-1.69-.338-1.014-3.042c0,0,1.951,1.035,2.028,1.69C456.764,304.11,455.7,305.042,455.7,305.042Z" transform="translate(-434.746 -281.889)" fill="#f8f1e9"/>
          <path id="Path_10802" data-name="Path 10802" d="M458,331.96s-.872-.48-.338-1.014a2.445,2.445,0,0,1,1.69-.676,8.343,8.343,0,0,0,3.718-1.352c.956-.478-1.043,3.3-3.042,4.056C458.123,333.7,457.661,333.312,458,331.96Z" transform="translate(-436.705 -299.682)" fill="#f7f3e8"/>
          <path id="Path_10803" data-name="Path 10803" d="M454.829,304s.338,1.69-3.826,5.151c-.1.087-.984,1.68.548,2.129,1.4.412,1.382.376,2.1-.014" transform="translate(-432.184 -283.213)" fill="none" stroke="#dc866d" stroke-miterlimit="10" stroke-width="1"/>
          <path id="Path_10804" data-name="Path 10804" d="M461.285,324.029s-.4-.528.338-.676c.845-.169.676,0,.676,0A.844.844,0,0,1,461.285,324.029Z" transform="translate(-439.147 -295.975)" fill="#cf6859"/>
          <rect id="Rectangle_155" data-name="Rectangle 155" width="3" height="1" transform="translate(20.712 34.464)" fill="#dc9174"/>
          <path id="Path_10805" data-name="Path 10805" d="M476.248,321.209c-.534.305-.676,1.69.676,2.366,1.628.814,2.96.328,3.042,0A2.42,2.42,0,0,0,476.248,321.209Z" transform="translate(-448.871 -294.339)" fill="#e39277"/>
          <path id="Path_10806" data-name="Path 10806" d="M476,319.352A3.459,3.459,0,0,1,478.366,318a2.4,2.4,0,0,1,2.366,2.7s-1.014-2.028-2.366-2.028S477.014,319.014,476,319.352Z" transform="translate(-448.96 -292.482)" fill="#e39277"/>
          <path id="Path_10807" data-name="Path 10807" d="M467,287.507c0,.338.676,2.028,1.352,2.028s2.028-.338,3.042.338l2.028,1.352s1.591.16-.676-1.352c-2.028-1.352-1.69-1.014-2.028-1.014h-2.366c-.338-.338-.488-1.134-.676-1.352C467.251,287.013,467,287.376,467,287.507Z" transform="translate(-443.003 -272.128)" fill="#c17c5b"/>
          <path id="Path_10808" data-name="Path 10808" d="M455.028,289.834s-1.352-.338-1.69.338l-.338.676s.338-.676,2.028-.338Z" transform="translate(-433.734 -273.78)" fill="#c17c5b"/>
          <path id="Path_10809" data-name="Path 10809" d="M441.464,319.973a63.7,63.7,0,0,0-.676,6.76c0,1.352-.676,4.056,1.352,6.422C442.14,333.155,441.8,321.663,441.464,319.973Z" transform="translate(-425.578 -293.779)" fill="#602223"/>
          <path id="Path_10810" data-name="Path 10810" d="M481.352,358a3.354,3.354,0,0,1,2.035,2.657c.331,2.075,1.683,5.793,1.007,7.145,0,0-3.948,8.247-4.171,11.9s-.223,5.678-.223,5.678l11.83-13.52s1.014-3.894-1.69-5.665c0,0-5.408-2.785-6.76-8.193Z" transform="translate(-451.609 -318.962)" fill="#ecab8b"/>
          <path id="Path_10811" data-name="Path 10811" d="M484.8,357.94s2.1,1.372,2.434,5.09.338,7.774.338,7.774" transform="translate(-454.786 -318.922)" fill="none" stroke="#cf6859" stroke-miterlimit="10" stroke-width="1" opacity="0.29"/>
          <path id="Path_10812" data-name="Path 10812" d="M454,278.415s3.887-4.563,4.563-4.9l.676-.338-.676-.676a8.5,8.5,0,0,1-1.758.406,2.972,2.972,0,0,0-.608-.068A26.249,26.249,0,0,0,454,278.415Z" transform="translate(-434.396 -262.36)" fill="#e3987b"/>
          <path id="Path_10813" data-name="Path 10813" d="M459.068,253.316s-.676-5.408.338-7.1,3.718-3.718,5.746-3.718,4.554.5,6.084,2.028c.338.338,7.436-.338,9.8.338s3.38.676,3.042,3.042-.676,4.394-.338,4.732,8.112,8.112,8.45,9.126a18.2,18.2,0,0,1-.338,8.45c-1.014,4.056-1.352,7.436-.676,8.788a9.25,9.25,0,0,0,5.07,4.056c2.7,1.014,7.436,4.732,8.788,6.76s1.69,7.1,1.69,7.1l-7.774,2.366s-2.565-4.374-2.366-3.38a22.059,22.059,0,0,1-.507,4.225s-16.834,1.755-17.745.845c-1.521-1.521,1.859-9.633-2.873-11.323,0,0-7.623-6.04-5.746-12.844,2.7-9.8,4.139-12.951.676-15.548-5.408-4.056-7.564-6.469-8.112-8.112S459.068,253.316,459.068,253.316Z" transform="translate(-437.605 -242.5)" fill="#7e302e"/>
          <path id="Path_10814" data-name="Path 10814" d="M467.16,360.46s1.8,1.027,2.143,2.379.338,5.408,1.69,6.76a5.131,5.131,0,0,1,1.521,2.2" transform="translate(-443.108 -320.59)" fill="none" stroke="#b96f3e" stroke-miterlimit="10" stroke-width="2"/>
          <path id="Path_10815" data-name="Path 10815" d="M481.74,358.48a7.143,7.143,0,0,1,1.609,3.387c.338,2.028.946,6.348.946,6.348" transform="translate(-452.76 -319.28)" fill="none" stroke="#b96f3e" stroke-miterlimit="10" stroke-width="2"/>
          <path id="Path_10816" data-name="Path 10816" d="M450.1,271.5s-4.394,1.69-4.732,4.394.676,4.732.676,11.154" transform="translate(-428.634 -261.698)" fill="none" stroke="#b96f3e" stroke-miterlimit="10" stroke-width="2"/>
          <path id="Path_10817" data-name="Path 10817" d="M487.8,370.006c1.15-7.774-2.3-12.506-2.3-12.506" transform="translate(-455.25 -318.631)" fill="none" stroke="#cf6859" stroke-miterlimit="10" stroke-width="2" opacity="0.21"/>
          <path id="Path_10818" data-name="Path 10818" d="M486.623,389.149a7.654,7.654,0,0,0-1.271,2.893c-.338,1.69-1.352,4.394-1.352,6.76,0,0,.239.4.338.338a48.236,48.236,0,0,0,9.991-9.91c.121-.181-.189-.23-.189-.23s-8.788,9.464-9.464,9.126c-.428-.214,1.69-7.436,1.69-7.436Z" transform="translate(-454.257 -339.484)" fill="#f7e5d9"/>
          <path id="Path_10819" data-name="Path 10819" d="M413.844,424.168c1.7-2.361,10.478-12.168,10.478-12.168s-7.774,12.168-8.112,12.844a5.466,5.466,0,0,0,.676,4.394c1.014,1.352,5.408,5.746,5.746,7.1s1.69,5.408-1.352,7.1l-.676-5.746s-6.76,6.76-8.45,7.774-7.774,4.056-7.774,4.056-3.042-8.112-3.042-9.8-.338-4.732-.338-4.732S406.07,434.984,413.844,424.168Z" transform="translate(-399.31 -354.71)" fill="#e1d8d1"/>
          <path id="Path_10820" data-name="Path 10820" d="M402.271,479.32s.081,3.948,1.1,5.3,1.352,2.7,2.7,3.38,6.084,1.352,6.084,1.352a7.143,7.143,0,0,1-2.42,1.893c-1.974,1.149-5.692,2.839-5.692,2.839a11.564,11.564,0,0,0-.676-3.718,45.3,45.3,0,0,1-2.028-5.07A46.269,46.269,0,0,1,401,479.55Z" transform="translate(-399.31 -399.277)" fill="#d0c7c2"/>
          <path id="Path_10821" data-name="Path 10821" d="M411,500.83s6.138-3.353,7.463-4.38,8.423-6.1,8.761-7.449" transform="translate(-405.93 -405.685)" fill="none" stroke="#cab7a8" stroke-miterlimit="10" stroke-width="1"/>
          <path id="Path_10822" data-name="Path 10822" d="M419.589,466.36s3.813,2.92,3.475,3.258-5.584-1.149-5.584-1.149S419.494,466.82,419.589,466.36Z" transform="translate(-410.22 -390.697)" fill="#d1c6c2"/>
          <path id="Path_10823" data-name="Path 10823" d="M518,414.722v2.028s3.042,1.352,4.056,1.69,8.112,1.352,9.464,1.69,3.718,1.014,3.718,2.366-.259-8.969-.433-8.937A81.124,81.124,0,0,1,518,414.722Z" transform="translate(-476.765 -355.743)" fill="#e2dbd5"/>
          <path id="Path_10824" data-name="Path 10824" d="M549.873,430.5s1.859,12-2.873,16.731" transform="translate(-495.963 -366.957)" fill="none" stroke="#f4ede5" stroke-miterlimit="10" stroke-width="1"/>
          <path id="Path_10825" data-name="Path 10825" d="M560.116,451.5s-2.028,6.084-1.69,8.45,1.014,5.408,1.014,5.408" transform="translate(-503.502 -380.86)" fill="none" stroke="#f4ede5" stroke-miterlimit="10" stroke-width="1"/>
          <path id="Path_10826" data-name="Path 10826" d="M486.145,399l-12.337,14.7s-2.7,3.042-2.366,4.394,2.762,5.862,3.718,7.774c1.69,3.38.507,12.675.169,13.689" transform="translate(-445.924 -346.104)" fill="none" stroke="#dfd6cf" stroke-miterlimit="10" stroke-width="2"/>
          <path id="Path_10827" data-name="Path 10827" d="M483.47,389s-5.239,6.591-4.225,17.745" transform="translate(-451.022 -339.484)" fill="none" stroke="#dfd6cf" stroke-miterlimit="10" stroke-width="2"/>
          <path id="Path_10828" data-name="Path 10828" d="M467.5,467.863l1.014,1.352,25.349,1.352s-6.422-26.7-8.112-29.067c0,0-1.521,15.379-4.9,20.111C476.1,468.268,467.5,467.863,467.5,467.863Z" transform="translate(-443.333 -374.239)" fill="#e4dbd4"/>
          <path id="Path_10829" data-name="Path 10829" d="M514,496a9.052,9.052,0,0,1,1.352,4.056,28.579,28.579,0,0,1,0,5.746" transform="translate(-474.117 -410.319)" fill="none" stroke="#d7cec9" stroke-miterlimit="10" stroke-width="1"/>
          <path id="Path_10830" data-name="Path 10830" d="M503.866,507.517s.388-3.284-.338-3.042c-1.014.338-2.028,6.76-2.028,6.76" transform="translate(-465.842 -415.921)" fill="none" stroke="#d7cec9" stroke-miterlimit="10" stroke-width="1"/>
          <path id="Path_10831" data-name="Path 10831" d="M478.5,530.838s4.056,2.028,7.1,1.69,15.886-2.028,15.886-2.028" transform="translate(-450.616 -433.158)" fill="none" stroke="#e0d7d0" stroke-miterlimit="10" stroke-width="1"/>
          <path id="Path_10832" data-name="Path 10832" d="M467.514,536.5l-1.014,3.38s5.408,4.732,8.45,5.07,9.295,4.225,10.478,5.408c2.725,2.725,5.408,8.788,5.408,8.788l2.366-21.632s-9.464,1.014-12.506,1.014S470.894,537.852,467.514,536.5Z" transform="translate(-442.672 -437.13)" fill="#e4dbd4"/>
          <path id="Path_10833" data-name="Path 10833" d="M551.732,517s-2.028,4.056-4.732,4.732" transform="translate(-495.963 -424.221)" fill="none" stroke="#f4ede5" stroke-miterlimit="10" stroke-width="1"/>
          <path id="Path_10834" data-name="Path 10834" d="M521.341,581.464s-3.7-7.4-3.38-9.464" transform="translate(-476.725 -460.631)" fill="none" stroke="#e4dbd4" stroke-miterlimit="10" stroke-width="2"/>
          <path id="Path_10835" data-name="Path 10835" d="M502.5,582.438c0-.338.135-12.438,1.927-14.838" transform="translate(-466.504 -457.718)" fill="none" stroke="#e4dbd4" stroke-miterlimit="10" stroke-width="2"/>
          <path id="Path_10836" data-name="Path 10836" d="M482.339,557.8s-.764,3.955.588,3.955,2.028-3.042,2.028-3.042" transform="translate(-453.015 -451.231)" fill="none" stroke="#e4dbd4" stroke-miterlimit="10" stroke-width="2"/>
          <path id="Path_10837" data-name="Path 10837" d="M555.9,639c-.338,1.014-3.38,2.366-6.76,4.056S539,640.014,539,640.014" transform="translate(-490.667 -504.986)" fill="none" stroke="#e4dbd4" stroke-miterlimit="10" stroke-width="2"/>
          <path id="Path_10838" data-name="Path 10838" d="M574.351,530.5s-2.028,15.21-2.028,18.59-1.352,16.562,0,20.618" transform="translate(-512.329 -433.158)" fill="none" stroke="#f4ede5" stroke-miterlimit="10" stroke-width="1"/>
          <path id="Path_10839" data-name="Path 10839" d="M558.6,577.078s.98-17.974,1.656-23.382,2.028-14.2,2.028-14.2" transform="translate(-503.642 -439.116)" fill="none" stroke="#f4ede5" stroke-miterlimit="10" stroke-width="1"/>
          <path id="Path_10840" data-name="Path 10840" d="M543.334,584.257s-.338-7.774.338-10.14,4.056-16.562,3.042-20.618" transform="translate(-493.481 -448.384)" fill="none" stroke="#f4ede5" stroke-miterlimit="10" stroke-width="1"/>
          <path id="Path_10841" data-name="Path 10841" d="M580.616,589s-2.028,5.07-1.69,7.774,1.69,8.788,2.028,10.14" transform="translate(-517.073 -471.885)" fill="none" stroke="#e4dbd4" stroke-miterlimit="10" stroke-width="2"/>
          <path id="Path_10842" data-name="Path 10842" d="M532.614,638s-.338,4.732.676,5.746a22.506,22.506,0,0,0,5.813,3.961c1.96.771,7.368,3.137,9.058.095.232-.418,6.422,30.081,6.422,30.081S540.036,674.1,535.818,664.5,531.262,641.718,532.614,638Z" transform="translate(-485.971 -504.324)" fill="#e3dad3"/>
          <path id="Path_10843" data-name="Path 10843" d="M450.58,552.52s-7.319,38.625-9.585,47.819c-17.914,72.668,64.219,96.328,64.219,96.328" transform="translate(-424.095 -447.735)" fill="none" stroke="#e4dbd4" stroke-miterlimit="10" stroke-width="2"/>
          <path id="Path_10844" data-name="Path 10844" d="M589.041,750.52s-1.69,11.316-.676,17.4,7.1,25.011,8.45,29.405,3.38,9.126,2.028,13.182" transform="translate(-523.133 -578.813)" fill="none" stroke="#e4dbd4" stroke-miterlimit="10" stroke-width="2"/>
          <path id="Path_10845" data-name="Path 10845" d="M422.914,620.92s-7.889,35.009-7.551,50.9,2.7,44.953,2.028,50.7c0,0-.527,13.966-5.672,24.221" transform="translate(-406.407 -493.017)" fill="none" stroke="#e4dbd4" stroke-miterlimit="10" stroke-width="2"/>
          <path id="Path_10846" data-name="Path 10846" d="M397.5,1010.1l2.859-2.062s13.364,3.076,18.434,3.076,8.112.338,13.858-3.718,17.576-11.154,25.688-12.844S477.8,991,477.8,991s.493,10.769.487,11.384-13.865,2.3-17.244,3.995-13.885,4.678-18.1,5.55-15.585,4.137-27.012,2.623A87.357,87.357,0,0,1,397.5,1010.1Z" transform="translate(-396.993 -738.012)" fill="#f0e5df"/>
          <path id="Path_10847" data-name="Path 10847" d="M533.788,667a10.733,10.733,0,0,0-1.352,3.718,4.064,4.064,0,0,1-.676,2.7,21.551,21.551,0,0,1-2.028,3.042s-.338,2.7.676,2.028,4.732-5.408,4.732-5.408l-1.014,4.056-2.7,2.7H526.69a2.114,2.114,0,0,0-1.69,2.028h6.422s-4.394,0-4.732.338l-1.352,1.352,7.436.338.676-.676h3.718l4.056-4.394-.338-10.478S534.464,667.338,533.788,667Z" transform="translate(-481.399 -523.522)" fill="#e1957b"/>
          <path id="Path_10848" data-name="Path 10848" d="M559.894,697s-.338.676.676.676,1.69-.676,2.028-.338a1.047,1.047,0,0,1,.338.676" transform="translate(-504.463 -543.382)" fill="none" stroke="#cf6859" stroke-miterlimit="10" stroke-width="1" opacity="0.22"/>
          <path id="Path_10849" data-name="Path 10849" d="M525,705.042h6.76L536.154,702" transform="translate(-481.399 -546.692)" fill="none" stroke="#cf6859" stroke-miterlimit="10" stroke-width="1" opacity="0.21"/>
          <path id="Path_10850" data-name="Path 10850" d="M550.054,697l-.994.994,1.67,1.372,1.352-1.014Z" transform="translate(-497.327 -543.382)" fill="#c6c3ca"/>
          <path id="Path_10851" data-name="Path 10851" d="M551.126,697l-.446.446,1.886,1.521.25-.277Z" transform="translate(-498.399 -543.382)" fill="#f9f6ed"/>
          <path id="Path_10852" data-name="Path 10852" d="M554.432,682.5a11.692,11.692,0,0,0-1.055,3.373c.04,1.021.04,1.359.04,1.359" transform="translate(-500.185 -533.783)" fill="none" stroke="#cf6859" stroke-miterlimit="10" stroke-width="1" opacity="0.23"/>
          <path id="Path_10853" data-name="Path 10853" d="M556.218,668.352a3.949,3.949,0,0,1-3.042,0c-1.69-.676-3.718-1.352-3.718-1.352a5.678,5.678,0,0,0-1.3,2.129" transform="translate(-496.731 -523.522)" fill="none" stroke="#cf6859" stroke-miterlimit="10" stroke-width="1" opacity="0.17"/>
          <ellipse id="Ellipse_133" data-name="Ellipse 133" cx="1" cy="0.5" rx="1" ry="0.5" transform="translate(30.712 160.464)" fill="#dbae1d"/>
          <ellipse id="Ellipse_134" data-name="Ellipse 134" cx="2" cy="1.5" rx="2" ry="1.5" transform="translate(33.712 160.464)" fill="#dbae1d"/>
          <path id="Path_10854" data-name="Path 10854" d="M505.6,703.706a17.53,17.53,0,0,0-4.394,0c-1.69.338-7.436,3.042-10.478,4.732a13.311,13.311,0,0,0-4.732,5.07c.676,0,4.732-.338,4.732-.338a4.58,4.58,0,0,0,3.042-5.07" transform="translate(-455.581 -547.722)" fill="none" stroke="#4e8464" stroke-miterlimit="10" stroke-width="1"/>
          <path id="Path_10855" data-name="Path 10855" d="M492.761,722.829l2.109-1.222c1.055-.611,1.729-.569,2.109-1.222" transform="translate(-460.056 -558.863)" fill="none" stroke="#4e8464" stroke-miterlimit="10" stroke-width="1"/>
          <ellipse id="Ellipse_135" data-name="Ellipse 135" cx="1.521" cy="2.704" rx="1.521" ry="2.704" transform="translate(19.206 150.823) rotate(-62.091)" fill="#deb529"/>
          <circle id="Ellipse_136" data-name="Ellipse 136" cx="0.5" cy="0.5" r="0.5" transform="translate(19.712 153.464)" fill="#deb529"/>
          <path id="Path_10856" data-name="Path 10856" d="M460.092,683s0,1.69-.676,2.028-1.014.676-.676,1.352" transform="translate(-437.447 -534.114)" fill="none" stroke="#cf6859" stroke-miterlimit="10" stroke-width="1"/>
          <circle id="Ellipse_137" data-name="Ellipse 137" cx="0.5" cy="0.5" r="0.5" transform="translate(24.712 146.463)" fill="#f2c7a7"/>
          <path id="Path_10857" data-name="Path 10857" d="M471.338,707.482s8.112-3.38,10.14-3.718,6.474-2.011,7.436-1.69a5.217,5.217,0,0,0,3.718-.338c.338,0,2.379.331,2.379.331l.831-.838s-6.76-1.014-7.267-.507-8.619,2.873-8.619,2.873-5.889-2.223-8.112,0c-.169.169,1.183,1.183,3.211,1.521.471.078-4.056,2.028-4.056,2.028Z" transform="translate(-445.651 -545.752)" fill="#4e8464"/>
          <circle id="Ellipse_138" data-name="Ellipse 138" cx="3.5" cy="3.5" r="3.5" transform="translate(18.712 160.464)" fill="#c081b8"/>
          <path id="Path_10858" data-name="Path 10858" d="M455,718s.676,1.352,1.352,1.352a3.839,3.839,0,0,0,3.042-.676" transform="translate(-435.058 -557.284)" fill="none" stroke="#9b5299" stroke-miterlimit="10" stroke-width="1"/>
          <path id="Path_10859" data-name="Path 10859" d="M453,724.69a2.1,2.1,0,0,0,2.028-1.69" transform="translate(-433.734 -560.594)" fill="none" stroke="#cf6859" stroke-miterlimit="10" stroke-width="1" opacity="0.13"/>
          <path id="Path_10860" data-name="Path 10860" d="M453.874,716.109s-2.338,1.078-1.945,3.1a8.158,8.158,0,0,0,1.086,2.676c.009.338,1.306-1.726,2.32-1.753s3.031-.42,3.379-.091" transform="translate(-432.996 -556.033)" fill="none" stroke="#9b5299" stroke-miterlimit="10" stroke-width="1"/>
          <path id="Path_10861" data-name="Path 10861" d="M467,729.341a11.952,11.952,0,0,0,.338,2.028s1.352.338,1.582-3.272C468.949,727.639,467,728.665,467,729.341Z" transform="translate(-443.003 -563.893)" fill="#c081b8"/>
          <path id="Path_10862" data-name="Path 10862" d="M468.041,733.2a15.915,15.915,0,0,0-.676-1.69c-.338-.676.676-1.014.676-1.014" transform="translate(-443.198 -565.56)" fill="none" stroke="#9b5299" stroke-miterlimit="10" stroke-width="1"/>
          <path id="Path_10863" data-name="Path 10863" d="M493,687.042S494.69,684,497.394,684s4.732,2.7,4.732,2.7-1.69,3.042-4.732,3.042A5.167,5.167,0,0,1,493,687.042Z" transform="translate(-460.215 -534.776)" fill="#efb993"/>
          <path id="Path_10864" data-name="Path 10864" d="M462.436,697S455,697,455,699.7s6.084,0,7.436-1.352c.189-.189.338,1.014.338,1.014s1.014-.676,1.014-1.014S462.436,697,462.436,697Z" transform="translate(-435.058 -543.382)" fill="#f1bb95"/>
          <path id="Path_10865" data-name="Path 10865" d="M477.411,697s-.676,0,0,.676a2.094,2.094,0,0,0,1.352.676v-.676s10.18.13,13.52.676c.894.146,3.488.98,3.488.98l3.948.034a77.1,77.1,0,0,0-10.816-2.028C484.509,697,477.411,697,477.411,697Z" transform="translate(-449.696 -543.382)" fill="#4e8464"/>
          <ellipse id="Ellipse_139" data-name="Ellipse 139" cx="2.069" cy="1.562" rx="2.069" ry="1.562" transform="translate(21.764 139.946) rotate(-38.14)" fill="#ba6eac"/>
          <path id="Path_10866" data-name="Path 10866" d="M499.309,627.387s-2.7-1.69-2.366-2.7,2.535-.845,2.873.169S501,623.669,501,623.669s1.352-.676,1.014.676a10.893,10.893,0,0,1-.676,2.028" transform="translate(-462.805 -494.725)" fill="none" stroke="#f1b78f" stroke-miterlimit="10" stroke-width="1"/>
          <path id="Path_10867" data-name="Path 10867" d="M473.347,669.714a4.945,4.945,0,0,0-1.69,1.014c-.676.676-1.352,1.014-1.352,1.69s2.7,1.014,3.718.338,2.7-1.69,2.7-1.69,0-2.7.338-3.042l.676-.676s-4.394-6.084-7.1-4.732,3.38,5.07,3.38,5.07-1.69-.338-2.028.338C472,668.024,470.981,668.7,473.347,669.714Z" transform="translate(-444.956 -520.49)" fill="#f2c7a7"/>
          <path id="Path_10868" data-name="Path 10868" d="M472,684.366A11.244,11.244,0,0,1,476.732,682" transform="translate(-446.312 -533.452)" fill="none" stroke="#cf6859" stroke-miterlimit="10" stroke-width="1" opacity="0.11"/>
          <path id="Path_10869" data-name="Path 10869" d="M490.763,676.96s-1.217,1.028-.879,3.731c0,0,1.352-1.014,1.69-1.352s16.9,6.76,16.9,6.76l.338-.676-16.562-6.76A2.186,2.186,0,0,1,490.763,676.96Z" transform="translate(-458.112 -530.116)" fill="#4e8464"/>
          <path id="Path_10870" data-name="Path 10870" d="M472.56,683.859a9.046,9.046,0,0,1,4.712-2.359" transform="translate(-446.683 -533.121)" fill="none" stroke="#e1a684" stroke-miterlimit="10" stroke-width="1"/>
          <ellipse id="Ellipse_140" data-name="Ellipse 140" cx="0.5" rx="0.5" transform="translate(42.712 136.464)" fill="#dbb025"/>
          <ellipse id="Ellipse_141" data-name="Ellipse 141" cy="1.5" ry="1.5" transform="translate(43.712 132.464)" fill="#dbb025"/>
          <ellipse id="Ellipse_142" data-name="Ellipse 142" cx="2" cy="1.5" rx="2" ry="1.5" transform="translate(39.712 132.464)" fill="#dcb029"/>
          <ellipse id="Ellipse_143" data-name="Ellipse 143" cx="1.5" rx="1.5" transform="translate(39.712 136.464)" fill="#dcb029"/>
          <path id="Path_10871" data-name="Path 10871" d="M521.027,643.774s-.338-5.07.676-6.422L522.717,636a10.019,10.019,0,0,1-1.352,8.788s3.042,6.422,4.056,7.774,3.718,4.394,3.718,4.394l-.676.338s-9.126-11.83-10.478-19.266c-.086-.47.581-.311.581-.311S519.337,642.084,521.027,643.774Z" transform="translate(-476.75 -503)" fill="#4e8464"/>
          <path id="Path_10872" data-name="Path 10872" d="M533.576,666.285s-.216-1.771.46-2.447,2.028-1.352,2.366-1.014,1.352,2.7,0,3.38a8.4,8.4,0,0,1-2.5.811Z" transform="translate(-487.054 -520.698)" fill="#4e8464"/>
          <path id="Path_10873" data-name="Path 10873" d="M464.834,653s-.338,2.366.338,2.366S467.2,653,467.2,653" transform="translate(-441.513 -514.254)" fill="none" stroke="#c37fb8" stroke-miterlimit="10" stroke-width="1"/>
          <path id="Path_10874" data-name="Path 10874" d="M497.123,650.5s-.864.529-.676.676c15.379,12,17.914,15.548,17.914,15.548s.053-.273,0-.338C509.8,660.809,498.644,650.669,497.123,650.5Z" transform="translate(-462.479 -512.599)" fill="#4e8464"/>
          <path id="Path_10875" data-name="Path 10875" d="M509.28,669.169l.284-.608s12.8,9.951,12.8,10.289l-.338.676s-2.875-2.6-5.911-5.2C513.135,671.773,510,669.229,509.28,669.169Z" transform="translate(-470.992 -524.555)" fill="#4e8464"/>
          <path id="Path_10876" data-name="Path 10876" d="M521.712,684.412s-4.394-.676-4.732,0,7.774,4.186,7.774,2.366C524.754,686.44,521.712,684.412,521.712,684.412Z" transform="translate(-476.083 -534.85)" fill="#4e8464"/>
          <ellipse id="Ellipse_144" data-name="Ellipse 144" cx="1.69" cy="1.502" rx="1.69" ry="1.502" transform="translate(38.193 137.732)" fill="#deb529"/>
          <path id="Path_10877" data-name="Path 10877" d="M505.353,633.609s1.014-1.69.676-1.69a2.592,2.592,0,0,0-2.528.919c-.136.146,1.176.771,1.176.771s.338,3.042,1.352,4.394c.287.382.338,0,.338,0S505.015,634.961,505.353,633.609Z" transform="translate(-467.16 -500.271)" fill="#4e8464"/>
          <path id="Path_10878" data-name="Path 10878" d="M516,658.263s1.014,2.366,1.352,2.366h.676s-1.717-2.123-1.7-2.582S516,658.263,516,658.263Z" transform="translate(-475.441 -517.489)" fill="#4e8464"/>
          <ellipse id="Ellipse_145" data-name="Ellipse 145" cx="5.5" cy="4" rx="5.5" ry="4" transform="translate(25.712 130.463)" fill="#c081b8"/>
          <path id="Path_10879" data-name="Path 10879" d="M473.64,639.386s3.15,4.854,7.382,1.622,1.217-6.408,1.217-6.408S483.564,645.213,473.64,639.386Z" transform="translate(-447.398 -502.073)" fill="#9b5299"/>
          <path id="Path_10880" data-name="Path 10880" d="M486.669,630s-.676,2.028.676,3.042a26.774,26.774,0,0,0,3.38,2.028" transform="translate(-455.912 -499.028)" fill="none" stroke="#9b5299" stroke-miterlimit="10" stroke-width="1"/>
          <path id="Path_10881" data-name="Path 10881" d="M473.4,637.72s2.062.94,2.4,2.63a19.222,19.222,0,0,1,.358,3.13" transform="translate(-447.239 -504.138)" fill="none" stroke="#9b5299" stroke-miterlimit="10" stroke-width="1"/>
          <path id="Path_10882" data-name="Path 10882" d="M480.5,642.872s3.786.365,4.09-.831" transform="translate(-451.94 -506.998)" fill="none" stroke="#9b5299" stroke-miterlimit="10" stroke-width="1"/>
          <path id="Path_10883" data-name="Path 10883" d="M477.5,632.5s.338,1.69,3.042,1.352" transform="translate(-449.953 -500.683)" fill="none" stroke="#9b5299" stroke-miterlimit="10" stroke-width="1"/>
          <line id="Line_25" data-name="Line 25" y2="1" transform="translate(56.712 160.464)" fill="none" stroke="#4e8464" stroke-miterlimit="10" stroke-width="2"/>
          <path id="Path_10884" data-name="Path 10884" d="M562.56,713.8s5.557,4.462,6.233,4.462" transform="translate(-506.264 -554.504)" fill="none" stroke="#4e8464" stroke-miterlimit="10" stroke-width="2"/>
          <path id="Path_10885" data-name="Path 10885" d="M567.956,717.965s-2.8-5.868-3.6-6.145" transform="translate(-507.456 -553.193)" fill="none" stroke="#4e8464" stroke-miterlimit="10" stroke-width="2"/>
          <line id="Line_26" data-name="Line 26" x2="5.219" y2="5.874" transform="translate(57.817 157.714)" fill="none" stroke="#4e8464" stroke-miterlimit="10" stroke-width="2"/>
          <line id="Line_27" data-name="Line 27" x1="6.618" y1="4.259" transform="translate(57.939 157.471)" fill="none" stroke="#4e8464" stroke-miterlimit="10" stroke-width="2"/>
          <path id="Path_10886" data-name="Path 10886" d="M576.429,709.481,570,707l2.873.169" transform="translate(-511.189 -550.002)" fill="none" stroke="#4e8464" stroke-miterlimit="10" stroke-width="2"/>
          <path id="Path_10887" data-name="Path 10887" d="M493.46,297.5c1.014,1.014-.041,10.451-.02,10.633a4.113,4.113,0,0,0,2.724,2.886c2.366,1.014,5.408,2.028,6.084,3.718s.676,3.718.338,11.154c-.063,1.392.338,1.69,2.7,3.042s5.408,3.718,5.408,6.084v2.366" transform="translate(-460.505 -278.91)" fill="none" stroke="#c87d43" stroke-miterlimit="10" stroke-width="1"/>
          <path id="Path_10888" data-name="Path 10888" d="M496.5,300.5s8.45,3.042,9.8,4.394,2.7,2.7,2.366,6.422" transform="translate(-462.532 -280.896)" fill="none" stroke="#c87d43" stroke-miterlimit="10" stroke-width="1"/>
          <path id="Path_10889" data-name="Path 10889" d="M462.84,256.1s.561-6.929,2.589-7.6c.321-.107,0,2.7-.338,3.38s1.69-1.352,1.69-1.352" transform="translate(-440.249 -246.466)" fill="none" stroke="#c87d43" stroke-miterlimit="10" stroke-width="1"/>
          <path id="Path_10890" data-name="Path 10890" d="M469.5,255.612s1.014-4.394,4.394-6.084a43.515,43.515,0,0,1,4.394-2.028" transform="translate(-444.658 -245.81)" fill="none" stroke="#c87d43" stroke-miterlimit="10" stroke-width="1"/>
          <path id="Path_10891" data-name="Path 10891" d="M475.5,261.876s7.774-6.084,9.8-6.76,4.056-1.014,5.408-.338a20.725,20.725,0,0,1,2.7,1.69" transform="translate(-448.63 -250.384)" fill="none" stroke="#c87d43" stroke-miterlimit="10" stroke-width="1"/>
          <path id="Path_10892" data-name="Path 10892" d="M548.54,302.5s-5.408,13.52-5.07,16.9,1.014,4.394,3.718,6.76,4.394,2.7,3.718,6.422a52.658,52.658,0,0,1-2.028,7.436" transform="translate(-493.616 -282.22)" fill="none" stroke="#c87d43" stroke-miterlimit="10" stroke-width="1"/>
          <path id="Path_10893" data-name="Path 10893" d="M575,364.5a4.117,4.117,0,0,0,1.014,4.394c2.028,2.028,4.394,3.718,4.732,6.084a10.629,10.629,0,0,1,0,3.718" transform="translate(-514.334 -323.265)" fill="none" stroke="#c87d43" stroke-miterlimit="10" stroke-width="1"/>
          <path id="Path_10894" data-name="Path 10894" d="M475.5,281.5s4.056,2.366,6.084,2.366,11.154-.676,14.2-.338a22.755,22.755,0,0,1,6.422,2.028" transform="translate(-448.63 -268.318)" fill="none" stroke="#c87d43" stroke-miterlimit="10" stroke-width="1"/>
          <g id="Group_439" data-name="Group 439" transform="translate(45.967 11.323)">
            <path id="Path_10796" data-name="Path 10796" d="M532,276h2.028s2.366,1.014,3.042,1.352,4.394,2.366,5.408,5.07-1.69,8.788-1.69,8.788l-.338-.676s2.655-5.5,1.014-8.45c-1.69-3.042-6.76-5.421-6.76-5.421Z" transform="translate(-532 -276)" fill="#7e302e"/>
            <path id="Path_10895" data-name="Path 10895" d="M551,345.981s3.915-.18,5.408,1.014c1.69,1.352,1.418,1.437,2.028,1.69,1.579.654,1.225-.831,6.76,1.014,2.028.676,5.746,5.07,5.746,5.07l-8.45-3.042a21.91,21.91,0,0,1-3.718-2.366c-.407-.326-.412-.6-1.014-.676C552.69,348.009,551,345.981,551,345.981Z" transform="translate(-544.578 -322.322)" fill="#7e302e"/>
            <path id="Path_10896" data-name="Path 10896" d="M555,326.042s2.366,2.7,4.056,2.7,7.774,0,9.126.338l2.7.676s-.338-1.69-4.732-2.366-5.746-.676-6.422-1.014-4.056-3.38-4.056-3.38Z" transform="translate(-547.226 -307.114)" fill="#7e302e"/>
          </g>
          <path id="Path_10897" data-name="Path 10897" d="M536,265.676c0-.378.338-.676,1.352-.676a.993.993,0,0,1,1.014,1.014,1.25,1.25,0,0,1-1.014.676A1.509,1.509,0,0,1,536,265.676" transform="translate(-488.681 -257.395)" fill="#d6935e"/>
          <path id="Path_10898" data-name="Path 10898" d="M517,272.058v-1.352s.676,0,.676.338v.338s.676-.338.676-.676.676,0,.676,0a.468.468,0,0,1,0,.676l-.338.338v.338s.676,0,.676.338c0,1.014-2.366,0-2.366,0Z" transform="translate(-476.103 -261.073)" fill="#fedac0"/>
          <path id="Path_10899" data-name="Path 10899" d="M511.676,279.056a11.5,11.5,0,0,1,0-2.028,1.783,1.783,0,0,1,1.69-1.352V275s-1.69.676-2.028,1.69a8.917,8.917,0,0,0-.338,2.366Z" transform="translate(-472.131 -264.015)" fill="#508f74"/>
          <path id="Path_10900" data-name="Path 10900" d="M504.526,274.353s-.338-6.084.338-6.422c.076-.038-.273-.055-.338,0-.785.665-.676,4.056-.676,4.056s-1.352-2.366-2.028-2.028c-.347.173.338,1.352,1.352,2.366.173.173.676.548.676.676v1.352Z" transform="translate(-465.994 -259.313)" fill="#508f74"/>
          <path id="Path_10901" data-name="Path 10901" d="M508.014,262.7a7.388,7.388,0,0,1-1.014-1.69c0-.338.338-.676,1.014-.338s.338-.676.676-.676.338,0,.676.338a1.047,1.047,0,0,0,.676.338.468.468,0,0,1,0,.676L508.69,262.7Z" transform="translate(-469.483 -254.085)" fill="#fedac0"/>
          <path id="Path_10902" data-name="Path 10902" d="M522.186,281.922l-1.352-1.014s-.338-1.352.338-1.014.676.676.676.676a2.36,2.36,0,0,1,1.352-.676,1.48,1.48,0,0,1,1.014.338S524.89,280.908,522.186,281.922Z" transform="translate(-478.585 -267.219)" fill="#fedac0"/>
          <path id="Path_10903" data-name="Path 10903" d="M521.216,283.223s-.216-.081-.216.257.338.338.338.676v.338h1.352l-.054-.338s-.514.014-.568-.162A1.122,1.122,0,0,0,521.216,283.223Z" transform="translate(-478.751 -269.453)" fill="#508f74"/>
          <path id="Path_10904" data-name="Path 10904" d="M516.3,669.106a2.273,2.273,0,1,1-2.767-.156,2.869,2.869,0,0,1,.333-.2A1.888,1.888,0,0,1,516.3,669.106Z" transform="translate(-473.081 -524.501)" fill="#c081b8"/>
          <path id="Path_10905" data-name="Path 10905" d="M516,671v1.69s0,.338.338,0,.338-1.352.676-1.352,1.014,0,1.014.676" transform="translate(-475.441 -526.17)" fill="none" stroke="#9b5299" stroke-miterlimit="10" stroke-width="1"/>
          <circle id="Ellipse_146" data-name="Ellipse 146" cx="3" cy="3" r="3" transform="translate(32.712 140.463)" fill="#dbb025"/>
          <path id="Path_10906" data-name="Path 10906" d="M491.4,659.319s3.752.223,3.076-2.819" transform="translate(-459.155 -516.571)" fill="none" stroke="#cd9303" stroke-miterlimit="10" stroke-width="1"/>
          <path id="Path_10907" data-name="Path 10907" d="M503.252,664.226a3.569,3.569,0,0,1-.019-2.028c.328-1.017,1.336-1.7.988-2.714" transform="translate(-466.896 -518.547)" fill="none" stroke="#cd9303" stroke-miterlimit="10" stroke-width="1"/>
          <path id="Path_10908" data-name="Path 10908" d="M491.5,667.176s1.352,2.366,3.042,2.028,3.38-1.014,3.38-2.7" transform="translate(-459.222 -523.191)" fill="none" stroke="#cd9303" stroke-miterlimit="10" stroke-width="1"/>
          <path id="Path_10909" data-name="Path 10909" d="M556.408,702,551,706.394h3.38L558.774,702Z" transform="translate(-498.611 -546.692)" fill="#d97f65"/>
          <path id="Path_10910" data-name="Path 10910" d="M454.951,306.653c-.338,0-1.014-3.042,0-2.7s1.014.676,1.014.676S456.345,306.653,454.951,306.653Z" transform="translate(-434.672 -283.162)" fill="#395f83"/>
          <path id="Path_10911" data-name="Path 10911" d="M455.752,305c-.169,0-.169.676,0,.676C456.09,305.676,456.428,305,455.752,305Z" transform="translate(-435.472 -283.876)" fill="#f8f3ed"/>
          <path id="Path_10912" data-name="Path 10912" d="M452.926,301s-.338.338,1.014,1.014l1.352.676S453.94,301,452.926,301Z" transform="translate(-433.661 -281.227)" fill="#6f362d"/>
          <path id="Path_10913" data-name="Path 10913" d="M471.286,298.957c-.252.025-.676,1.014,0,1.014a5.189,5.189,0,0,1,4.732,2.366S474.666,298.619,471.286,298.957Z" transform="translate(-445.598 -279.861)" fill="#6f362d"/>
          <path id="Path_10914" data-name="Path 10914" d="M473.69,301.98l-1.075-.01s-.615.348-.615,2.038.676,2.028,1.014,2.028a2.969,2.969,0,0,0,2.028-2.366A1.8,1.8,0,0,0,473.69,301.98Z" transform="translate(-446.312 -281.87)" fill="#395f83"/>
          <path id="Path_10915" data-name="Path 10915" d="M476.236,304c-.676,0-.338,1.352,0,1.352S476.912,304,476.236,304Z" transform="translate(-448.858 -283.213)" fill="#f8f3ed"/>
          <path id="Path_10916" data-name="Path 10916" d="M523,415.676v2.7s12.168,2.7,13.182,3.38-1.014-6.76-1.014-6.76Z" transform="translate(-480.075 -356.696)" fill="#ece5dd"/>
          <path id="Path_10917" data-name="Path 10917" d="M480.938,420a1.478,1.478,0,0,0-1.352,1.014c-.338,1.014-.27,1.244.2,1.636s1.487-.96,1.487-.96S482.29,420.338,480.938,420Z" transform="translate(-451.195 -360.006)" fill="#f7e5d9"/>
          <path id="Path_10918" data-name="Path 10918" d="M480.014,429s-1.014,0-1.014.338S479.676,430.352,480.014,429Z" transform="translate(-450.947 -365.964)" fill="#f7e5d9"/>
          <path id="Path_10919" data-name="Path 10919" d="M485,356.676l1.69-.676a12.267,12.267,0,0,0,1.014,2.366c.338.338-1.014.338-1.014.338S485.676,356.676,485,356.676Z" transform="translate(-454.919 -317.638)" fill="#e09375"/>
          <path id="Path_10920" data-name="Path 10920" d="M497.017,315.395s-.1,3.766-1.014,4.056c-6.422,2.028-17.745.845-17.745.845-.338-.338,1.69-9.126-1.352-10.816a14.437,14.437,0,0,1-6.76-8.45c-1.352-4.056,1.69-10.14,1.69-10.14a15.274,15.274,0,0,0,.507-8.619c0-.676-1.69-1.69-5.239-4.225-2.832-2.023-3.887-5.915-4.732-6.084s-2.873.845-2.873.845" transform="translate(-438.037 -261.992)" fill="none" stroke="#a55b34" stroke-miterlimit="10" stroke-width="1"/>
        </g>
        <g id="man" transform="translate(0 0)">
          <path id="Path_10921" data-name="Path 10921" d="M326.039,504.159c.065.454-.108-20.726-.108-20.726L313.547,443.32l-1.947,4.543S325.471,500.211,326.039,504.159Z" transform="translate(-272.272 -358.073)" fill="#ecbd4f"/>
          <path id="Path_10922" data-name="Path 10922" d="M252,684.338a19.057,19.057,0,0,1,2.366-.338c.676,0,1.352,1.014,1.352,1.014s.676,1.014-.338,1.352a10.869,10.869,0,0,1-2.7.338Z" transform="translate(-232.816 -517.405)" fill="#db8774"/>
          <path id="Path_10923" data-name="Path 10923" d="M288.373,287a23,23,0,0,0,2.7.676c2.366.338,3.38,21.632,3.38,21.632s-6.76-1.352-6.76-1.014-3.018-12.412-4.732-12.168C282.587,296.18,288.373,287.676,288.373,287Z" transform="translate(-253.304 -254.588)" fill="#d3d2d1"/>
          <path id="Path_10924" data-name="Path 10924" d="M310,317s.338,9.126.338,11.83c0,1.664,4.394,2.7,6.084,2.7s5.408-2.7,5.408-3.718-.676-6.76-.676-6.76h-4.732Z" transform="translate(-271.213 -274.449)" fill="#df8875"/>
          <path id="Path_10925" data-name="Path 10925" d="M310,317l.338,3.38s6.084,2.028,6.422,2.028,0,2.7,0,2.7h.338v.676h.338v.338h.676v-.338h.338v-1.014h-.338v-2.028h2.7s.548,6,.443,6.043.585-.243.578-.608-.345-7.125-.345-7.125h-5.07S311.014,318.69,310,317Z" transform="translate(-271.213 -274.449)" fill="#c06258"/>
          <path id="Path_10926" data-name="Path 10926" d="M319,334a31.549,31.549,0,0,1,2.346,2.8C321.216,335.242,320.461,333.944,319,334Z" transform="translate(-277.171 -285.7)" fill="#d3756e"/>
          <path id="Path_10927" data-name="Path 10927" d="M326.9,337.352c-.229.15.338-1.352,1.014-1.352h.676A14.055,14.055,0,0,1,326.9,337.352Z" transform="translate(-282.366 -287.027)" fill="#d3756e"/>
          <path id="Path_10928" data-name="Path 10928" d="M355.168,227l-2.7,1.69-2.028,2.366-.338,3.38,3.38.338s1.352,1.69.338,2.366a4.843,4.843,0,0,1-2.366.676,3.949,3.949,0,0,0,0,3.042c.676,1.69-.095,15.264-2.075,18.279s-6.375,2-6.375,2v.338l.352,3.5s13.506,5.624,14.52,7.314,1.352-18.252-1.352-25.349-2.953-11.723.216-14.371C358.548,231.056,355.168,227,355.168,227Z" transform="translate(-293.059 -214.868)" fill="#fffdfd"/>
          <path id="Path_10929" data-name="Path 10929" d="M353.788,257a2.407,2.407,0,0,0-1.244,2.812c.568,1.92.338,7.1.568,9.356.235,2.308-2.325,5.895-2.515,7.679a6.762,6.762,0,0,1-2.758,4.056C347.366,281,345,281,345,281s.406,1.541,1.217,1.447,4.529.243,6.557-5.5S356.894,263.293,353.788,257Z" transform="translate(-294.383 -234.728)" fill="#e0e0e0"/>
          <path id="Path_10930" data-name="Path 10930" d="M375.336,225.737s1.6,2.893.122,5.165-3.164,4.637-2.15,7.679,2.8,11.96,3.718,14.872c2.028,6.422,0,16.9,0,16.9l-5.07-2.366s2.7-13.182,2.028-16.9-4.137-14.98-2.745-16.616,4.11-4.489,2.92-7.625S375.336,225.737,375.336,225.737Z" transform="translate(-311.537 -213.605)" fill="#e0e0e0"/>
          <path id="Path_10931" data-name="Path 10931" d="M297.589,249.4s-.293,7.776-.629,8.116,1.028,2.36,2.375,1.676c0,0,.367,5.068,1.047,5.74s6.441,3.343,10.495,2.981,6.758-.377,8.43-3.428a18.517,18.517,0,0,0,2.643-8.732,15.437,15.437,0,0,0-.695-5.137c-.344-1.012-.016-2.7-.356-3.04s.438-1.416.438-1.416,1.232-1.974.891-2.648a.873.873,0,0,0-.97-.515l-.066-3.2a11.161,11.161,0,0,1-3.714.7c-2.028.011-18.513-.631-18.513-.631S298.22,241.624,297.589,249.4Z" transform="translate(-262.546 -223.343)" fill="#dd9c85"/>
          <path id="Path_10932" data-name="Path 10932" d="M324.529,292.462c.226.227.967-.771,1.694-1.347.358-.283,1.015-.223,1.015-.335,0-.338-2.066,11.823-5.446,11.812a1.48,1.48,0,0,1-1.013-.341l-7.314-.047s-6.873-2.7-7.541-5.071-.651-7.776-.311-8.451,3.7,5.42,4.376,5.422,0-4.036,0-4.036.7-1.37,1.374-1.368,4.715-.667,6.738,1.03c0,0,3.041-.339,3.38-.676s.7.357,1.372.359C323.863,289.418,324,291.926,324.529,292.462Z" transform="translate(-268.156 -255.63)" fill="#723938"/>
          <path id="Path_10933" data-name="Path 10933" d="M325.311,295a1.708,1.708,0,0,0-.338,2.7c1.352,1.69,3.042,3.718,3.718,3.718.779,0,1.014-2.366,2.028-2.366s1.61,2.366,2.366,2.366a10.519,10.519,0,0,0,2.028-1.352c.259-1.888.733-4.321,0-4.732C334.7,295.1,325.311,295,325.311,295Z" transform="translate(-280.778 -259.884)" fill="#e29c87"/>
          <path id="Path_10934" data-name="Path 10934" d="M328,296v.338c0,.338,3.718,2.366,5.408,2.366a8.076,8.076,0,0,0,2.366-1.014s.242-1.089,0-1.014A10.228,10.228,0,0,1,328,296Z" transform="translate(-283.129 -260.546)" fill="#d16c5e"/>
          <path id="Path_10935" data-name="Path 10935" d="M311.894,299s-.338,6.084.676,7.436l.142.034-.48-6.794Z" transform="translate(-272.431 -262.532)" fill="#632e30"/>
          <path id="Path_10936" data-name="Path 10936" d="M319.934,299.676c1.69,3.38.963,8.4,1.014,8.45a3.766,3.766,0,0,0,.507.291s.507-9.078-1.521-9.417A1.97,1.97,0,0,0,319.934,299.676Z" transform="translate(-277.767 -262.532)" fill="#632e30"/>
          <path id="Path_10937" data-name="Path 10937" d="M303,323" transform="translate(-266.579 -278.421)" fill="#fff"/>
          <path id="Path_10938" data-name="Path 10938" d="M332,312l.676.676.338,4.732-.568-.014Z" transform="translate(-285.777 -271.139)" fill="#632e30"/>
          <path id="Path_10939" data-name="Path 10939" d="M342.412,308.767c-.676,1.69,0,6.422,0,6.422h.676s-.676-4.394,0-6.422C343.141,308.607,342.474,308.61,342.412,308.767Z" transform="translate(-292.47 -268.92)" fill="#632e30"/>
          <path id="Path_10940" data-name="Path 10940" d="M351.955,317c.676-1.014.338-5.07.338-5.07l.507-.548s.169,6.293-.169,6.293S351.823,317.2,351.955,317Z" transform="translate(-298.972 -270.728)" fill="#632e30"/>
          <path id="Path_10941" data-name="Path 10941" d="M318,271.819s.095-.2.385-.018a5.876,5.876,0,0,0,3.333.694c1.69,0,1.69-.338,2.7-.338,0,0-.338.676-2.7.676C321.38,272.833,318.338,272.833,318,271.819Z" transform="translate(-276.509 -244.477)" fill="#d67b6a"/>
          <path id="Path_10942" data-name="Path 10942" d="M350.86,271.358s.07-.2.365-.057a5.68,5.68,0,0,0,3.478.6,2.017,2.017,0,0,0,1.613-.905s0,1.014-1.773,1.262C354.222,272.307,351.322,272.611,350.86,271.358Z" transform="translate(-298.262 -243.996)" fill="#de8473"/>
          <ellipse id="Ellipse_147" data-name="Ellipse 147" cx="1.5" cy="0.5" rx="1.5" ry="0.5" transform="translate(49.567 23.834)" fill="#d67b6a"/>
          <path id="Path_10943" data-name="Path 10943" d="M310.577,283.374c.676,1.69,3.042.676,3.042.676s2.366-1.352,1.69-2.7S309.225,279.994,310.577,283.374Z" transform="translate(-271.452 -250.286)" fill="#dd8573"/>
          <path id="Path_10944" data-name="Path 10944" d="M352,249.338v2.7s6.422,0,7.1.676c0,0,.676-2.7.338-3.042a7.008,7.008,0,0,0-2.028-.676h-4.056v.676h-.338V249h-.676Z" transform="translate(-299.017 -229.432)" fill="#582a2c"/>
          <path id="Path_10945" data-name="Path 10945" d="M312,251.38l1.352,1.352h.676c.215-.215.338-1.014.676-1.014h6.76v-1.69s1.014-1.014,0-1.352A37.242,37.242,0,0,0,315.38,248C314.366,248,312,251.38,312,251.38Z" transform="translate(-272.537 -228.77)" fill="#582a2c"/>
          <path id="Path_10946" data-name="Path 10946" d="M316,253.338l1.352,1.69h.338L316.338,253Z" transform="translate(-275.185 -232.08)" fill="#632e30"/>
          <rect id="Rectangle_156" data-name="Rectangle 156" width="1" height="4" transform="translate(43.567 18.834)" fill="#632e30"/>
          <rect id="Rectangle_157" data-name="Rectangle 157" width="2" height="4" transform="translate(44.567 18.834)" fill="#632e30"/>
          <path id="Path_10947" data-name="Path 10947" d="M361.115,249,361,252.029h1.014l-.007-3.049Z" transform="translate(-304.975 -229.419)" fill="#632e30"/>
          <path id="Path_10948" data-name="Path 10948" d="M365,249.021v3.008l1.014.277-.081-3.326Z" transform="translate(-307.623 -229.419)" fill="#632e30"/>
          <path id="Path_10949" data-name="Path 10949" d="M300,249.8a5.758,5.758,0,0,1,1.352,2.366c.074.3.676-1.014.676-1.014v-5.07s1.69-2.366,1.69-3.042A13.247,13.247,0,0,0,302.366,240h-.676l-1.014,3.718Z" transform="translate(-264.593 -223.474)" fill="#723938"/>
          <path id="Path_10950" data-name="Path 10950" d="M301.863,272c-.338,0,.676.338.338,1.352v.338h.338S302.619,272,301.863,272Z" transform="translate(-265.78 -244.658)" fill="#cf6859"/>
          <path id="Path_10951" data-name="Path 10951" d="M300.027,266.92l-.027.7a3.65,3.65,0,0,1,1.352,2.7,2.873,2.873,0,0,0,.662-1.217c.014-.473-.324.541-.324.541S300.392,266.893,300.027,266.92Z" transform="translate(-264.593 -241.295)" fill="#542928"/>
          <path id="Path_10952" data-name="Path 10952" d="M284.3,328.991a29.4,29.4,0,0,1,4.732,2.7c.431.431.54,1.527,1.014,2.028,0,0,.338-2.028,1.352-2.028,4.056,0,4.161-2.7,4.732-2.7.837,0,2.7,1.69,2.366,2.366s.676.338.676.338l-.338,1.352s.676,6.422-1.352,8.788c-.933,1.089,1.352-.676,1.352,3.042s7.4,36.428,7.1,38.869c-.338,2.7-6.084,32.785-6.084,32.785s-20.28-73.344-24-78.414c0,0-2.366-2.366-4.056-2.028-1.417.284,12.243-.373,11.154-4.732A2.147,2.147,0,0,1,284.3,328.991Z" transform="translate(-245.854 -282.383)" fill="#fff"/>
          <path id="Path_10953" data-name="Path 10953" d="M343.664,335s-3.38,1.69-4.732,10.816c-.177,1.2.338,12.844,1.352,12.844.676,0-.676-12.168,0-13.858S344.678,335.338,343.664,335Z" transform="translate(-290.343 -286.365)" fill="#e0e0e0"/>
          <path id="Path_10954" data-name="Path 10954" d="M339.856,245.913c1.014-.338,1.69,1.352,1.352,1.69-.179.179-.369-.6-.676-1.014C340.259,246.218,339.554,246.014,339.856,245.913Z" transform="translate(-290.929 -227.359)" fill="#d67b6a"/>
          <path id="Path_10955" data-name="Path 10955" d="M448.732,487,444,491.056a53.5,53.5,0,0,0,4.394,4.394,2.639,2.639,0,0,0,1.69,0S449.07,488.69,448.732,487Z" transform="translate(-359.922 -386.99)" fill="#333"/>
          <path id="Path_10956" data-name="Path 10956" d="M444,499s3.718,4.394,4.394,4.394S445.352,500.014,444,499Z" transform="translate(-359.922 -394.934)" fill="#252524"/>
          <path id="Path_10957" data-name="Path 10957" d="M214.778,1028.059s-12.519,4.6-15.561,4.935l-3.042.338s-1.85,4.573-.338,6.084c.338.338,11.492,5.408,25.011-.676.616-.278,3.042,1.352,7.774.338.331-.071.27-6.638.27-6.638S218.847,1025.152,214.778,1028.059Z" transform="translate(-195.242 -744.721)" fill="#050505"/>
          <path id="Path_10958" data-name="Path 10958" d="M256,1022.717s4.014,1.69,5.408,1.69c.338,0-.338,1.352,5.07,2.028s6.958.14,7.436-.338c.338-.338,3.38,1.69,9.126,1.69a112.73,112.73,0,0,0,11.492-.676s7.774,1.014,11.154-1.352,5.165-6.814,4.056-6.76-6.963,3.637-6.963,3.637a18.349,18.349,0,0,1-4.191-.257c-4.056-1.69-14.905,4.207-19.942,0-3.659-3.057-9.633-2.76-13.858-1.69-2.385.6-3.38,1.014-5.07,1.352S256,1022.717,256,1022.717Z" transform="translate(-235.464 -739.176)" fill="#fff"/>
          <path id="Path_10959" data-name="Path 10959" d="M202,1048s2.028,4.732,24,1.69" transform="translate(-199.716 -758.376)" fill="none" stroke="#333" stroke-miterlimit="10" stroke-width="1"/>
          <path id="Path_10960" data-name="Path 10960" d="M332,338.138a71.356,71.356,0,0,0,5.07-5.07,1.7,1.7,0,0,0-.568-2.474c-.446-.23,1.582.446,1.244,1.8S334.7,336.786,332,338.138Z" transform="translate(-285.777 -283.418)" fill="#e0e0e0"/>
          <path id="Path_10961" data-name="Path 10961" d="M364,282v2.028s1.014,1.352,1.69,1.014S364,282,364,282Z" transform="translate(-306.961 -251.278)" fill="#d67b6a"/>
          <path id="Path_10962" data-name="Path 10962" d="M366,280.676l1.69,2.366s0-3.042-.338-3.042A4.955,4.955,0,0,0,366,280.676Z" transform="translate(-308.285 -249.954)" fill="#d67b6a"/>
          <path id="Path_10963" data-name="Path 10963" d="M531.541,496h-3.718s-1.352,3.042,0,3.38a28.115,28.115,0,0,0,4.394.676Z" transform="translate(-415.015 -392.948)" fill="#dd8674"/>
          <path id="Path_10964" data-name="Path 10964" d="M530.417,509.706s-5.408-.338-6.422,0c-1.069.357-.338,4.394,1.014,4.394,2.366,0,6.084.338,6.084.338Z" transform="translate(-412.54 -401.922)" fill="#dd8674"/>
          <path id="Path_10965" data-name="Path 10965" d="M527.014,521.676,526,521l6.672.446.088.568Z" transform="translate(-414.206 -409.498)" fill="#c2635d"/>
          <path id="Path_10966" data-name="Path 10966" d="M526.838,521.24l6.415.257v.676l-5.618-.312-.466-.026S526.507,521.321,526.838,521.24Z" transform="translate(-414.7 -409.657)" fill="#c2635d"/>
          <path id="Path_10967" data-name="Path 10967" d="M528.007,523.441c-.676.338-.676,2.028,0,3.38.454.907,5.408.338,5.408.338l.338-3.718S529.292,522.8,528.007,523.441Z" transform="translate(-415.199 -410.925)" fill="#dd8674"/>
          <path id="Path_10968" data-name="Path 10968" d="M529,534s5.07,0,5.408.338c.239.239-4.921-.135-5.165-.068S529,534,529,534Z" transform="translate(-416.192 -418.104)" fill="#c2635d"/>
          <path id="Path_10969" data-name="Path 10969" d="M534.589,535.52s-.8,1.514-.122,2.528,1.014,1.352,1.69,1.352a2.224,2.224,0,0,0,1.014-3.718Z" transform="translate(-419.632 -419.11)" fill="#c36456"/>
          <path id="Path_10970" data-name="Path 10970" d="M267.051,343.4s5.732,4.259,8.774,4.935,4.056.676,5.408,2.366,12.844,12.844,14.2,15.548,2.366,4.394,2.366,4.394L284.951,386.19l-6.084-6.422s0,30.419.676,35.151,5.07,47.995,5.408,49.009-8.788,42.249-7.1,61.515c1.008,11.492,5.746,36.836,5.746,47.319,0,.338-3.712,4.846-14.2,1.352-2.028-.676-1.69,2.366-6.76,2.366s-6.422-1.014-13.858-2.7c-.659-.15-7.1-2.028-26.363,3.718-.724.216,2.366-5.746,3.718-16.224a310.511,310.511,0,0,0,3.042-33.461c.676-16.224,4.056-89.33,4.056-93.286,0-.338-17.238.676-17.238.676s5.07-55.093,9.126-73.682c0,0,2.028-12.168,9.464-14.534,8.052-2.562,28.391,91.6,28.391,91.6s-1.325-90.014,4.069-94.692" transform="translate(-208.984 -291.926)" fill="#202020"/>
          <path id="Path_10971" data-name="Path 10971" d="M262,665.363s5.746.338,5.746-5.746a35.082,35.082,0,0,0-1.352-4.394s2.028-10.816-3.042-16.224Z" transform="translate(-239.436 -487.615)" fill="#1c1c1c"/>
          <path id="Path_10972" data-name="Path 10972" d="M233.147,606.752s.507,1.521.845,2.873,4.732,6.084,4.056,8.45-2.028,5.746-2.028,5.746l-4.056-2.028s1.69-2.028,1.352-3.38-1.014-2.366-1.352-1.014-1.014,5.07-1.014,5.07,2.7,4.394,2.7,6.084c0,0,6.084,2.7,5.746,4.056s-1.014,1.014-1.014,1.014l-2.028-.676s.676,2.028,0,2.7-7.774-5.408-7.774-5.408l-.338-1.014h-1.69l-4.056-9.464s3.466-7.763,3.718-10.14C229.429,579.374,233.147,606.752,233.147,606.752Z" transform="translate(-213.287 -458.746)" fill="#dd8873"/>
          <path id="Path_10973" data-name="Path 10973" d="M248.014,660,247,665.07l.338.338S248.69,660.338,248.014,660Z" transform="translate(-229.506 -501.517)" fill="#c36456"/>
          <path id="Path_10974" data-name="Path 10974" d="M253,660h2.366v.676l-1.987-.027Z" transform="translate(-233.478 -501.517)" fill="#c66257"/>
          <path id="Path_10975" data-name="Path 10975" d="M258.857,672.734c-.338-.338.586-1.814,1.014-2.028a1.632,1.632,0,0,1,1.352,0l-.183.311s-.4-.314-1.1.292C259.632,671.573,259.1,672.973,258.857,672.734Z" transform="translate(-237.308 -508.505)" fill="#c66257"/>
          <path id="Path_10976" data-name="Path 10976" d="M251,672.881c.006.338.658.688,1.69,1.352a5.057,5.057,0,0,0,2.028.676S250.991,672.4,251,672.881Z" transform="translate(-232.154 -510.004)" fill="#c36456"/>
          <path id="Path_10977" data-name="Path 10977" d="M228.038,665.155s-.424-.084-.212-.585a.857.857,0,0,1,.755-.5,7.336,7.336,0,0,1,.815,1.087c.176.248.815.272.815.272s-.815.272-1.087,0c-.136-.136-.543-.815-.815-.815C227.925,664.611,228.309,665.155,228.038,665.155Z" transform="translate(-216.773 -504.21)" fill="#c06457"/>
          <path id="Path_10978" data-name="Path 10978" d="M223,668s3.718.676,4.056,1.352,4.056,8.45,4.056,8.45l5.746,3.042s1.056,2.7-.338,2.7c-.338,0-6.76-5.07-6.76-5.07l-.676-1.352h-1.352Z" transform="translate(-213.618 -506.813)" fill="#c36456"/>
          <path id="Path_10979" data-name="Path 10979" d="M230,675s3.718,8.112,4.056,8.45,6.422,5.07,6.422,5.07l.23-.135-6.314-5.273L230.676,675Z" transform="translate(-218.252 -511.447)" fill="#ae4d47"/>
          <path id="Path_10980" data-name="Path 10980" d="M227.746,661.9s-1.393.284-1.541-.027-4.2-9.1-4.2-9.1.338-.676,1.69-3.718A31.672,31.672,0,0,1,225.718,645l-2.7,7.774S225.353,661.44,227.746,661.9Z" transform="translate(-212.956 -491.587)" fill="#c16259"/>
          <path id="Path_10981" data-name="Path 10981" d="M232.129,487a16.268,16.268,0,0,1,2.7,10.14,12.492,12.492,0,0,1-2.7,6.422l.338,27.377s-12.11,12.6-16.562,10.14c-3.105-1.718-.676-13.52-.676-13.52s4.986-.3,6.76-2.366C224.017,522.827,232.129,487,232.129,487Z" transform="translate(-207.875 -386.99)" fill="#1c1c1c"/>
          <path id="Path_10982" data-name="Path 10982" d="M317,232a38.158,38.158,0,0,0,8.76,1.014c5.089-.179,10.715-.941,11.315-1.69.8-1-1.405-3.718-2.5-3.38C334.576,227.943,331.966,231.323,317,232Z" transform="translate(-275.847 -215.473)" fill="#723938"/>
          <path id="Path_10983" data-name="Path 10983" d="M325,264.532s3.042-1.014,3.5,1.136a3.371,3.371,0,0,0-3.159-1.136Z" transform="translate(-281.143 -239.556)" fill="#e38a76"/>
          <path id="Path_10984" data-name="Path 10984" d="M328,296s1.456.932,1.786.857S328,296,328,296Z" transform="translate(-283.129 -260.546)" fill="#ba594f"/>
          <path id="Path_10985" data-name="Path 10985" d="M329,288.926v2.028h.338v-2.028S329,288.842,329,288.926Z" transform="translate(-283.791 -255.839)" fill="#632e30"/>
          <path id="Path_10986" data-name="Path 10986" d="M337.994,290v1.69h.676v-1.352S337.936,290.318,337.994,290Z" transform="translate(-289.743 -256.574)" fill="#632e30"/>
          <path id="Path_10987" data-name="Path 10987" d="M347,292v1.014h.676l-.034-1.007Z" transform="translate(-295.707 -257.898)" fill="#632e30"/>
          <path id="Path_10988" data-name="Path 10988" d="M354,290.338v1.352h.338V290Z" transform="translate(-300.341 -256.574)" fill="#632e30"/>
          <path id="Path_10989" data-name="Path 10989" d="M377,235.279s3.718-3.718,2.366-8.45C379.109,225.93,382.07,232.238,377,235.279Z" transform="translate(-315.567 -214.698)" fill="#a2a1a2"/>
          <path id="Path_10990" data-name="Path 10990" d="M349,335.305s2.7-1.352,2.366-.676a10.421,10.421,0,0,1-.818,1.325Z" transform="translate(-297.031 -285.994)" fill="#bf943c"/>
          <path id="Path_10991" data-name="Path 10991" d="M267,351.412s3.042-.676,4.394,0,5.746,5.746,11.505,28.053C282.984,379.792,274.1,347.694,267,351.412Z" transform="translate(-242.746 -297.03)" fill="#fff"/>
          <path id="Path_10992" data-name="Path 10992" d="M331,528s1.352,8.45,2.028,10.816,1.69,7.1,2.366,8.112S333.028,532.056,331,528Z" transform="translate(-285.115 -414.132)" fill="#333"/>
          <path id="Path_10993" data-name="Path 10993" d="M271,360" transform="translate(-245.394 -302.915)" fill="#dd8873"/>
          <path id="Path_10994" data-name="Path 10994" d="M236.1,350s-5.07,2.366-5.746,6.422-2.7,20.618-2.7,20.618l-2.028,16.224s-3.38,25.687-3.718,31.771-4.394,27.039-2.7,24,6.422-24,6.084-29.405c0,0,.676-18.928,2.028-23.321,0,0,4.056-20.618,3.718-26.7s2.028-16.562,6.084-17.576C237.438,351.946,236.1,350,236.1,350Z" transform="translate(-210.829 -296.295)" fill="#ecbd4f"/>
          <path id="Path_10995" data-name="Path 10995" d="M219.421,455.323s.962-4.458,1.622-7.79c2.344-11.834.649-14.873.986-15.212,1.067-1.071-1.339,7.1-1.339,7.1s-.686-5.407-.014-7.436,4.04-8.457,4.012-23.667c-.014-7.613,2.678-14.539,4-30.089.091-1.065-.022-11.83,2-14.2s4.949-6.253,4.385-4.74c-2.018,5.412-3.384-2.36-10.7,63.563C224.034,425.95,224.753,443.47,219.421,455.323Z" transform="translate(-211.249 -302.22)" fill="#dbb025"/>
          <path id="Path_10996" data-name="Path 10996" d="M261.282,379.813c2.683-1.723,3.562,14.829,3.562,14.829s-1.076-5.057-2.131-8.424C261.582,382.611,260.587,380.259,261.282,379.813Z" transform="translate(-238.808 -315.948)" fill="#333"/>
          <path id="Path_10997" data-name="Path 10997" d="M264.232,443.991c-.179-.287.338,12.506-1.69,13.52-.676.338-3.042-5.408-3.042-5.408a104.214,104.214,0,0,1,2.352,10.5c.324,3.07-.663,13.831-.663,13.831l-.338,11.83s-1.352-2.028-2.028-2.028,2.7,2.7,2.366,8.112-.473,7.76-.473,7.76a3.6,3.6,0,0,0,2.163-2.69c.338-2.028.676-9.126-.338-11.154s.338-.676.676-7.1c0,0,1.352-17.914.676-19.942S267.612,449.4,264.232,443.991Z" transform="translate(-237.275 -358.514)" fill="#0f0f0f"/>
          <path id="Path_10998" data-name="Path 10998" d="M260.926,501.306s-.338-1.014,1.014-1.69,1.352-1.014,1.69-.338-.338,2.7-1.352,2.7A1.464,1.464,0,0,1,260.926,501.306Z" transform="translate(-238.701 -394.874)" fill="#e29579"/>
          <path id="Path_10999" data-name="Path 10999" d="M260,509.838a2.341,2.341,0,0,1,1.352-1.014c1.014-.338,2.7.338,2.7,1.014s-.338,1.69-2.028,1.69A2.115,2.115,0,0,1,260,509.838Z" transform="translate(-238.112 -401.378)" fill="#e29579"/>
          <path id="Path_11000" data-name="Path 11000" d="M260,519.352S260,518,261.014,518s2.028.676,2.028,1.352-.676,1.014-1.69,1.014A1.507,1.507,0,0,1,260,519.352Z" transform="translate(-238.112 -407.512)" fill="#e29579"/>
          <path id="Path_11001" data-name="Path 11001" d="M259,528.014s.338-1.014,1.014-1.014,1.014,1.014,1.014,1.014-.338,1.352-1.014,1.352S259,528.014,259,528.014Z" transform="translate(-237.45 -413.47)" fill="#e29579"/>
          <path id="Path_11002" data-name="Path 11002" d="M258.283,377s6.422,10.478,4.732,15.548c0,0-3.38-12.235-5.07-13.858C257.8,378.549,258.283,377,258.283,377Z" transform="translate(-236.734 -314.169)" fill="#1e1d1d"/>
          <path id="Path_11003" data-name="Path 11003" d="M275.64,354.112s1.812-.379,4.516,6.381l21.632,70.3" transform="translate(-248.466 -299.015)" fill="#f4ec63"/>
          <path id="Path_11004" data-name="Path 11004" d="M416.971,434.763c.676-.338,13.182-15.21,13.182-15.21l-.967-.994L415.68,434.621Z" transform="translate(-341.174 -341.682)" fill="#1e1d1d"/>
          <path id="Path_11005" data-name="Path 11005" d="M397.94,425.892s-.676-.676-1.014,2.7,1.69,44.953,2.7,46.643C400.9,477.349,396.588,426.906,397.94,425.892Z" transform="translate(-328.734 -346.499)" fill="#333"/>
          <path id="Path_11006" data-name="Path 11006" d="M271,359.7s.676-3.718,11.492,25.349c11.136,29.929,21.97,89.906,26.363,121,.675,4.776.676,18.59,0,19.6,0,0,.676-10.478-1.352-18.928,0,0-21.294-101.06-25.687-117.284C279.469,380.775,271,360.036,271,359.7Z" transform="translate(-245.394 -302.613)" fill="#0f0f0f"/>
          <path id="Path_11007" data-name="Path 11007" d="M352,627s9.531,53.241,10.478,58.135S356.732,632.746,352,627Z" transform="translate(-299.017 -479.671)" fill="#1c1c1c"/>
          <path id="Path_11008" data-name="Path 11008" d="M284,237s6.76.676,7.1,1.176A11.762,11.762,0,0,1,284,237Z" transform="translate(-254 -221.488)" fill="#a2a1a2"/>
          <path id="Path_11009" data-name="Path 11009" d="M282.823,204.59s-1.352,1.352,0,2.028,25.286,4.457,33.461-3.718c.338-.338-4.732-2.028-5.408-3.38s-6.422-10.14-15.886-8.112-8.45,9.8-8.45,9.8S283.161,204.59,282.823,204.59Z" transform="translate(-252.824 -191.105)" fill="#fffdfd"/>
          <path id="Path_11010" data-name="Path 11010" d="M286.355,208.746c-.405-.5-1.567.206-2.1.571-1.132.778-2.5,1.865-2.3,2.471.338,1.014,4.056,3.042,16.562-.338s13.182-5.746,12.844-7.1S307.648,203,307.648,203s3.38,1.69,0,3.042a107.232,107.232,0,0,1-13.858,4.056C291.041,210.648,287.505,210.167,286.355,208.746Z" transform="translate(-252.637 -198.98)"/>
          <path id="Path_11011" data-name="Path 11011" d="M290.822,204.767c.15-.626-1.352.676-2.028,1.352-.717.717,2.028,4.732,14.534,1.014s11.83-5.408,11.83-5.746-.676-2.028-4.056-1.014c-.724.217,8.2-.056-7.1,4.394C291.967,208.269,290.329,206.829,290.822,204.767Z" transform="translate(-257.105 -197.029)"/>
          <path id="Path_11012" data-name="Path 11012" d="M291,210.415c9.971,3.549,25.18-3.887,25.857-5.915" transform="translate(-258.635 -199.973)" fill="none" stroke="#333" stroke-miterlimit="10" stroke-width="1"/>
          <path id="Path_11013" data-name="Path 11013" d="M256,1024.7s10.14-3.718,19.6-1.69,11.208,2.393,14.534,2.028,4.367-2.068,5.07-2.028,5.935,1.758,8.45,1.352,6.084-1.352,6.422-2.366c0,0-1.377,2.936-3.042,3.38-5.07,1.352-12.7-1.592-11.951-1.095.122.081-4.272,5.489-25.9-.257C263.619,1022.55,256,1024.7,256,1024.7Z" transform="translate(-235.464 -741.163)" fill="#212121"/>
          <path id="Path_11014" data-name="Path 11014" d="M286,228.718s11.046,3.245,20.618,1.69,12.168-4.056,12.168-5.408c0,0-6.76,3.38-9.8,3.718S295.126,230.746,286,228.718Z" transform="translate(-255.325 -213.544)" fill="#e0e0e0"/>
          <path id="Path_11015" data-name="Path 11015" d="M215.36,616.931l.216.933s1.014,3.042,8.45-2.028S234.1,606.3,234.1,606.3l.162-1.785S224.364,614.822,215.36,616.931Z" transform="translate(-208.56 -464.789)" fill="#ecbd4f"/>
          <path id="Path_11016" data-name="Path 11016" d="M215.835,621.151s-.338,2.7.338,2.366,5.746-1.352,9.126-3.718,10.478-7.1,9.464-9.8c0,0-.338-1.352-1.69.338S219.552,621.489,215.835,621.151Z" transform="translate(-208.819 -468.076)" fill="#f4ec63"/>
          <path id="Path_11017" data-name="Path 11017" d="M352,268.028S353.69,266,355.042,266a1.9,1.9,0,0,1,2.028,1.69C357.07,268.366,354.7,270.056,352,268.028Z" transform="translate(-299.017 -240.686)" fill="#f7f2e8"/>
          <path id="Path_11018" data-name="Path 11018" d="M358.205,266.02s-2.1.071-1.45,2.021c.676,2.028,3.042.676,3.042-.676S358.205,266.02,358.205,266.02Z" transform="translate(-302.082 -240.699)" fill="#452038"/>
          <path id="Path_11019" data-name="Path 11019" d="M351.338,267.323H351s2.366-4.056,4.816-1.6c.448.45-.889-.514-2.008-.3S351.338,267.323,351.338,267.323Z" transform="translate(-298.355 -239.982)" fill="#dd7d6c"/>
          <path id="Path_11020" data-name="Path 11020" d="M360.014,267.507c0,.109-.195-.083-.254,0-.092.13.254.507-.253.507a.507.507,0,1,1,.507-.507Z" transform="translate(-303.651 -241.348)" fill="#f7f6ee"/>
          <path id="Path_11021" data-name="Path 11021" d="M319.014,266.821,318,266.483s2.366-4.732,5.415-1.93c.561.516-2.035-.774-3.049-.1A4.255,4.255,0,0,0,319.014,266.821Z" transform="translate(-276.509 -239.141)" fill="#cf6859"/>
          <path id="Path_11022" data-name="Path 11022" d="M320,267.2a3.92,3.92,0,0,1,2.366-2.366,2.713,2.713,0,0,1,3.38,2.028c.148.741,0,1.014-.338,1.014S320,268.214,320,267.2Z" transform="translate(-277.833 -239.859)" fill="#f7f2e8"/>
          <path id="Path_11023" data-name="Path 11023" d="M327.352,265c-.465.11-1.352.676-1.352,1.352s.338,1.69,1.014,1.69,2.028,0,2.366-.676S328.7,265,328.028,265Z" transform="translate(-281.805 -240.024)" fill="#452038"/>
          <path id="Path_11024" data-name="Path 11024" d="M330.014,266.507c0,.109-.2-.083-.254,0-.092.13.254.507-.253.507a.507.507,0,1,1,.507-.507Z" transform="translate(-283.791 -240.686)" fill="#f7f6ee"/>
          <path id="Path_11025" data-name="Path 11025" d="M313.908,284s-1.352.676-1.014,1.014l.676.676" transform="translate(-273.092 -252.602)" fill="none" stroke="#de947b" stroke-miterlimit="10" stroke-width="1"/>
          <path id="Path_11026" data-name="Path 11026" d="M340.387,270.394A7.948,7.948,0,0,1,339.373,266h.676s0,3.718,1.014,4.056c0,0,2.7,2.366,2.366,3.718-.246.984-4.617,1.381-6.084,1.014-1.352-.338-.676-3.042-.676-3.042a1.861,1.861,0,0,1,1.69-.676v.676s-1.352-.338-1.352,1.014.986,1.69,3.042,1.69c2.028,0,3.558-.835,2.028-2.366" transform="translate(-288.756 -240.686)" fill="#d67b6a"/>
          <path id="Path_11027" data-name="Path 11027" d="M328.14,264.993a4.536,4.536,0,0,0-.943-.03,2.669,2.669,0,0,0-1.156.973c-.439.717.368,1.852.237,1.393C325.6,264.963,328.14,264.993,328.14,264.993Z" transform="translate(-281.744 -239.987)" fill="#281221"/>
          <path id="Path_11028" data-name="Path 11028" d="M320,267.4s0-.676,1.014-1.69a1.914,1.914,0,0,1,1.267-.661S321.352,265.368,320,267.4Z" transform="translate(-277.833 -240.054)" fill="#d8d6d4"/>
          <path id="Path_11029" data-name="Path 11029" d="M357.671,266.35a1.311,1.311,0,0,0-.958,1.415,1.47,1.47,0,0,0,1.447,1.509C355.962,267.895,357.182,266.468,357.671,266.35Z" transform="translate(-302.134 -240.918)" fill="#281221"/>
          <path id="Path_11030" data-name="Path 11030" d="M304.32,330.023a4.492,4.492,0,0,1,.34-1.352c.21-.29,1.347-1.7,1.347-1.7s-1.355-.345-2.028,2.366C303.9,329.666,304.32,330.023,304.32,330.023Z" transform="translate(-267.22 -281.041)" fill="#e0e0e0"/>
          <path id="Path_11031" data-name="Path 11031" d="M348.909,336s1.1,1.041,1.393,1.027-.122.365-.122.365S348.571,336.676,348.909,336Z" transform="translate(-296.94 -287.027)" fill="#e0e0e0"/>
          <path id="Path_11032" data-name="Path 11032" d="M239.055,356s-4.475.7-5.448,11.505-5.354,32.19-5.192,35.692-1.027,22.429-1.785,25.471c0,0-3.921,21.78-4.7,22.551s.973-.162.973-.162,7.03-20.7,6.354-30.163,1.014-26.363,3.042-31.771c0,0,3.38-28.729,5.408-30.757S239.055,356,239.055,356Z" transform="translate(-212.773 -300.267)" fill="#1c1c1c"/>
          <path id="Path_11033" data-name="Path 11033" d="M309.153,328s-.676.338-.338.338A.331.331,0,0,0,309.153,328Z" transform="translate(-270.365 -281.731)" fill="none" stroke="#b7b7b7" stroke-miterlimit="10" stroke-width="1"/>
          <path id="Path_11034" data-name="Path 11034" d="M312.627,334.422s.473-1.866,1.42-2.285,4.664-.757,4.867-1.014a1.659,1.659,0,0,0,.811-1.433c0-1.014-1.352-1.352-1.352-1.352s-1.165,2.028-1.69,2.028c-4.732,0-4.056,2.7-4.056,2.7a4.191,4.191,0,0,0-1.352-2.366,19.832,19.832,0,0,0-4.394-2.7c-.338,0-1.352,1.352-1.014,1.352C307.378,329.352,311.613,331.38,312.627,334.422Z" transform="translate(-268.431 -281.731)" fill="#e0e0e0"/>
          <path id="Path_11035" data-name="Path 11035" d="M346.67,334.98c.676.372,1.352,0,1.69.372s.676.372,1.014.745.676.372,1.014,1.117,0,0-.676,1.117c-4.056,6.7-2.7,18.622-2.7,18.622l-.676,55.087s-4.859-10.707-4.394-12.168c4.732-14.872-.324-53.035.338-54.838S345.995,334.608,346.67,334.98Z" transform="translate(-292.335 -286.344)" fill="#ecbd4f"/>
          <path id="Path_11036" data-name="Path 11036" d="M361.542,342.649,360.393,341s-1.352,1.014-2.42,4.813c-.916,3.257-1.271,7.9-.622,23.24.166,3.917.676-16.224,1.352-20.618C359.117,345.742,361.542,342.649,361.542,342.649Z" transform="translate(-302.34 -290.337)" fill="#1e1d1d"/>
          <path id="Path_11037" data-name="Path 11037" d="M399.028,426.844l1.69,1.69L397,414s.017,18.235,1.69,16.562C399.028,430.224,398.494,426.309,399.028,426.844Z" transform="translate(-328.807 -338.663)" fill="#1e1d1d"/>
          <path id="Path_11038" data-name="Path 11038" d="M324.5,337.65s1.072-2.564,2.028-3.042c2.028-1.014,6.422,0,5.455-3.008" transform="translate(-280.812 -284.114)" fill="none" stroke="#b7b7b7" stroke-miterlimit="10" stroke-width="1"/>
          <path id="Path_11039" data-name="Path 11039" d="M305.8,328.5s-1.014.676.385,1.251c.982.4,5.279,1.859,6.165,4.867" transform="translate(-268.2 -282.062)" fill="none" stroke="#b7b7b7" stroke-miterlimit="10" stroke-width="1"/>
          <path id="Path_11040" data-name="Path 11040" d="M337.349,332.2s1.041,1-.852,3-4.137,3.934-4.137,3.934" transform="translate(-286.015 -284.511)" fill="none" stroke="#b7b7b7" stroke-miterlimit="10" stroke-width="1"/>
          <path id="Path_11041" data-name="Path 11041" d="M344.449,338.917c.8-.671-4.056,6.76-3.718,11.154l.473,12.81S337.155,345.028,344.449,338.917Z" transform="translate(-291.128 -288.93)" fill="#b7b7b7"/>
          <path id="Path_11042" data-name="Path 11042" d="M353.347,337.138s-3.644,3.987-3.333,11.762C351.028,374.25,349,407.711,349,407.711l2.028,6.422s1.773-40.565.98-50.956c-1.656-21.713,3.076-24.755,3.076-24.755S354.651,336.868,353.347,337.138Z" transform="translate(-297.031 -287.759)" fill="#dbb025"/>
          <path id="Path_11043" data-name="Path 11043" d="M341,396.952a80.1,80.1,0,0,0,1.879-10.1c.149-3.082-1.163-31.216-1.7-41.614-.176-3.38,5.57-10.14,4.894-10.478s1.311.135,1.311.135-5.029,7.977-5.029,12.709,2.028,39.207,1.352,41.911-1.69,10.816-1.69,10.816Z" transform="translate(-291.735 -286.126)" fill="#ecbd4f"/>
          <path id="Path_11044" data-name="Path 11044" d="M268.2,350.775s1.433-1.109,2.3-.324a24,24,0,0,1,5.746,7.774c2.028,4.394,21.294,64.557,21.294,64.557s.2,10.527-.338,8.788C278.61,371.406,273.54,358.224,268.2,350.775Z" transform="translate(-243.541 -296.407)" fill="#ecbd4f"/>
          <path id="Path_11045" data-name="Path 11045" d="M301.844,422.288s-2.609-8.436-3.718-11.492-13.831-42.425-16.9-53.065c-1.173-4.066-7.378-7.04-6.422-6.084,8.45,8.45,27.039,74.338,27.039,77.062Z" transform="translate(-247.847 -297.266)" fill="#dbb025"/>
          <path id="Path_11046" data-name="Path 11046" d="M250.005,235.455l7.7-.354s-.789,21.949-5.864,25.659c0,0,5.164,4.356,8.088,15.9,7.1,28.036-5.065,41.217-5.065,41.217s-.688-35.818-2.037-38.524-4.723-6.091-7.766-5.081-7.468,8.756-9.316,18.9c-2.013,11.049-2.905,16.909-2.905,16.909s4.137-54.411,13.283-67.917A50.851,50.851,0,0,0,250.005,235.455Z" transform="translate(-220.132 -220.231)" fill="#fff"/>
          <path id="Path_11047" data-name="Path 11047" d="M252,335.831s3.718-8.112,4.394-8.788c.239-.239-2.028,6.422-1.69,6.422.478,0,3.042-8.112,3.38-8.788s-1.122.852-2.082,2.285S252.338,332.451,252,335.831Z" transform="translate(-232.816 -279.421)" fill="#b7b7b7"/>
          <path id="Path_11048" data-name="Path 11048" d="M268.222,239s.308,23.561-7.436,26.025c-7.436,2.366-9.963,15.371-11.83,17.238-.338.338,3.138-19.608,12.506-21.294C263.849,260.54,266.194,240.014,268.222,239Z" transform="translate(-230.787 -222.812)" fill="#e0e0e0"/>
          <path id="Path_11049" data-name="Path 11049" d="M295.746,363.389s5.07-10.816,1.014-35.489C295.7,321.424,290,311,290,311s6.043,8.8,7.436,12.168S305.21,346.827,295.746,363.389Z" transform="translate(-257.973 -270.476)" fill="#e0e0e0"/>
          <path id="Path_11050" data-name="Path 11050" d="M249,283.27s5.07-12.844,7.774-15.548,5.536-1.845,7.267-5.577,3.38-3.718,4.394-22.646" transform="translate(-230.83 -223.143)" fill="none" stroke="#b7b7b7" stroke-miterlimit="10" stroke-width="1"/>
          <path id="Path_11051" data-name="Path 11051" d="M272,350s6.884,1.985,7.6,7.6c.845,6.591,1.183,36,1.183,36" transform="translate(-246.056 -296.295)" fill="none" stroke="#b7b7b7" stroke-miterlimit="10" stroke-width="2"/>
          <path id="Path_11052" data-name="Path 11052" d="M289.86,311s8.19,7.886,10.478,22.984a49.39,49.39,0,0,1-1.014,19.942s2.7-15.21-2.028-29.067C295.811,320.507,289.022,310.987,289.86,311Z" transform="translate(-257.833 -270.476)" fill="#b7b7b7"/>
          <ellipse id="Ellipse_148" data-name="Ellipse 148" cx="0.5" rx="0.5" transform="translate(46.567 35.834)" fill="#723938"/>
        </g>
      </g>
    </g>
  </g>
</svg>
