<svg id="Group_831" data-name="Group 831" xmlns="http://www.w3.org/2000/svg" width="741.028" height="281.019" viewBox="0 0 741.028 281.019">
  <g id="Group_367" data-name="Group 367" transform="translate(131.516 175.359)">
    <path id="Path_11189" data-name="Path 11189" d="M6.964,13.935a6.968,6.968,0,1,1,6.969-6.969A6.976,6.976,0,0,1,6.964,13.935Zm0-10.814a3.847,3.847,0,1,0,3.856,3.845A3.855,3.855,0,0,0,6.964,3.121Z" transform="translate(0)" fill="#f6dde2"/>
  </g>
  <g id="Group_368" data-name="Group 368" transform="translate(496.399 47.069)">
    <path id="Path_11190" data-name="Path 11190" d="M6.964,13.933a6.966,6.966,0,1,1,6.969-6.966A6.974,6.974,0,0,1,6.964,13.933Zm0-10.814a3.848,3.848,0,1,0,3.856,3.848A3.854,3.854,0,0,0,6.964,3.118Z" fill="#fff"/>
  </g>
  <g id="Group_374" data-name="Group 374" transform="translate(401.547 25.616)">
    <g id="Group_369" data-name="Group 369" transform="translate(8.261 0)">
      <rect id="Rectangle_167" data-name="Rectangle 167" width="5.219" height="3.6" transform="matrix(0.707, -0.707, 0.707, 0.707, 0, 3.691)" fill="#fff"/>
    </g>
    <g id="Group_370" data-name="Group 370" transform="translate(0 8.254)">
      <rect id="Rectangle_168" data-name="Rectangle 168" width="5.224" height="3.605" transform="translate(0 3.7) rotate(-45.086)" fill="#fff"/>
    </g>
    <g id="Group_373" data-name="Group 373" transform="translate(0.002 0)">
      <g id="Group_371" data-name="Group 371" transform="translate(0 0)">
        <rect id="Rectangle_169" data-name="Rectangle 169" width="3.6" height="5.219" transform="translate(0 2.547) rotate(-45.031)" fill="#fff"/>
      </g>
      <g id="Group_372" data-name="Group 372" transform="translate(8.256 8.254)">
        <rect id="Rectangle_170" data-name="Rectangle 170" width="3.605" height="5.224" transform="translate(0 2.548) rotate(-44.973)" fill="#fff"/>
      </g>
    </g>
  </g>
  <g id="Group_380" data-name="Group 380" transform="translate(322.151 133.768)">
    <g id="Group_375" data-name="Group 375" transform="translate(8.261 0)">
      <rect id="Rectangle_171" data-name="Rectangle 171" width="5.219" height="3.6" transform="translate(0 3.691) rotate(-45.003)" fill="#fff"/>
    </g>
    <g id="Group_376" data-name="Group 376" transform="translate(0 8.254)">
      <rect id="Rectangle_172" data-name="Rectangle 172" width="5.224" height="3.605" transform="translate(0 3.699) rotate(-45.074)" fill="#fff"/>
    </g>
    <g id="Group_379" data-name="Group 379" transform="translate(0.002 0)">
      <g id="Group_377" data-name="Group 377" transform="translate(0 0)">
        <rect id="Rectangle_173" data-name="Rectangle 173" width="3.6" height="5.219" transform="translate(0 2.547) rotate(-45.029)" fill="#fff"/>
      </g>
      <g id="Group_378" data-name="Group 378" transform="translate(8.256 8.254)">
        <rect id="Rectangle_174" data-name="Rectangle 174" width="3.605" height="5.224" transform="matrix(0.707, -0.707, 0.707, 0.707, 0, 2.548)" fill="#fff"/>
      </g>
    </g>
  </g>
  <g id="Group_386" data-name="Group 386" transform="translate(726.527 126.652)">
    <g id="Group_381" data-name="Group 381" transform="translate(8.261 0)">
      <rect id="Rectangle_175" data-name="Rectangle 175" width="5.219" height="3.6" transform="matrix(0.707, -0.707, 0.707, 0.707, 0, 3.69)" fill="#fff"/>
    </g>
    <g id="Group_382" data-name="Group 382" transform="translate(0 8.254)">
      <rect id="Rectangle_176" data-name="Rectangle 176" width="5.224" height="3.605" transform="translate(0 3.7) rotate(-45.086)" fill="#fff"/>
    </g>
    <g id="Group_385" data-name="Group 385" transform="translate(0.003 0)">
      <g id="Group_383" data-name="Group 383" transform="translate(0 0)">
        <rect id="Rectangle_177" data-name="Rectangle 177" width="3.6" height="5.219" transform="translate(0 2.546) rotate(-45.024)" fill="#fff"/>
      </g>
      <g id="Group_384" data-name="Group 384" transform="translate(8.255 8.254)">
        <rect id="Rectangle_178" data-name="Rectangle 178" width="3.605" height="5.224" transform="translate(0 2.548) rotate(-44.973)" fill="#fff"/>
      </g>
    </g>
  </g>
  <g id="Group_405" data-name="Group 405" transform="translate(118.093 63.712)">
    <g id="Group_400" data-name="Group 400" transform="translate(11.678 6.644)">
      <rect id="Rectangle_186" data-name="Rectangle 186" width="5.227" height="3.609" fill="#f6dde2"/>
    </g>
    <g id="Group_401" data-name="Group 401" transform="translate(0 6.644)">
      <rect id="Rectangle_187" data-name="Rectangle 187" width="5.221" height="3.609" fill="#f6dde2"/>
    </g>
    <g id="Group_404" data-name="Group 404" transform="translate(6.645)">
      <g id="Group_402" data-name="Group 402">
        <rect id="Rectangle_188" data-name="Rectangle 188" width="3.609" height="5.22" fill="#f6dde2"/>
      </g>
      <g id="Group_403" data-name="Group 403" transform="translate(0 11.677)">
        <rect id="Rectangle_189" data-name="Rectangle 189" width="3.609" height="5.221" fill="#f6dde2"/>
      </g>
    </g>
  </g>
  <g id="Group_411" data-name="Group 411" transform="translate(470.023 119.879)">
    <g id="Group_406" data-name="Group 406" transform="translate(11.678 6.644)">
      <rect id="Rectangle_190" data-name="Rectangle 190" width="5.228" height="3.61" fill="#f6dde2"/>
    </g>
    <g id="Group_407" data-name="Group 407" transform="translate(0 6.644)">
      <rect id="Rectangle_191" data-name="Rectangle 191" width="5.221" height="3.61" fill="#f6dde2"/>
    </g>
    <g id="Group_410" data-name="Group 410" transform="translate(6.644)">
      <g id="Group_408" data-name="Group 408">
        <rect id="Rectangle_192" data-name="Rectangle 192" width="3.61" height="5.22" fill="#f6dde2"/>
      </g>
      <g id="Group_409" data-name="Group 409" transform="translate(0 11.678)">
        <rect id="Rectangle_193" data-name="Rectangle 193" width="3.61" height="5.22" fill="#f6dde2"/>
      </g>
    </g>
  </g>
  <g id="Group_417" data-name="Group 417" transform="translate(61.029 264.121)">
    <g id="Group_412" data-name="Group 412" transform="translate(11.677 6.644)">
      <rect id="Rectangle_194" data-name="Rectangle 194" width="5.228" height="3.61" fill="#fff"/>
    </g>
    <g id="Group_413" data-name="Group 413" transform="translate(0 6.644)">
      <rect id="Rectangle_195" data-name="Rectangle 195" width="5.22" height="3.61" fill="#fff"/>
    </g>
    <g id="Group_416" data-name="Group 416" transform="translate(6.644)">
      <g id="Group_414" data-name="Group 414">
        <rect id="Rectangle_196" data-name="Rectangle 196" width="3.61" height="5.22" fill="#fff"/>
      </g>
      <g id="Group_415" data-name="Group 415" transform="translate(0 11.678)">
        <rect id="Rectangle_197" data-name="Rectangle 197" width="3.61" height="5.22" fill="#fff"/>
      </g>
    </g>
  </g>
  <path id="Path_11192" data-name="Path 11192" d="M13.216,1.083c-2.344-2.344-5.381-.33-6.039.875C6.517.753,3.48-1.261,1.136,1.083a3.9,3.9,0,0,0-.077,5.383l6.118,6.176,6.115-6.176A3.9,3.9,0,0,0,13.216,1.083Z" transform="translate(315.048 32.585)" fill="#fcd901"/>
  <path id="Path_11193" data-name="Path 11193" d="M13.216,1.083c-2.344-2.344-5.381-.33-6.039.875C6.517.753,3.48-1.261,1.136,1.083a3.9,3.9,0,0,0-.079,5.383l6.121,6.176,6.115-6.176A3.9,3.9,0,0,0,13.216,1.083Z" transform="translate(0 110.996)" fill="#f6dde2"/>
  <path id="Path_11194" data-name="Path 11194" d="M13.215,1.083c-2.344-2.344-5.378-.33-6.039.875C6.518.753,3.481-1.261,1.137,1.083a3.9,3.9,0,0,0-.079,5.383l6.118,6.176,6.118-6.176A3.9,3.9,0,0,0,13.215,1.083Z" transform="translate(600.961 52.953)" fill="none" stroke="#f6dde2" stroke-miterlimit="10" stroke-width="0.8"/>
  <path id="Path_11195" data-name="Path 11195" d="M13.215,1.083c-2.344-2.344-5.378-.33-6.039.875C6.518.753,3.481-1.261,1.137,1.083a3.9,3.9,0,0,0-.079,5.383l6.118,6.176,6.118-6.176A3.9,3.9,0,0,0,13.215,1.083Z" transform="translate(192.04 0)" fill="#ee77ad"/>
</svg>
