<svg xmlns="http://www.w3.org/2000/svg" width="87" height="41" viewBox="0 0 87 41">
  <g id="Group_804" data-name="Group 804" transform="translate(-876 -601)">
    <circle id="Ellipse_225" data-name="Ellipse 225" cx="20.5" cy="20.5" r="20.5" transform="translate(876 601)" fill="#fff"/>
    <circle id="Ellipse_226" data-name="Ellipse 226" cx="20.5" cy="20.5" r="20.5" transform="translate(922 601)" fill="#fff"/>
    <g id="Group_651" data-name="Group 651" transform="translate(12380 18642.234)">
      <g id="Group_649" data-name="Group 649" transform="translate(-11495.505 -18023.354)">
        <path id="Path_11873" data-name="Path 11873" d="M175.483,184.371l1.524-9h2.467l-1.524,9Z" transform="translate(-167.353 -175.228)" fill="#293688"/>
        <path id="Path_11874" data-name="Path 11874" d="M228.645,174.025a6.408,6.408,0,0,0-2.211-.378c-2.438,0-4.156,1.221-4.17,2.97-.014,1.293,1.226,2.014,2.162,2.444.96.44,1.283.723,1.279,1.116-.006.6-.767.879-1.477.879a5.206,5.206,0,0,1-2.322-.472l-.318-.143-.346,2.014a7.847,7.847,0,0,0,2.749.48c2.593,0,4.277-1.206,4.3-3.074.009-1.023-.648-1.8-2.072-2.445-.863-.416-1.391-.693-1.385-1.115,0-.374.447-.774,1.413-.774a4.575,4.575,0,0,1,1.847.345l.221.1.335-1.95Z" transform="translate(-209.266 -173.647)" fill="#293688"/>
        <path id="Path_11875" data-name="Path 11875" d="M305.623,175.373a1.226,1.226,0,0,0-1.278.766l-3.656,8.232H303.3l.508-1.379h3.121l.29,1.379h2.322l-2.032-9h-1.887Zm-1.121,5.819c.2-.518.983-2.515.983-2.515-.014.024.2-.521.327-.858l.167.775.571,2.6H304.5Z" transform="translate(-282.037 -175.228)" fill="#293688"/>
        <path id="Path_11876" data-name="Path 11876" d="M82.37,181.541l-.217-1.234a7.029,7.029,0,0,0-3.414-3.773l2.18,7.837h2.613l3.918-9H84.837Z" transform="translate(-78.739 -175.228)" fill="#293688"/>
      </g>
      <g id="Group_650" data-name="Group 650" transform="translate(-11498.187 -18023.209)">
        <path id="Path_11877" data-name="Path 11877" d="M46.823,175.373v.145a8.423,8.423,0,0,1,6.1,4.789l-.895-4.167a1.061,1.061,0,0,0-1.137-.768Z" transform="translate(-46.823 -175.373)" fill="#f7981d"/>
      </g>
    </g>
    <g id="mastercard" transform="translate(878 492.031)">
      <path id="Path_11880" data-name="Path 11880" d="M58.934,121.955a7.711,7.711,0,1,0,5.227,13.414h0a7.743,7.743,0,0,0,.782-.826H63.367a7.465,7.465,0,0,1-.574-.795h2.719a7.709,7.709,0,0,0,.449-.825H62.344a7.508,7.508,0,0,1-.322-.81h4.259a7.7,7.7,0,0,0,.4-2.446,7.78,7.78,0,0,0-.177-1.652H61.8a7.854,7.854,0,0,1,.219-.81h4.261a7.73,7.73,0,0,0-.332-.826h-3.6a7.442,7.442,0,0,1,.441-.81H65.5a7.662,7.662,0,0,0-.6-.825H63.39a7.048,7.048,0,0,1,.771-.779,7.653,7.653,0,0,0-5.178-2.01Z" transform="translate(0 0)" fill="#931b1d"/>
      <path id="Path_11881" data-name="Path 11881" d="M212.768,129.669a7.695,7.695,0,1,1-15.39,0v0a7.695,7.695,0,1,1,15.39,0A.042.042,0,0,0,212.768,129.669Z" transform="translate(-135.768 0)" fill="#f16622"/>
      <path id="Path_11882" data-name="Path 11882" d="M212.768,130.881a7.695,7.695,0,1,1-15.39,0v0a7.695,7.695,0,1,1,15.39,0S212.768,130.879,212.768,130.881Z" transform="translate(-135.768 -1.126)" fill="#f7981d"/>
      <path id="Path_11883" data-name="Path 11883" d="M58.934,123.193a7.712,7.712,0,1,0,5.227,13.414h0a7.623,7.623,0,0,0,.782-.826H63.367a7.4,7.4,0,0,1-.574-.794h2.719a7.774,7.774,0,0,0,.449-.826H62.344a7.569,7.569,0,0,1-.322-.81h4.259a7.7,7.7,0,0,0,.4-2.446,7.777,7.777,0,0,0-.177-1.652H61.8a7.853,7.853,0,0,1,.219-.81h4.261a7.739,7.739,0,0,0-.332-.826h-3.6a7.511,7.511,0,0,1,.441-.81H65.5a7.8,7.8,0,0,0-.6-.826H63.39a7.144,7.144,0,0,1,.771-.779,7.654,7.654,0,0,0-5.178-2.01Z" transform="translate(0 -1.151)" fill="#cb2026"/>
      <g id="Group_652" data-name="Group 652" transform="translate(52.018 127.763)">
        <path id="Path_11884" data-name="Path 11884" d="M182.695,212.586l.1-.7c-.056,0-.139.024-.211.024-.285,0-.317-.152-.3-.264l.23-1.424h.433l.1-.772h-.408l.083-.48h-.82c-.018.018-.484,2.7-.484,3.026a.609.609,0,0,0,.653.7A2.153,2.153,0,0,0,182.695,212.586Z" transform="translate(-172.963 -208.631)" fill="#fff"/>
        <path id="Path_11885" data-name="Path 11885" d="M203.035,216.37a1.287,1.287,0,0,0,1.415,1.436,2.073,2.073,0,0,0,.865-.135l.145-.792a2.534,2.534,0,0,1-.87.2c-.88,0-.725-.658-.725-.658h1.665a5.952,5.952,0,0,0,.107-.749,1.1,1.1,0,0,0-1.168-1.2C203.644,214.475,203.035,215.364,203.035,216.37Zm1.437-1.16c.462,0,.377.521.377.563h-.91C203.939,215.719,204.025,215.21,204.472,215.21Z" transform="translate(-193.043 -213.745)" fill="#fff"/>
        <path id="Path_11886" data-name="Path 11886" d="M267.973,208.1l.147-.9a1.961,1.961,0,0,1-.678.2.813.813,0,0,1-.814-.923c0-.97.5-1.5,1.057-1.5a1.456,1.456,0,0,1,.752.235l.134-.869a2.93,2.93,0,0,0-.922-.2c-.946,0-1.867.821-1.867,2.367,0,1.023.5,1.7,1.475,1.7A3.765,3.765,0,0,0,267.973,208.1Z" transform="translate(-251.357 -204.149)" fill="#fff"/>
        <path id="Path_11887" data-name="Path 11887" d="M115.56,214.654a2.83,2.83,0,0,0-.993.181l-.119.707a2.59,2.59,0,0,1,.893-.144c.305,0,.528.034.528.283a.528.528,0,0,1-.027.206s-.24-.02-.352-.02c-.708,0-1.453.3-1.453,1.217a.778.778,0,0,0,.791.885,1.064,1.064,0,0,0,.84-.377l-.027.314h.721l.322-2.262A.969.969,0,0,0,115.56,214.654Zm.176,1.841c.016.138-.087.786-.58.786a.3.3,0,0,1-.321-.31c0-.224.122-.494.723-.494A.534.534,0,0,1,115.736,216.495Z" transform="translate(-110.334 -213.912)" fill="#fff"/>
        <path id="Path_11888" data-name="Path 11888" d="M150.271,218.021c.184,0,1.239.047,1.239-1.044,0-1.02-.976-.819-.976-1.229,0-.2.159-.268.45-.268.116,0,.56.037.56.037l.1-.725a3.831,3.831,0,0,0-.756-.064c-.607,0-1.221.242-1.221,1.072,0,.941,1.026.846,1.026,1.242,0,.264-.287.286-.508.286a2.663,2.663,0,0,1-.727-.125l-.109.717A2.56,2.56,0,0,0,150.271,218.021Z" transform="translate(-143.153 -213.981)" fill="#fff"/>
        <path id="Path_11889" data-name="Path 11889" d="M362.01,205.422l-.176,1.1a1.083,1.083,0,0,0-.791-.426c-.751,0-1.377.907-1.377,1.949,0,.673.333,1.331,1.016,1.331a1.022,1.022,0,0,0,.762-.343l-.036.293h.8l.626-3.9Zm-.38,2.143c0,.433-.215,1.012-.659,1.012-.3,0-.433-.248-.433-.637,0-.636.285-1.057.645-1.057C361.478,206.883,361.63,207.087,361.63,207.565Z" transform="translate(-338.607 -205.33)" fill="#fff"/>
        <path id="Path_11890" data-name="Path 11890" d="M62.408,209.317l.5-2.948.073,2.948h.565l1.053-2.948-.467,2.948h.839l.646-3.909h-1.3l-.808,2.4-.042-2.4h-1.2l-.655,3.909Z" transform="translate(-61.619 -205.319)" fill="#fff"/>
        <path id="Path_11891" data-name="Path 11891" d="M240.388,218.406c.238-1.359.283-2.462.852-2.261a3.182,3.182,0,0,1,.3-.952.85.85,0,0,0-.158-.011c-.366,0-.638.5-.638.5l.072-.461h-.763l-.51,3.183Z" transform="translate(-226.975 -214.402)" fill="#fff"/>
        <path id="Path_11892" data-name="Path 11892" d="M303.523,214.654a2.828,2.828,0,0,0-.992.181l-.118.707a2.584,2.584,0,0,1,.893-.144c.3,0,.528.034.528.283a.523.523,0,0,1-.027.206s-.24-.02-.353-.02c-.709,0-1.452.3-1.452,1.217a.779.779,0,0,0,.791.885,1.062,1.062,0,0,0,.84-.377l-.027.314h.722l.322-2.262A.969.969,0,0,0,303.523,214.654Zm.176,1.841c.016.138-.086.786-.58.786a.3.3,0,0,1-.32-.31c0-.224.122-.494.721-.494A.536.536,0,0,1,303.7,216.495Z" transform="translate(-285.016 -213.912)" fill="#fff"/>
        <path id="Path_11893" data-name="Path 11893" d="M337.735,218.406c.239-1.359.283-2.462.852-2.261a3.161,3.161,0,0,1,.3-.952.862.862,0,0,0-.158-.011c-.367,0-.638.5-.638.5l.073-.461H337.4l-.511,3.182h.841Z" transform="translate(-317.444 -214.402)" fill="#fff"/>
      </g>
    </g>
  </g>
</svg>
