<svg xmlns="http://www.w3.org/2000/svg" width="25.734" height="24.274" viewBox="0 0 25.734 24.274">
  <g id="Group_600" data-name="Group 600" transform="translate(-658.149 -360.696)">
    <path id="Path_11489" data-name="Path 11489" d="M671.813,395.306a3.242,3.242,0,1,0,3.242,3.242A3.246,3.246,0,0,0,671.813,395.306Zm1.632,3.242a1.632,1.632,0,1,1-1.632-1.632A1.634,1.634,0,0,1,673.445,398.548Z" transform="translate(-5.058 -16.87)" fill="#90599f" stroke="#90599f" stroke-width="0.1"/>
    <path id="Path_11490" data-name="Path 11490" d="M683.673,366.225a.807.807,0,0,0-.642-.32H663.862l-.357-2a3.568,3.568,0,0,0-2.881-2.873l-1.417-.247a.8.8,0,1,0-.375,1.565.716.716,0,0,0,.079.015l1.437.251a1.946,1.946,0,0,1,1.571,1.573l1.944,10.96a2.989,2.989,0,0,0,2.95,2.479h11.538a3.011,3.011,0,0,0,2.866-2.13l2.581-8.556A.829.829,0,0,0,683.673,366.225Zm-1.722,1.284-2.273,7.514h0a1.39,1.39,0,0,1-1.326.986H666.82a1.365,1.365,0,0,1-1.367-1.15l-1.3-7.351Z" fill="#90599f" stroke="#90599f" stroke-width="0.1"/>
    <path id="Path_11491" data-name="Path 11491" d="M694.342,395.306a3.242,3.242,0,1,0,3.241,3.242A3.245,3.245,0,0,0,694.342,395.306Zm1.632,3.242a1.632,1.632,0,1,1-1.632-1.632A1.634,1.634,0,0,1,695.974,398.548Z" transform="translate(-16.06 -16.87)" fill="#90599f" stroke="#90599f" stroke-width="0.1"/>
  </g>
</svg>
