<svg id="Group_802" data-name="Group 802" xmlns="http://www.w3.org/2000/svg" width="540.134" height="1074.383" viewBox="0 0 540.134 1074.383">
  <g id="woman" transform="translate(245.465 62.84)">
    <path id="Path_10795" data-name="Path 10795" d="M564.033,1066.572a277.9,277.9,0,0,1-51.353,4.891c-1.223,0-1.223,1.223-3.668-6.114s64.8-25.676,64.8-25.676L605.6,1025v41.572l-11-1.223-4.891-25.676-15.9,4.891S573.815,1059.235,564.033,1066.572Z" transform="translate(-370.847 -68.243)" fill="#bea69a"/>
    <path id="Path_10797" data-name="Path 10797" d="M510.933,385s-21.128,23.28-28.9,37.317S454.689,465.7,454.689,465.7s-5.38,5.233-.245,11.787,25.774,29.54,25.236,36.387-1.614,14.966-3.521,17.02l-1.907,2.054s0,8.559,3.668,14.672-2.445,11,1.223,14.672l3.668,3.668s0,4.891,1.223,6.114-9.782,28.122-9.782,28.122S416.786,795.825,411.9,844.733c0,0-17.118,90.479-14.672,125.937s15.895,123.492,14.672,150.391S407,1161.41,407,1161.41s.811,7.05,2.445,8.559c15.9,14.672-13.45,22.009-13.45,22.009s26.806,19.991,97.815,19.563c31.834-.192,48.312-1.1,77.03-11,35.458-12.227,106.374-39.126,119.824-31.79,0,0-9.782-199.3-31.79-265.324L618.53,732.245l13.45-9.782-7.336-179.736s-15.9-45.24-15.9-66.025-4.891-67.248-12.227-74.584S539.055,396,539.055,396Z" transform="translate(-396 -210.766)" fill="#f7f4eb"/>
    <path id="Path_10798" data-name="Path 10798" d="M465.013,263.007S443,265.452,432,293.574a33.174,33.174,0,0,0,3.668,13.45l9.782,19.563s-7.336,31.79-4.891,41.572,6.113,17.118,9.781,19.563c0,0,0,6.113,3.668,9.782s26.9,30.567,30.567,39.126l20.786-25.677s2.348-28.66-9.782-31.79C495.58,379.163,473.572,260.561,465.013,263.007Z" transform="translate(-387.983 -237.942)" fill="#7e302e"/>
    <path id="Path_10799" data-name="Path 10799" d="M463.45,273.789s9.019-4.94,9.019-3.717,6.252,9.553,11.143,14.444,22.633,17.4,26.3,17.4,2.445,24.454-1.223,34.235c0,0-13.45,26.9-9.782,40.349s12.227,24.454,25.676,30.567a18.709,18.709,0,0,1,4.891,12.227v7.336l-42.794,48.908s-3.668-34.235,15.9-63.58c0,0-1.223-17.118-2.445-20.786s0-8.559-8.559-14.672c0,0-14.672,3.668-28.122,2.445,0,0-8.559-30.567-8.559-33.013v-8.559S450,335.121,450,331.255c0-1.223,1.223-2.445,6.113-7.336s-3.668-18.34-2.445-25.677S463.45,273.789,463.45,273.789Z" transform="translate(-383.975 -235.274)" fill="#efae90"/>
    <path id="Path_10800" data-name="Path 10800" d="M474.491,301.1s-3.668,3.668-2.445,8.559,3.668,6.113,3.668,6.113,13.45-1.223,13.45-6.113S476.936,298.656,474.491,301.1Z" transform="translate(-379.121 -229.574)" fill="#f3f0e7"/>
    <path id="Path_10801" data-name="Path 10801" d="M458.773,313s-6.113-1.223-3.668-11c0,0,7.059,3.743,7.336,6.113C462.619,309.632,458.773,313,458.773,313Z" transform="translate(-382.966 -229.25)" fill="#f8f1e9"/>
    <path id="Path_10802" data-name="Path 10802" d="M459.337,340.032s-3.156-1.735-1.223-3.668c1.223-1.223,2.286-1.9,6.113-2.445,8.559-1.223,11-3.668,13.45-4.891,3.458-1.729-3.773,11.931-11,14.672C459.786,346.311,458.114,344.922,459.337,340.032Z" transform="translate(-382.307 -223.264)" fill="#f7f3e8"/>
    <path id="Path_10803" data-name="Path 10803" d="M465.749,304s1.223,6.113-13.841,18.634c-.377.313-3.559,6.077,1.981,7.7,5.08,1.492,5,1.361,7.581-.049" transform="translate(-383.828 -228.804)" fill="none" stroke="#dc866d" stroke-miterlimit="10" stroke-width="1"/>
    <path id="Path_10804" data-name="Path 10804" d="M461.572,325.995s-1.459-1.909,1.223-2.445c3.057-.611,2.445,0,2.445,0A3.053,3.053,0,0,1,461.572,325.995Z" transform="translate(-381.486 -224.511)" fill="#cf6859"/>
    <rect id="Rectangle_155" data-name="Rectangle 155" width="4" height="4" transform="translate(79.754 124.66)" fill="#dc9174"/>
    <path id="Path_10805" data-name="Path 10805" d="M477.253,322.266c-1.932,1.1-2.445,6.113,2.445,8.559,5.89,2.944,10.707,1.186,11,0C491.925,325.934,485.812,317.375,477.253,322.266Z" transform="translate(-378.215 -225.062)" fill="#e39277"/>
    <path id="Path_10806" data-name="Path 10806" d="M476,322.891S479.668,318,484.559,318s9.781,4.891,8.559,9.782c0,0-3.668-7.336-8.559-7.336S479.668,321.668,476,322.891Z" transform="translate(-378.185 -225.687)" fill="#e39277"/>
    <path id="Path_10807" data-name="Path 10807" d="M467,288.166c0,1.223,2.445,7.336,4.891,7.336s7.336-1.223,11,1.223l7.336,4.891s5.757.577-2.445-4.891c-7.336-4.891-6.113-3.668-7.336-3.668h-8.559c-1.223-1.223-1.766-4.1-2.445-4.891C467.91,286.378,467,287.692,467,288.166Z" transform="translate(-380.189 -232.533)" fill="#c17c5b"/>
    <path id="Path_10808" data-name="Path 10808" d="M460.336,290.056s-4.891-1.223-6.113,1.223L453,293.724s1.223-2.445,7.336-1.223Z" transform="translate(-383.306 -231.978)" fill="#c17c5b"/>
    <path id="Path_10809" data-name="Path 10809" d="M443.517,320.009c-.24-1.2-2.445,19.563-2.445,24.454s-2.445,14.672,4.891,23.231C445.962,367.694,444.739,326.123,443.517,320.009Z" transform="translate(-386.05 -225.25)" fill="#602223"/>
    <path id="Path_10810" data-name="Path 10810" d="M484.891,358a12.135,12.135,0,0,1,7.361,9.61c1.2,7.507,6.089,20.957,3.644,25.848,0,0-14.281,29.834-15.088,43.039S480,457.038,480,457.038l42.794-48.908s3.668-14.085-6.114-20.492c0,0-19.563-10.075-24.454-29.638Z" transform="translate(-377.294 -216.779)" fill="#ecab8b"/>
    <path id="Path_10811" data-name="Path 10811" d="M484.8,357.94s7.581,4.964,8.8,18.414,1.223,28.122,1.223,28.122" transform="translate(-376.225 -216.792)" fill="none" stroke="#cf6859" stroke-miterlimit="10" stroke-width="1" opacity="0.29"/>
    <path id="Path_10812" data-name="Path 10812" d="M454,293.9s14.061-16.506,16.506-17.729l2.445-1.223-2.445-2.446s-5.38,1.712-6.358,1.467a10.752,10.752,0,0,0-2.2-.245S455.223,286.561,454,293.9Z" transform="translate(-383.084 -235.819)" fill="#e3987b"/>
    <path id="Path_10813" data-name="Path 10813" d="M459.645,281.626s-2.445-19.563,1.223-25.677,13.45-13.45,20.786-13.45,16.472,1.8,22.008,7.336c1.223,1.223,26.9-1.223,35.458,1.223s12.227,2.445,11,11-2.445,15.9-1.223,17.118,29.345,29.345,30.567,33.013,2.445,15.895-1.223,30.567-4.891,26.9-2.445,31.79,8.559,11,18.34,14.672,26.9,17.118,31.79,24.454,6.113,25.677,6.113,25.677l-28.122,8.559s-9.278-15.824-8.559-12.227c.611,3.057-1.834,15.284-1.834,15.284s-60.9,6.349-64.191,3.057c-5.5-5.5,6.725-34.847-10.393-40.96,0,0-27.575-21.851-20.786-46.462,9.781-35.458,14.972-46.849,2.445-56.244-19.563-14.672-27.364-23.4-29.345-29.345S459.645,281.626,459.645,281.626Z" transform="translate(-382.004 -242.5)" fill="#7e302e"/>
    <path id="Path_10814" data-name="Path 10814" d="M467.16,360.46s6.529,3.717,7.752,8.608,1.223,19.563,6.114,24.454,5.5,7.947,5.5,7.947" transform="translate(-380.153 -216.231)" fill="none" stroke="#b96f3e" stroke-miterlimit="10" stroke-width="2"/>
    <path id="Path_10815" data-name="Path 10815" d="M481.74,358.48a25.84,25.84,0,0,1,5.82,12.251c1.223,7.336,3.423,22.962,3.423,22.962" transform="translate(-376.906 -216.672)" fill="none" stroke="#b96f3e" stroke-miterlimit="10" stroke-width="2"/>
    <path id="Path_10816" data-name="Path 10816" d="M462.663,271.5s-15.9,6.113-17.118,15.9,2.445,17.118,2.445,40.349" transform="translate(-385.022 -236.042)" fill="none" stroke="#b96f3e" stroke-miterlimit="10" stroke-width="2"/>
    <path id="Path_10817" data-name="Path 10817" d="M493.822,402.74c4.16-28.122-8.322-45.24-8.322-45.24" transform="translate(-376.069 -216.89)" fill="none" stroke="#cf6859" stroke-miterlimit="10" stroke-width="2" opacity="0.21"/>
    <path id="Path_10818" data-name="Path 10818" d="M493.488,389.538a27.684,27.684,0,0,0-4.6,10.466c-1.223,6.113-4.891,15.9-4.891,24.454,0,0,.863,1.462,1.223,1.223,11-7.336,29.345-25.677,36.143-35.849.438-.655-.685-.831-.685-.831s-31.79,34.235-34.235,33.013c-1.547-.773,6.113-26.9,6.113-26.9Z" transform="translate(-376.403 -209.876)" fill="#f7e5d9"/>
    <path id="Path_10819" data-name="Path 10819" d="M447.462,456.017c6.139-8.54,37.9-44.017,37.9-44.017s-28.122,44.017-29.345,46.462-1.223,11,2.445,15.895,19.563,20.786,20.786,25.677,6.113,19.563-4.891,25.676l-2.445-20.786s-24.454,24.454-30.567,28.122-28.122,14.672-28.122,14.672-11-29.344-11-35.458S401,495.143,401,495.143,419.34,495.143,447.462,456.017Z" transform="translate(-394.887 -204.754)" fill="#e1d8d1"/>
    <path id="Path_10820" data-name="Path 10820" d="M405.6,479.32s.294,14.281,3.961,19.172,4.891,9.781,9.782,12.227,22.008,4.891,22.008,4.891-1.614,2.69-8.754,6.847S412,532.727,412,532.727a41.832,41.832,0,0,0-2.445-13.45c-2.445-6.113-6.26-13.521-7.336-18.34-1.135-5.08-1.223-20.786-1.223-20.786Z" transform="translate(-394.887 -189.762)" fill="#d0c7c2"/>
    <path id="Path_10821" data-name="Path 10821" d="M411,531.794s22.2-12.129,27-15.846S468.467,493.891,469.689,489" transform="translate(-392.66 -187.606)" fill="none" stroke="#cab7a8" stroke-miterlimit="10" stroke-width="1"/>
    <path id="Path_10822" data-name="Path 10822" d="M425.11,466.36s13.792,10.564,12.569,11.787-20.2-4.157-20.2-4.157S424.767,468.023,425.11,466.36Z" transform="translate(-391.217 -192.648)" fill="#d1c6c2"/>
    <path id="Path_10823" data-name="Path 10823" d="M518,417.766V425.1s11,4.891,14.672,6.113,29.345,4.891,34.235,6.113,13.45,3.668,13.45,8.559-.938-32.445-1.565-32.328C549.79,418.989,525.336,417.766,518,417.766Z" transform="translate(-368.831 -204.406)" fill="#e2dbd5"/>
    <path id="Path_10824" data-name="Path 10824" d="M557.393,430.5s6.725,43.406-10.393,60.523" transform="translate(-362.373 -200.634)" fill="none" stroke="#f4ede5" stroke-miterlimit="10" stroke-width="1"/>
    <path id="Path_10825" data-name="Path 10825" d="M564.638,451.5s-7.336,22.008-6.113,30.567,3.668,19.563,3.668,19.563" transform="translate(-359.837 -195.957)" fill="none" stroke="#f4ede5" stroke-miterlimit="10" stroke-width="1"/>
    <path id="Path_10826" data-name="Path 10826" d="M524.706,399l-44.628,53.187s-9.782,11-8.559,15.895,9.992,21.205,13.45,28.122c6.113,12.227,1.834,45.851.611,49.519" transform="translate(-379.206 -207.649)" fill="none" stroke="#dfd6cf" stroke-miterlimit="10" stroke-width="2"/>
    <path id="Path_10827" data-name="Path 10827" d="M494.87,389s-18.952,23.843-15.284,64.191" transform="translate(-377.491 -209.876)" fill="none" stroke="#dfd6cf" stroke-miterlimit="10" stroke-width="2"/>
    <path id="Path_10828" data-name="Path 10828" d="M467.5,536.87l3.668,4.891,91.7,4.891S539.639,450.059,533.526,441.5c0,0-5.5,55.632-17.729,72.75C498.593,538.335,467.5,536.87,467.5,536.87Z" transform="translate(-380.077 -198.184)" fill="#e4dbd4"/>
    <path id="Path_10829" data-name="Path 10829" d="M514,496s3.668,4.891,4.891,14.672a103.408,103.408,0,0,1,0,20.786" transform="translate(-369.722 -186.047)" fill="none" stroke="#d7cec9" stroke-miterlimit="10" stroke-width="1"/>
    <path id="Path_10830" data-name="Path 10830" d="M510.059,515.513s1.4-11.88-1.223-11c-3.668,1.223-7.336,24.454-7.336,24.454" transform="translate(-372.506 -184.163)" fill="none" stroke="#d7cec9" stroke-miterlimit="10" stroke-width="1"/>
    <path id="Path_10831" data-name="Path 10831" d="M478.5,531.723s14.672,7.336,25.677,6.114,57.467-7.336,57.467-7.336" transform="translate(-377.628 -178.364)" fill="none" stroke="#e0d7d0" stroke-miterlimit="10" stroke-width="1"/>
    <path id="Path_10832" data-name="Path 10832" d="M470.168,536.5,466.5,548.727s19.563,17.118,30.567,18.34,33.624,15.284,37.9,19.563c9.857,9.858,19.563,31.79,19.563,31.79l8.559-78.252s-34.236,3.668-45.24,3.668S482.395,541.391,470.168,536.5Z" transform="translate(-380.3 -177.028)" fill="#e4dbd4"/>
    <path id="Path_10833" data-name="Path 10833" d="M564.118,517S556.782,531.672,547,534.118" transform="translate(-362.373 -181.371)" fill="none" stroke="#f4ede5" stroke-miterlimit="10" stroke-width="1"/>
    <path id="Path_10834" data-name="Path 10834" d="M530.24,606.235s-13.4-26.753-12.227-34.235" transform="translate(-368.845 -169.123)" fill="none" stroke="#e4dbd4" stroke-miterlimit="10" stroke-width="2"/>
    <path id="Path_10835" data-name="Path 10835" d="M502.5,621.276c0-1.223.489-45,6.969-53.676" transform="translate(-372.283 -170.102)" fill="none" stroke="#e4dbd4" stroke-miterlimit="10" stroke-width="2"/>
    <path id="Path_10836" data-name="Path 10836" d="M482.9,557.8s-2.763,14.306,2.128,14.306,7.336-11,7.336-11" transform="translate(-376.821 -172.285)" fill="none" stroke="#e4dbd4" stroke-miterlimit="10" stroke-width="2"/>
    <path id="Path_10837" data-name="Path 10837" d="M600.135,639c-1.223,3.668-12.227,8.559-24.454,14.672s-36.681-11-36.681-11" transform="translate(-364.155 -154.202)" fill="none" stroke="#e4dbd4" stroke-miterlimit="10" stroke-width="2"/>
    <path id="Path_10838" data-name="Path 10838" d="M581.232,530.5s-7.336,55.021-7.336,67.248-4.891,59.912,0,74.584" transform="translate(-356.868 -178.364)" fill="none" stroke="#f4ede5" stroke-miterlimit="10" stroke-width="1"/>
    <path id="Path_10839" data-name="Path 10839" d="M558.6,675.439s3.546-65.023,5.991-84.586,7.336-51.353,7.336-51.353" transform="translate(-359.79 -176.36)" fill="none" stroke="#f4ede5" stroke-miterlimit="10" stroke-width="1"/>
    <path id="Path_10840" data-name="Path 10840" d="M543.556,664.765s-1.223-28.122,1.223-36.681,14.672-59.912,11-74.584" transform="translate(-363.208 -173.242)" fill="none" stroke="#f4ede5" stroke-miterlimit="10" stroke-width="1"/>
    <path id="Path_10841" data-name="Path 10841" d="M585.138,589s-7.336,18.34-6.113,28.122,6.113,31.79,7.336,36.681" transform="translate(-355.272 -165.337)" fill="none" stroke="#e4dbd4" stroke-miterlimit="10" stroke-width="2"/>
    <path id="Path_10842" data-name="Path 10842" d="M534.466,638s-1.223,17.118,2.445,20.786,13.939,11.542,21.03,14.33,26.655,11.346,32.768.342c.84-1.511,23.231,108.82,23.231,108.82s-52.625-13.694-67.884-48.419S529.576,651.45,534.466,638Z" transform="translate(-365.735 -154.425)" fill="#e3dad3"/>
    <path id="Path_10843" data-name="Path 10843" d="M482.359,552.52s-26.476,139.726-34.676,172.987C382.881,988.386,680,1073.974,680,1073.974" transform="translate(-386.549 -173.461)" fill="none" stroke="#e4dbd4" stroke-miterlimit="10" stroke-width="2"/>
    <path id="Path_10844" data-name="Path 10844" d="M591.659,750.52s-6.113,40.936-2.445,62.944,25.677,90.479,30.567,106.374,12.227,33.013,7.336,47.685" transform="translate(-353.234 -129.367)" fill="none" stroke="#e4dbd4" stroke-miterlimit="10" stroke-width="2"/>
    <path id="Path_10845" data-name="Path 10845" d="M452.216,620.92S423.678,747.567,424.9,805.033s9.781,162.618,7.336,183.4c0,0-1.907,50.522-20.517,87.618" transform="translate(-392.499 -158.228)" fill="none" stroke="#e4dbd4" stroke-miterlimit="10" stroke-width="2"/>
    <path id="Path_10846" data-name="Path 10846" d="M397.5,1060.082l10.344-7.458s48.345,11.127,66.686,11.127,29.345,1.223,50.13-13.45,63.58-40.349,92.925-46.462S687.987,991,687.987,991s1.785,38.955,1.761,41.18-50.155,8.339-62.382,14.452-50.228,16.922-65.463,20.076-56.38,14.967-97.718,9.488C425.622,1071.087,397.5,1060.082,397.5,1060.082Z" transform="translate(-395.666 -75.814)" fill="#f0e5df"/>
    <path id="Path_10847" data-name="Path 10847" d="M556.79,667s-4.891,8.559-4.891,13.45,0,4.891-2.445,9.782a77.98,77.98,0,0,1-7.336,11s-1.223,9.782,2.445,7.336,17.118-19.563,17.118-19.563l-3.668,14.672-9.782,9.782H531.114S525,714.685,525,720.8h23.231s-15.895,0-17.118,1.223l-4.891,4.891,26.9,1.223,2.446-2.445h13.45l14.672-15.9-1.223-37.9S559.235,668.223,556.79,667Z" transform="translate(-367.273 -147.967)" fill="#e1957b"/>
    <path id="Path_10848" data-name="Path 10848" d="M560.036,697s-1.223,2.445,2.445,2.445,6.114-2.445,7.336-1.223a3.787,3.787,0,0,1,1.223,2.445" transform="translate(-359.514 -141.286)" fill="none" stroke="#cf6859" stroke-miterlimit="10" stroke-width="1" opacity="0.22"/>
    <path id="Path_10849" data-name="Path 10849" d="M525,713h24.454l15.895-11" transform="translate(-367.273 -140.173)" fill="none" stroke="#cf6859" stroke-miterlimit="10" stroke-width="1" opacity="0.21"/>
    <path id="Path_10850" data-name="Path 10850" d="M552.655,697l-3.595,3.595,6.04,4.964,4.891-3.668Z" transform="translate(-361.915 -141.286)" fill="#c6c3ca"/>
    <path id="Path_10851" data-name="Path 10851" d="M552.294,697l-1.614,1.614,6.823,5.5.9-1Z" transform="translate(-361.554 -141.286)" fill="#f9f6ed"/>
    <path id="Path_10852" data-name="Path 10852" d="M557.2,682.5s-3.962,8.51-3.815,12.2.147,4.915.147,4.915" transform="translate(-360.953 -144.515)" fill="none" stroke="#cf6859" stroke-miterlimit="10" stroke-width="1" opacity="0.23"/>
    <path id="Path_10853" data-name="Path 10853" d="M577.309,671.891a14.285,14.285,0,0,1-11,0c-6.114-2.445-13.45-4.891-13.45-4.891a20.54,20.54,0,0,0-4.7,7.7" transform="translate(-362.115 -147.967)" fill="none" stroke="#cf6859" stroke-miterlimit="10" stroke-width="1" opacity="0.17"/>
    <ellipse id="Ellipse_133" data-name="Ellipse 133" cx="4" cy="3" rx="4" ry="3" transform="translate(109.754 578.66)" fill="#dbae1d"/>
    <ellipse id="Ellipse_134" data-name="Ellipse 134" cx="6.5" cy="7" rx="6.5" ry="7" transform="translate(120.754 578.66)" fill="#dbae1d"/>
    <path id="Path_10854" data-name="Path 10854" d="M556.916,704.1s-9.782-1.223-15.895,0-26.9,11-37.9,17.118S486,739.557,486,739.557c2.445,0,17.118-1.223,17.118-1.223,13.45-4.891,11-18.341,11-18.341" transform="translate(-375.958 -139.826)" fill="none" stroke="#4e8464" stroke-miterlimit="10" stroke-width="1"/>
    <path id="Path_10855" data-name="Path 10855" d="M492.761,729.225l7.628-4.42c3.815-2.211,6.255-2.057,7.628-4.42" transform="translate(-374.452 -136.078)" fill="none" stroke="#4e8464" stroke-miterlimit="10" stroke-width="1"/>
    <ellipse id="Ellipse_135" data-name="Ellipse 135" cx="5.502" cy="9.782" rx="5.502" ry="9.782" transform="translate(69.478 545.605) rotate(-62.091)" fill="#deb529"/>
    <ellipse id="Ellipse_136" data-name="Ellipse 136" cx="2.5" cy="2" rx="2.5" ry="2" transform="translate(70.754 552.66)" fill="#deb529"/>
    <path id="Path_10856" data-name="Path 10856" d="M463.978,683s0,6.113-2.445,7.336-3.668,2.445-2.445,4.891" transform="translate(-382.058 -144.404)" fill="none" stroke="#cf6859" stroke-miterlimit="10" stroke-width="1"/>
    <circle id="Ellipse_137" data-name="Ellipse 137" cx="3" cy="3" r="3" transform="translate(86.754 528.659)" fill="#f2c7a7"/>
    <path id="Path_10857" data-name="Path 10857" d="M472.223,725.547S501.567,713.32,508.9,712.1s23.419-7.274,26.9-6.113c7.336,2.445,12.227-1.223,13.45-1.223s8.608,1.2,8.608,1.2l3.008-3.032s-24.454-3.668-26.288-1.834S503.4,711.487,503.4,711.487s-21.3-8.04-29.345,0c-.611.611,4.279,4.279,11.616,5.5,1.706.284-14.672,7.336-14.672,7.336Z" transform="translate(-379.298 -140.489)" fill="#4e8464"/>
    <ellipse id="Ellipse_138" data-name="Ellipse 138" cx="14.5" cy="12" rx="14.5" ry="12" transform="translate(65.754 578.66)" fill="#c081b8"/>
    <path id="Path_10858" data-name="Path 10858" d="M455,718s2.445,4.891,4.891,4.891,6.113,1.223,11-2.446" transform="translate(-382.861 -136.61)" fill="none" stroke="#9b5299" stroke-miterlimit="10" stroke-width="1"/>
    <path id="Path_10859" data-name="Path 10859" d="M453,729.114s6.113,0,7.336-6.114" transform="translate(-383.306 -135.496)" fill="none" stroke="#cf6859" stroke-miterlimit="10" stroke-width="1" opacity="0.13"/>
    <path id="Path_10860" data-name="Path 10860" d="M459.082,716.109s-8.456,3.9-7.037,11.2,3.9,8.457,3.93,9.68,4.725-6.243,8.391-6.342,10.966-1.518,12.222-.329" transform="translate(-383.555 -137.031)" fill="none" stroke="#9b5299" stroke-miterlimit="10" stroke-width="1"/>
    <path id="Path_10861" data-name="Path 10861" d="M467,732.895a43.236,43.236,0,0,0,1.223,7.336s4.891,1.223,5.722-11.836C474.05,726.739,467,730.449,467,732.895Z" transform="translate(-380.189 -134.386)" fill="#c081b8"/>
    <path id="Path_10862" data-name="Path 10862" d="M469.991,740.281a57.583,57.583,0,0,0-2.445-6.113c-1.223-2.445,2.445-3.668,2.445-3.668" transform="translate(-380.123 -133.826)" fill="none" stroke="#9b5299" stroke-miterlimit="10" stroke-width="1"/>
    <path id="Path_10863" data-name="Path 10863" d="M493,695s6.113-11,15.9-11,17.118,9.782,17.118,9.782-6.113,11-17.118,11S493,695,493,695Z" transform="translate(-374.399 -144.181)" fill="#efb993"/>
    <path id="Path_10864" data-name="Path 10864" d="M481.9,697s-26.9,0-26.9,9.781,22.009,0,26.9-4.891c.683-.684,1.223,3.668,1.223,3.668s3.668-2.445,3.668-3.668S481.9,697,481.9,697Z" transform="translate(-382.861 -141.286)" fill="#f1bb95"/>
    <path id="Path_10865" data-name="Path 10865" d="M478.2,697s-2.445,0,0,2.445a7.574,7.574,0,0,0,4.891,2.446v-2.446s36.826.472,48.908,2.446c3.234.528,12.618,3.546,12.618,3.546l14.281.122s-23.231-6.113-39.126-7.336S478.2,697,478.2,697Z" transform="translate(-377.937 -141.286)" fill="#4e8464"/>
    <ellipse id="Ellipse_139" data-name="Ellipse 139" cx="7.484" cy="5.65" rx="7.484" ry="5.65" transform="translate(78.732 506.256) rotate(-38.14)" fill="#ba6eac"/>
    <path id="Path_10866" data-name="Path 10866" d="M505.578,637.561s-9.782-6.113-8.559-9.781,9.17-3.057,10.393.611,4.279-4.279,4.279-4.279,4.891-2.445,3.668,2.445a39.419,39.419,0,0,1-2.445,7.336" transform="translate(-373.527 -157.654)" fill="none" stroke="#f1b78f" stroke-miterlimit="10" stroke-width="1"/>
    <path id="Path_10867" data-name="Path 10867" d="M482.238,688.806a17.886,17.886,0,0,0-6.113,3.668c-2.445,2.445-4.891,3.668-4.891,6.114s9.782,3.668,13.45,1.223,9.782-6.114,9.782-6.114,0-9.781,1.223-11l2.445-2.445s-15.9-22.009-25.677-17.118,12.227,18.34,12.227,18.34-6.113-1.223-7.336,1.223C477.347,682.692,473.679,685.138,482.238,688.806Z" transform="translate(-379.532 -148.987)" fill="#f2c7a7"/>
    <path id="Path_10868" data-name="Path 10868" d="M472,690.559s8.559-7.336,17.118-8.559" transform="translate(-379.075 -144.626)" fill="none" stroke="#cf6859" stroke-miterlimit="10" stroke-width="1" opacity="0.11"/>
    <path id="Path_10869" data-name="Path 10869" d="M493.218,676.96s-4.4,3.717-3.179,13.5c0,0,4.891-3.668,6.113-4.891s61.135,24.454,61.135,24.454l1.223-2.445L498.6,683.122A7.907,7.907,0,0,1,493.218,676.96Z" transform="translate(-375.106 -145.749)" fill="#4e8464"/>
    <path id="Path_10870" data-name="Path 10870" d="M472.56,690.035s7.263-7.312,17.044-8.535" transform="translate(-378.951 -144.738)" fill="none" stroke="#e1a684" stroke-miterlimit="10" stroke-width="1"/>
    <ellipse id="Ellipse_140" data-name="Ellipse 140" cx="3" cy="2" rx="3" ry="2" transform="translate(152.754 492.66)" fill="#dbb025"/>
    <ellipse id="Ellipse_141" data-name="Ellipse 141" cx="1.5" cy="3.5" rx="1.5" ry="3.5" transform="translate(155.754 480.66)" fill="#dbb025"/>
    <ellipse id="Ellipse_142" data-name="Ellipse 142" cx="6" cy="5" rx="6" ry="5" transform="translate(143.754 478.66)" fill="#dcb029"/>
    <ellipse id="Ellipse_143" data-name="Ellipse 143" cx="2.5" cy="1.5" rx="2.5" ry="1.5" transform="translate(145.754 490.66)" fill="#dcb029"/>
    <path id="Path_10871" data-name="Path 10871" d="M529.009,664.122s-1.223-18.34,2.445-23.231L535.123,636a36.244,36.244,0,0,1-4.891,31.79s11,23.231,14.672,28.122,13.45,15.9,13.45,15.9l-2.445,1.223s-33.013-42.794-37.9-69.693c-.309-1.7,2.1-1.125,2.1-1.125S522.9,658.009,529.009,664.122Z" transform="translate(-368.836 -154.87)" fill="#4e8464"/>
    <path id="Path_10872" data-name="Path 10872" d="M533.662,675.58s-.783-6.407,1.663-8.852,7.336-4.891,8.559-3.668,4.891,9.781,0,12.227a30.411,30.411,0,0,1-9.048,2.935Z" transform="translate(-365.37 -148.917)" fill="#4e8464"/>
    <path id="Path_10873" data-name="Path 10873" d="M465.056,653s-1.223,8.559,1.223,8.559S473.614,653,473.614,653" transform="translate(-380.69 -151.085)" fill="none" stroke="#c37fb8" stroke-miterlimit="10" stroke-width="1"/>
    <path id="Path_10874" data-name="Path 10874" d="M498.963,650.5s-3.126,1.913-2.445,2.445c55.632,43.405,64.8,56.244,64.8,56.244s.193-.987,0-1.223C544.814,687.792,504.465,651.111,498.963,650.5Z" transform="translate(-373.637 -151.641)" fill="#4e8464"/>
    <path id="Path_10875" data-name="Path 10875" d="M509.28,670.761l1.027-2.2s46.316,36,46.316,37.219l-1.223,2.446s-10.4-9.419-21.382-18.81C523.226,680.184,511.873,670.979,509.28,670.761Z" transform="translate(-370.773 -147.619)" fill="#4e8464"/>
    <path id="Path_10876" data-name="Path 10876" d="M534.125,685.2s-15.9-2.445-17.118,0,28.122,15.143,28.122,8.559C545.129,692.534,534.125,685.2,534.125,685.2Z" transform="translate(-369.061 -144.156)" fill="#4e8464"/>
    <ellipse id="Ellipse_144" data-name="Ellipse 144" cx="6.113" cy="5.434" rx="6.113" ry="5.434" transform="translate(138.164 498.247)" fill="#deb529"/>
    <path id="Path_10877" data-name="Path 10877" d="M510.227,638.141s3.668-6.114,2.445-6.114-4.891-1.223-9.146,3.326c-.493.527,4.255,2.788,4.255,2.788s1.223,11,4.891,15.9c1.038,1.383,1.223,0,1.223,0S509,643.031,510.227,638.141Z" transform="translate(-372.063 -155.788)" fill="#4e8464"/>
    <path id="Path_10878" data-name="Path 10878" d="M516,659.248s3.668,8.559,4.891,8.559h2.445s-6.211-7.679-6.162-9.341S516,659.248,516,659.248Z" transform="translate(-369.277 -149.996)" fill="#4e8464"/>
    <ellipse id="Ellipse_145" data-name="Ellipse 145" cx="19" cy="15" rx="19" ry="15" transform="translate(92.754 473.659)" fill="#c081b8"/>
    <path id="Path_10879" data-name="Path 10879" d="M473.64,651.914s11.4,17.558,26.7,5.869,4.4-23.182,4.4-23.182S509.538,672.993,473.64,651.914Z" transform="translate(-378.71 -155.182)" fill="#9b5299"/>
    <path id="Path_10880" data-name="Path 10880" d="M487.111,630s-2.445,7.336,2.445,11a96.862,96.862,0,0,0,12.227,7.336" transform="translate(-375.846 -156.207)" fill="none" stroke="#9b5299" stroke-miterlimit="10" stroke-width="1"/>
    <path id="Path_10881" data-name="Path 10881" d="M473.4,637.72s7.458,3.4,8.681,9.513a69.533,69.533,0,0,1,1.3,11.322" transform="translate(-378.764 -154.487)" fill="none" stroke="#9b5299" stroke-miterlimit="10" stroke-width="1"/>
    <path id="Path_10882" data-name="Path 10882" d="M480.5,645.048s13.694,1.32,14.795-3.008" transform="translate(-377.182 -153.525)" fill="none" stroke="#9b5299" stroke-miterlimit="10" stroke-width="1"/>
    <path id="Path_10883" data-name="Path 10883" d="M477.5,632.5s1.223,6.114,11,4.891" transform="translate(-377.85 -155.65)" fill="none" stroke="#9b5299" stroke-miterlimit="10" stroke-width="1"/>
    <line id="Line_25" data-name="Line 25" x2="3" y2="5" transform="translate(202.754 578.66)" fill="none" stroke="#4e8464" stroke-miterlimit="10" stroke-width="2"/>
    <path id="Path_10884" data-name="Path 10884" d="M562.56,713.8s20.1,16.14,22.546,16.14" transform="translate(-358.908 -137.545)" fill="none" stroke="#4e8464" stroke-miterlimit="10" stroke-width="2"/>
    <path id="Path_10885" data-name="Path 10885" d="M577.37,734.049s-10.124-21.226-13.01-22.229" transform="translate(-358.507 -137.986)" fill="none" stroke="#4e8464" stroke-miterlimit="10" stroke-width="2"/>
    <line id="Line_26" data-name="Line 26" x2="18.878" y2="21.25" transform="translate(209.154 570.533)" fill="none" stroke="#4e8464" stroke-miterlimit="10" stroke-width="2"/>
    <line id="Line_27" data-name="Line 27" x1="23.94" y1="15.406" transform="translate(209.594 569.653)" fill="none" stroke="#4e8464" stroke-miterlimit="10" stroke-width="2"/>
    <path id="Path_10886" data-name="Path 10886" d="M593.256,715.975,570,707l10.393.611" transform="translate(-357.251 -139.059)" fill="none" stroke="#4e8464" stroke-miterlimit="10" stroke-width="2"/>
    <path id="Path_10887" data-name="Path 10887" d="M493.514,297.5c3.668,3.668-.147,37.806-.073,38.466s1.3,6.774,9.855,10.442,19.563,7.336,22.008,13.45,2.445,13.45,1.223,40.349c-.229,5.036,1.223,6.113,9.782,11s19.563,13.45,19.563,22.008v8.559" transform="translate(-374.301 -230.252)" fill="none" stroke="#c87d43" stroke-miterlimit="10" stroke-width="1"/>
    <path id="Path_10888" data-name="Path 10888" d="M496.5,300.5s30.567,11,35.458,15.9,9.782,9.782,8.559,23.231" transform="translate(-373.619 -229.584)" fill="none" stroke="#c87d43" stroke-miterlimit="10" stroke-width="1"/>
    <path id="Path_10889" data-name="Path 10889" d="M462.84,276.013s2.03-25.065,9.366-27.511c1.16-.386,0,9.782-1.223,12.227s6.113-4.891,6.113-4.891" transform="translate(-381.115 -241.166)" fill="none" stroke="#c87d43" stroke-miterlimit="10" stroke-width="1"/>
    <path id="Path_10890" data-name="Path 10890" d="M469.5,276.845s3.668-15.9,15.895-22.009S501.29,247.5,501.29,247.5" transform="translate(-379.632 -241.387)" fill="none" stroke="#c87d43" stroke-miterlimit="10" stroke-width="1"/>
    <path id="Path_10891" data-name="Path 10891" d="M475.5,281.419s28.122-22.008,35.458-24.454,14.672-3.668,19.563-1.223a74.967,74.967,0,0,1,9.781,6.114" transform="translate(-378.296 -239.848)" fill="none" stroke="#c87d43" stroke-miterlimit="10" stroke-width="1"/>
    <path id="Path_10892" data-name="Path 10892" d="M561.85,302.5s-19.563,48.908-18.34,61.135,3.668,15.895,13.45,24.454,15.895,9.782,13.45,23.231a190.489,190.489,0,0,1-7.336,26.9" transform="translate(-363.163 -229.138)" fill="none" stroke="#c87d43" stroke-miterlimit="10" stroke-width="1"/>
    <path id="Path_10893" data-name="Path 10893" d="M575.667,364.5a14.893,14.893,0,0,0,3.668,15.9c7.336,7.336,15.9,13.45,17.118,22.009s0,13.449,0,13.449" transform="translate(-356.194 -215.331)" fill="none" stroke="#c87d43" stroke-miterlimit="10" stroke-width="1"/>
    <path id="Path_10894" data-name="Path 10894" d="M475.5,281.5s14.672,8.559,22.009,8.559,40.349-2.445,51.353-1.223,23.231,7.336,23.231,7.336" transform="translate(-378.296 -233.815)" fill="none" stroke="#c87d43" stroke-miterlimit="10" stroke-width="1"/>
    <g id="Group_439" data-name="Group 439" transform="translate(166.286 40.96)">
      <path id="Path_10796" data-name="Path 10796" d="M532,276h7.336s8.559,3.668,11,4.891,15.9,8.559,19.563,18.34-6.113,31.79-6.113,31.79l-1.223-2.445s9.606-19.879,3.668-30.567c-6.114-11-24.454-19.612-24.454-19.612Z" transform="translate(-532 -276)" fill="#7e302e"/>
      <path id="Path_10895" data-name="Path 10895" d="M551,346.006s14.162-.653,19.563,3.668c6.114,4.891,5.13,5.2,7.336,6.113,5.711,2.366,4.43-3.007,24.454,3.668,7.336,2.445,20.786,18.34,20.786,18.34l-30.567-11a79.277,79.277,0,0,1-13.45-8.559c-1.473-1.179-1.49-2.154-3.668-2.445C557.114,353.343,551,346.006,551,346.006Z" transform="translate(-527.769 -260.418)" fill="#7e302e"/>
      <path id="Path_10896" data-name="Path 10896" d="M555,334s8.559,9.782,14.672,9.782,28.122,0,33.013,1.223l9.782,2.445s-1.223-6.114-17.118-8.559-20.786-2.445-23.231-3.668S557.445,323,557.445,323Z" transform="translate(-526.878 -265.533)" fill="#7e302e"/>
    </g>
    <path id="Path_10897" data-name="Path 10897" d="M536,267.445c0-1.367,1.223-2.445,4.891-2.445s3.668,3.668,3.668,3.668-1.223,2.445-3.668,2.445S536,268.668,536,267.445" transform="translate(-364.823 -237.489)" fill="#d6935e"/>
    <path id="Path_10898" data-name="Path 10898" d="M517,275.99V271.1s2.445,0,2.445,1.223v1.223s2.445-1.223,2.445-2.445,2.445,0,2.445,0a1.693,1.693,0,0,1,0,2.445l-1.223,1.223v1.223s2.446,0,2.446,1.223c0,3.668-8.559,0-8.559,0Z" transform="translate(-369.054 -236.252)" fill="#fedac0"/>
    <path id="Path_10899" data-name="Path 10899" d="M513.445,289.672s-.419-5.659,0-7.336a6.451,6.451,0,0,1,6.114-4.891V275s-6.114,2.445-7.336,6.113A32.262,32.262,0,0,0,511,289.672Z" transform="translate(-370.39 -235.262)" fill="#508f74"/>
    <path id="Path_10900" data-name="Path 10900" d="M511.842,291.254s-1.223-22.008,1.223-23.231c.274-.137-.989-.2-1.223,0C509,270.427,509.4,282.7,509.4,282.7s-4.891-8.559-7.336-7.336c-1.254.627,1.223,4.891,4.891,8.559.626.626,2.445,1.983,2.445,2.445v4.891Z" transform="translate(-372.455 -236.844)" fill="#508f74"/>
    <path id="Path_10901" data-name="Path 10901" d="M510.668,269.782S507,264.891,507,263.668s1.223-2.445,3.668-1.223S511.891,260,513.113,260s1.223,0,2.445,1.223A3.787,3.787,0,0,0,518,262.445a1.693,1.693,0,0,1,0,2.445l-4.891,4.891Z" transform="translate(-371.281 -238.603)" fill="#fedac0"/>
    <path id="Path_10902" data-name="Path 10902" d="M525.947,287.372l-4.891-3.668s-1.223-4.891,1.223-3.668,2.445,2.445,2.445,2.445,2.445-2.445,4.891-2.445a5.355,5.355,0,0,1,3.668,1.223S535.728,283.7,525.947,287.372Z" transform="translate(-368.219 -234.185)" fill="#fedac0"/>
    <path id="Path_10903" data-name="Path 10903" d="M521.783,283.246s-.783-.293-.783.929,1.223,1.223,1.223,2.445v1.223h4.891l-.2-1.223s-1.859.049-2.054-.587A4.059,4.059,0,0,0,521.783,283.246Z" transform="translate(-368.163 -233.433)" fill="#508f74"/>
    <path id="Path_10904" data-name="Path 10904" d="M526.413,670.747c1.905,2.788.51,7.055-3.114,9.531s-8.106,2.221-10.01-.566-.51-7.055,3.114-9.531a10.335,10.335,0,0,1,1.2-.709C520.969,667.791,524.716,668.262,526.413,670.747Z" transform="translate(-370.07 -147.638)" fill="#c081b8"/>
    <path id="Path_10905" data-name="Path 10905" d="M516,671v6.113s0,1.223,1.223,0,1.223-4.891,2.445-4.891,3.668,0,3.668,2.445" transform="translate(-369.277 -147.076)" fill="none" stroke="#9b5299" stroke-miterlimit="10" stroke-width="1"/>
    <ellipse id="Ellipse_146" data-name="Ellipse 146" cx="12" cy="11.5" rx="12" ry="11.5" transform="translate(117.754 505.659)" fill="#dbb025"/>
    <path id="Path_10906" data-name="Path 10906" d="M491.4,666.7s13.572.807,11.127-10.2" transform="translate(-374.755 -150.305)" fill="none" stroke="#cd9303" stroke-miterlimit="10" stroke-width="1"/>
    <path id="Path_10907" data-name="Path 10907" d="M503.672,676.637a12.913,12.913,0,0,1-.068-7.336c1.187-3.679,4.832-6.16,3.575-9.816" transform="translate(-372.151 -149.64)" fill="none" stroke="#cd9303" stroke-miterlimit="10" stroke-width="1"/>
    <path id="Path_10908" data-name="Path 10908" d="M491.5,668.945s4.891,8.559,11,7.336,12.227-3.668,12.227-9.782" transform="translate(-374.733 -148.078)" fill="none" stroke="#cd9303" stroke-miterlimit="10" stroke-width="1"/>
    <path id="Path_10909" data-name="Path 10909" d="M570.563,702,551,717.9h12.227L579.122,702Z" transform="translate(-361.483 -140.173)" fill="#d97f65"/>
    <path id="Path_10910" data-name="Path 10910" d="M456.353,313.8c-1.223,0-3.668-11,0-9.782s3.668,2.445,3.668,2.445S461.394,313.8,456.353,313.8Z" transform="translate(-382.991 -228.822)" fill="#395f83"/>
    <path id="Path_10911" data-name="Path 10911" d="M456.084,305c-.611,0-.611,2.445,0,2.445C457.306,307.446,458.529,305,456.084,305Z" transform="translate(-382.722 -228.582)" fill="#f8f3ed"/>
    <path id="Path_10912" data-name="Path 10912" d="M453.025,301s-1.223,1.223,3.668,3.668l4.891,2.445S456.693,301,453.025,301Z" transform="translate(-383.331 -229.472)" fill="#6f362d"/>
    <path id="Path_10913" data-name="Path 10913" d="M472.24,299.014c-.912.092-2.445,3.668,0,3.668,1.223,0,9.782-1.223,17.118,8.559C489.358,311.241,484.467,297.792,472.24,299.014Z" transform="translate(-379.316 -229.932)" fill="#6f362d"/>
    <path id="Path_10914" data-name="Path 10914" d="M478.113,302.007l-3.888-.037S472,303.229,472,309.343s2.445,7.336,3.668,7.336S483,313.011,483,308.12,478.113,302.007,478.113,302.007Z" transform="translate(-379.075 -229.257)" fill="#395f83"/>
    <path id="Path_10915" data-name="Path 10915" d="M477.257,304c-2.445,0-1.223,4.891,0,4.891S479.7,304,477.257,304Z" transform="translate(-378.219 -228.804)" fill="#f8f3ed"/>
    <path id="Path_10916" data-name="Path 10916" d="M523,417.445v9.782s44.017,9.782,47.685,12.227S567.017,415,567.017,415Z" transform="translate(-367.718 -204.085)" fill="#ece5dd"/>
    <path id="Path_10917" data-name="Path 10917" d="M485.03,420a5.347,5.347,0,0,0-4.891,3.668c-1.223,3.668-.978,4.5.734,5.918s5.38-3.473,5.38-3.473S489.921,421.223,485.03,420Z" transform="translate(-377.433 -202.972)" fill="#f7e5d9"/>
    <path id="Path_10918" data-name="Path 10918" d="M482.668,429S479,429,479,430.223,481.445,433.891,482.668,429Z" transform="translate(-377.517 -200.968)" fill="#f7e5d9"/>
    <path id="Path_10919" data-name="Path 10919" d="M485,358.445,491.113,356s2.445,7.336,3.668,8.559-3.668,1.223-3.668,1.223S487.445,358.445,485,358.445Z" transform="translate(-376.18 -217.224)" fill="#e09375"/>
    <path id="Path_10920" data-name="Path 10920" d="M595.219,429.129s-.345,13.623-3.668,14.672c-23.231,7.336-64.191,3.057-64.191,3.057-1.223-1.223,6.113-33.013-4.891-39.126s-19.563-15.895-24.454-30.567,6.113-36.681,6.113-36.681c6.114-17.118,1.834-28.733,1.834-31.179s-6.113-6.113-18.952-15.284c-10.244-7.317-14.061-21.4-17.118-22.009s-10.393,3.057-10.393,3.057" transform="translate(-381.859 -235.943)" fill="none" stroke="#a55b34" stroke-miterlimit="10" stroke-width="1"/>
  </g>
  <g id="man">
    <path id="Path_10921" data-name="Path 10921" d="M363.833,663.4c.236,1.643-.391-74.976-.391-74.976l-44.8-145.109L311.6,459.753S361.779,649.124,363.833,663.4Z" transform="translate(-169.33 -134.939)" fill="#ecbd4f"/>
    <path id="Path_10922" data-name="Path 10922" d="M252,685.223A68.939,68.939,0,0,1,260.559,684c2.445,0,4.891,3.668,4.891,3.668s2.445,3.668-1.223,4.891-9.782,1.223-9.782,1.223Z" transform="translate(-182.603 -81.341)" fill="#db8774"/>
    <path id="Path_10923" data-name="Path 10923" d="M302.575,287a83.175,83.175,0,0,0,9.781,2.445c8.559,1.223,12.227,78.252,12.227,78.252s-24.454-4.891-24.454-3.668-10.917-44.9-17.118-44.017C281.642,320.208,302.575,289.445,302.575,287Z" transform="translate(-175.711 -169.75)" fill="#d3d2d1"/>
    <path id="Path_10924" data-name="Path 10924" d="M310,317s1.223,33.013,1.223,42.794c0,6.021,15.895,9.782,22.008,9.782s19.563-9.782,19.563-13.45-2.445-24.454-2.445-24.454H333.231Z" transform="translate(-169.687 -163.07)" fill="#df8875"/>
    <path id="Path_10925" data-name="Path 10925" d="M310,317l1.223,12.227s22.008,7.336,23.231,7.336,0,9.781,0,9.781h1.223v2.445H336.9v1.223h2.445V348.79h1.223v-3.668h-1.223v-7.336h9.782s1.981,21.715,1.6,21.862,2.115-.88,2.091-2.2-1.247-25.774-1.247-25.774h-18.34S313.668,323.114,310,317Z" transform="translate(-169.687 -163.07)" fill="#c06258"/>
    <path id="Path_10926" data-name="Path 10926" d="M319,334s8.412,9.244,8.486,10.124C327.017,338.5,324.286,333.81,319,334Z" transform="translate(-167.682 -159.285)" fill="#d3756e"/>
    <path id="Path_10927" data-name="Path 10927" d="M327.034,340.891c-.828.543,1.223-4.891,3.668-4.891h2.445A50.831,50.831,0,0,1,327.034,340.891Z" transform="translate(-165.935 -158.838)" fill="#d3756e"/>
    <path id="Path_10928" data-name="Path 10928" d="M387.017,227l-9.782,6.113-7.336,8.559L368.677,253.9l12.227,1.223s4.891,6.114,1.223,8.559a17.52,17.52,0,0,1-8.559,2.445,14.285,14.285,0,0,0,0,11c2.445,6.113-.342,55.217-7.507,66.123S343,350.492,343,350.492v1.223l1.272,12.667s48.859,20.346,52.527,26.459,4.891-66.025-4.891-91.7-10.681-42.407.783-51.989C399.244,241.672,387.017,227,387.017,227Z" transform="translate(-162.338 -183.112)" fill="#fffdfd"/>
    <path id="Path_10929" data-name="Path 10929" d="M376.79,257s-6.554,3.228-4.5,10.173,1.223,25.677,2.054,33.844c.85,8.35-8.412,21.324-9.1,27.78s-8.265,14.33-9.977,14.672-10.271.342-10.271.342,1.467,5.576,4.4,5.233,16.384.88,23.72-19.906S388.025,279.767,376.79,257Z" transform="translate(-161.892 -176.431)" fill="#e0e0e0"/>
    <path id="Path_10930" data-name="Path 10930" d="M386.915,227.425s5.771,10.466.44,18.683-11.444,16.775-7.776,27.78,10.123,43.264,13.45,53.8c7.336,23.231,0,61.135,0,61.135l-18.34-8.559s9.782-47.685,7.336-61.135-14.966-54.19-9.928-60.108,14.868-16.237,10.564-27.584S386.915,227.425,386.915,227.425Z" transform="translate(-156.122 -183.537)" fill="#e0e0e0"/>
    <path id="Path_10931" data-name="Path 10931" d="M299.372,274.529s-1.061,28.129-2.277,29.358,3.717,8.538,8.593,6.064c0,0,1.329,18.333,3.788,20.765s23.3,12.092,37.966,10.785,24.447-1.363,30.5-12.4,9.618-21.808,9.561-31.589-1.269-14.922-2.513-18.582-.056-9.782-1.286-11,1.585-5.121,1.585-5.121,4.458-7.142,3.222-9.58A3.156,3.156,0,0,0,385,251.367l-.237-11.565a40.372,40.372,0,0,1-13.436,2.524c-7.336.042-66.969-2.282-66.969-2.282S301.655,246.394,299.372,274.529Z" transform="translate(-172.602 -180.261)" fill="#dd9c85"/>
    <path id="Path_10932" data-name="Path 10932" d="M374.645,302.641c.818.822,3.5-2.789,6.129-4.871,1.294-1.023,3.671-.808,3.673-1.21,0-1.223-7.475,42.77-19.7,42.731a5.354,5.354,0,0,1-3.663-1.235l-26.459-.171s-24.862-9.777-27.281-18.343-2.354-28.13-1.124-30.571,13.386,19.606,15.831,19.615-.017-14.6-.017-14.6,2.526-4.957,4.971-4.948,17.057-2.411,24.373,3.725c0,0,11-1.226,12.227-2.445s2.519,1.291,4.964,1.3C372.236,291.628,372.718,300.7,374.645,302.641Z" transform="translate(-170.715 -169.4)" fill="#723938"/>
    <path id="Path_10933" data-name="Path 10933" d="M327.568,295s-6.113,3.668-1.223,9.782,11,13.45,13.45,13.45c2.818,0,3.668-8.559,7.336-8.559s5.825,8.559,8.559,8.559c1.223,0,7.336-4.891,7.336-4.891.938-6.831,2.651-15.632,0-17.118C361.517,295.377,327.568,295,327.568,295Z" transform="translate(-166.469 -167.969)" fill="#e29c87"/>
    <path id="Path_10934" data-name="Path 10934" d="M328,296v1.223c0,1.223,13.45,8.559,19.563,8.559,2.445,0,8.559-3.668,8.559-3.668s.877-3.938,0-3.668A37,37,0,0,1,328,296Z" transform="translate(-165.678 -167.746)" fill="#d16c5e"/>
    <path id="Path_10935" data-name="Path 10935" d="M312.036,299s-1.223,22.009,2.445,26.9l.514.122-1.736-24.576Z" transform="translate(-169.277 -167.078)" fill="#632e30"/>
    <path id="Path_10936" data-name="Path 10936" d="M320.022,301.445c6.113,12.227,3.485,30.4,3.668,30.567a13.636,13.636,0,0,0,1.834,1.052s1.834-32.842-5.5-34.064A7.128,7.128,0,0,0,320.022,301.445Z" transform="translate(-167.482 -167.078)" fill="#632e30"/>
    <path id="Path_10937" data-name="Path 10937" d="M303,323" transform="translate(-171.245 -161.733)" fill="#fff"/>
    <path id="Path_10938" data-name="Path 10938" d="M332,312l2.445,2.445,1.223,17.118-2.054-.049Z" transform="translate(-164.787 -164.183)" fill="#632e30"/>
    <path id="Path_10939" data-name="Path 10939" d="M343.2,309.078c-2.445,6.114,0,23.231,0,23.231h2.445s-2.445-15.895,0-23.231C345.837,308.5,343.425,308.511,343.2,309.078Z" transform="translate(-162.536 -164.929)" fill="#632e30"/>
    <path id="Path_10940" data-name="Path 10940" d="M352.015,331.7c2.445-3.668,1.223-18.34,1.223-18.34l1.834-1.981s.611,22.767-.611,22.767S351.536,332.42,352.015,331.7Z" transform="translate(-160.349 -164.321)" fill="#632e30"/>
    <path id="Path_10941" data-name="Path 10941" d="M318,272.061s.344-.707,1.394-.065c1.748,1.07,4.72,2.51,12.056,2.51,6.113,0,6.113-1.223,9.781-1.223,0,0-1.223,2.445-9.781,2.445C330.227,275.729,319.223,275.729,318,272.061Z" transform="translate(-167.905 -173.152)" fill="#d67b6a"/>
    <path id="Path_10942" data-name="Path 10942" d="M350.86,272.294s.254-.709,1.32-.205a20.55,20.55,0,0,0,12.58,2.187c.456-.051,4.068-.208,5.834-3.276,0,0,0,3.668-6.413,4.564C363.021,275.727,352.53,276.827,350.86,272.294Z" transform="translate(-160.587 -173.313)" fill="#de8473"/>
    <ellipse id="Ellipse_147" data-name="Ellipse 147" cx="3" cy="2" rx="3" ry="2" transform="translate(181.219 86.501)" fill="#d67b6a"/>
    <path id="Path_10943" data-name="Path 10943" d="M311.142,290.893c2.445,6.114,11,2.445,11,2.445s8.559-4.891,6.113-9.782S306.252,278.666,311.142,290.893Z" transform="translate(-169.606 -171.198)" fill="#dd8573"/>
    <path id="Path_10944" data-name="Path 10944" d="M352,250.223V260s23.231,0,25.677,2.445c0,0,2.445-9.782,1.223-11S371.563,249,371.563,249H356.891v2.445h-1.223V249h-2.445Z" transform="translate(-160.333 -178.213)" fill="#582a2c"/>
    <path id="Path_10945" data-name="Path 10945" d="M312,260.227l4.891,4.891h2.445c.779-.779,1.223-3.668,2.445-3.668h24.454v-6.113s3.668-3.668,0-4.891S327.895,248,324.227,248,312,260.227,312,260.227Z" transform="translate(-169.241 -178.435)" fill="#582a2c"/>
    <path id="Path_10946" data-name="Path 10946" d="M316,254.223l4.891,6.114h1.223L317.223,253Z" transform="translate(-168.35 -177.322)" fill="#632e30"/>
    <rect id="Rectangle_156" data-name="Rectangle 156" width="4" height="9" transform="translate(158.219 69.501)" fill="#632e30"/>
    <rect id="Rectangle_157" data-name="Rectangle 157" width="4" height="12" transform="translate(162.219 69.501)" fill="#632e30"/>
    <path id="Path_10947" data-name="Path 10947" d="M361.416,249.053,361,260.009h3.668l-.025-11.029Z" transform="translate(-158.329 -178.217)" fill="#632e30"/>
    <path id="Path_10948" data-name="Path 10948" d="M365,249.127v10.882l3.668,1-.293-12.031Z" transform="translate(-157.438 -178.217)" fill="#632e30"/>
    <path id="Path_10949" data-name="Path 10949" d="M300,275.458a20.832,20.832,0,0,1,4.891,8.559c.268,1.069,2.445-3.668,2.445-3.668v-18.34s6.113-8.559,6.113-11-4.891-11-4.891-11h-2.445l-3.668,13.45Z" transform="translate(-171.913 -180.217)" fill="#723938"/>
    <path id="Path_10950" data-name="Path 10950" d="M302.046,272c-1.223,0,2.445,1.223,1.223,4.891v1.223h1.223S304.78,272,302.046,272Z" transform="translate(-171.514 -173.091)" fill="#cf6859"/>
    <path id="Path_10951" data-name="Path 10951" d="M300.1,266.92l-.1,2.543s4.891,3.668,4.891,9.782c0,0,2.348-2.69,2.4-4.4s-1.174,1.956-1.174,1.956S301.418,266.822,300.1,266.92Z" transform="translate(-171.913 -174.222)" fill="#542928"/>
    <path id="Path_10952" data-name="Path 10952" d="M317.308,329c.734-.46,15.9,8.559,17.118,9.781,1.559,1.559,1.955,5.523,3.668,7.336,0,0,1.223-7.336,4.891-7.336,14.672,0,15.053-9.781,17.118-9.781,3.026,0,9.782,6.113,8.559,8.559s2.445,1.223,2.445,1.223l-1.223,4.891s2.445,23.231-4.891,31.79c-3.376,3.938,4.891-2.445,4.891,11s26.781,131.777,25.677,140.61c-1.223,9.781-22.008,118.6-22.008,118.6S300.19,380.356,286.74,362.016c0,0-8.559-8.559-14.672-7.336-5.127,1.026,44.291-1.35,40.349-17.118C311.194,332.671,315.219,330.311,317.308,329Z" transform="translate(-178.217 -160.4)" fill="#fff"/>
    <path id="Path_10953" data-name="Path 10953" d="M356.14,335s-12.227,6.113-17.118,39.126c-.642,4.336,1.223,46.462,4.891,46.462,2.445,0-2.445-44.017,0-50.13S359.809,336.223,356.14,335Z" transform="translate(-163.251 -159.061)" fill="#e0e0e0"/>
    <path id="Path_10954" data-name="Path 10954" d="M340.049,246.029c3.668-1.223,6.113,4.891,4.891,6.113-.648.648-1.334-2.158-2.445-3.668C341.507,247.133,338.957,246.394,340.049,246.029Z" transform="translate(-163.054 -178.91)" fill="#d67b6a"/>
    <path id="Path_10955" data-name="Path 10955" d="M461.118,487,444,501.672s13.45,14.672,15.9,15.895,6.113,0,6.113,0S462.34,493.113,461.118,487Z" transform="translate(-139.846 -125.212)" fill="#333"/>
    <path id="Path_10956" data-name="Path 10956" d="M444,499s13.45,15.9,15.9,15.9S448.891,502.668,444,499Z" transform="translate(-139.846 -122.539)" fill="#252524"/>
    <path id="Path_10957" data-name="Path 10957" d="M265.911,1029.851s-45.289,16.629-56.293,17.851l-11,1.223s-6.691,16.54-1.223,22.009c1.223,1.222,41.572,19.563,90.479-2.446,2.23-1,11,4.891,28.122,1.223,1.2-.257.978-24.014.978-24.014S280.632,1019.336,265.911,1029.851Z" transform="translate(-195.242 -4.874)" fill="#050505"/>
    <path id="Path_10958" data-name="Path 10958" d="M256,1032.45s14.522,6.113,19.563,6.113c1.223,0-1.223,4.891,18.34,7.336s25.17.506,26.9-1.223c1.223-1.223,12.227,6.113,33.013,6.113a407.764,407.764,0,0,0,41.571-2.445s28.122,3.668,40.349-4.891,18.683-24.65,14.672-24.454-25.187,13.156-25.187,13.156-11.969.4-15.161-.929c-14.672-6.114-53.919,15.22-72.139,0-13.237-11.057-34.848-9.985-50.13-6.114-8.629,2.185-12.227,3.668-18.34,4.891S256,1032.45,256,1032.45Z" transform="translate(-181.712 -6.739)" fill="#fff"/>
    <path id="Path_10959" data-name="Path 10959" d="M202,1048s7.336,17.118,86.811,6.113" transform="translate(-193.737 -0.281)" fill="none" stroke="#333" stroke-miterlimit="10" stroke-width="1"/>
    <path id="Path_10960" data-name="Path 10960" d="M332,358s17.118-15.9,18.34-18.34c2.187-4.375.573-7.6-2.054-8.95-1.614-.831,5.722,1.614,4.5,6.5S341.782,353.109,332,358Z" transform="translate(-164.787 -160.052)" fill="#e0e0e0"/>
    <path id="Path_10961" data-name="Path 10961" d="M364,282v7.336s3.668,4.891,6.113,3.668S364,282,364,282Z" transform="translate(-157.661 -170.864)" fill="#d67b6a"/>
    <path id="Path_10962" data-name="Path 10962" d="M366,282.445,372.113,291s0-11-1.223-11S366,282.445,366,282.445Z" transform="translate(-157.216 -171.309)" fill="#d67b6a"/>
    <path id="Path_10963" data-name="Path 10963" d="M542.846,496H529.4s-4.891,11,0,12.227a101.693,101.693,0,0,0,15.895,2.445Z" transform="translate(-121.313 -123.208)" fill="#dd8674"/>
    <path id="Path_10964" data-name="Path 10964" d="M548.569,510.1s-19.563-1.223-23.231,0c-3.869,1.29-1.223,15.9,3.668,15.9,8.559,0,22.008,1.223,22.008,1.223Z" transform="translate(-122.145 -120.189)" fill="#dd8674"/>
    <path id="Path_10965" data-name="Path 10965" d="M529.668,523.445,526,521l24.136,1.614.318,2.054Z" transform="translate(-121.585 -117.64)" fill="#c2635d"/>
    <path id="Path_10966" data-name="Path 10966" d="M527.081,521.24l23.207.929v2.445l-20.324-1.128-1.685-.094S525.883,521.534,527.081,521.24Z" transform="translate(-121.419 -117.587)" fill="#c2635d"/>
    <path id="Path_10967" data-name="Path 10967" d="M529.334,524.188c-2.445,1.223-2.445,7.336,0,12.227,1.641,3.28,19.563,1.223,19.563,1.223l1.223-13.45S533.982,521.864,529.334,524.188Z" transform="translate(-121.251 -117.16)" fill="#dd8674"/>
    <path id="Path_10968" data-name="Path 10968" d="M529,534s18.341,0,19.563,1.223c.864.865-17.8-.489-18.683-.244S529,534,529,534Z" transform="translate(-120.917 -114.745)" fill="#c2635d"/>
    <path id="Path_10969" data-name="Path 10969" d="M535.619,535.52s-2.885,5.478-.44,9.146,3.668,4.891,6.113,4.891,9.782-6.114,3.668-13.45Z" transform="translate(-119.76 -114.407)" fill="#c36456"/>
    <path id="Path_10970" data-name="Path 10970" d="M400.676,343.4s20.737,15.406,31.741,17.851,14.672,2.445,19.563,8.559,46.462,46.462,51.353,56.244,8.559,15.895,8.559,15.895l-46.462,56.244-22.008-23.231s0,110.043,2.445,127.16,18.341,173.622,19.563,177.29-31.79,152.837-25.676,222.53c3.647,41.574,20.786,133.254,20.786,171.177,0,1.223-13.427,17.532-51.353,4.891-7.336-2.446-6.114,8.559-24.454,8.559s-23.231-3.668-50.13-9.781c-2.384-.542-25.677-7.336-95.37,13.449-2.62.781,8.559-20.786,13.45-58.689s8.559-62.357,11-121.047,14.672-323.152,14.672-337.463c0-1.223-62.357,2.445-62.357,2.445s18.34-199.3,33.013-266.547c0,0,7.336-44.017,34.235-52.576,29.128-9.268,102.706,331.35,102.706,331.35s-4.793-325.628,14.721-342.55" transform="translate(-190.62 -157.191)" fill="#202020"/>
    <path id="Path_10971" data-name="Path 10971" d="M262,734.37s20.786,1.223,20.786-20.786c0-2.446-4.891-15.9-4.891-15.9s7.336-39.126-11-58.689Z" transform="translate(-180.376 -91.362)" fill="#1c1c1c"/>
    <path id="Path_10972" data-name="Path 10972" d="M261.015,636.484s1.834,5.5,3.057,10.393,17.118,22.008,14.672,30.567-7.336,20.786-7.336,20.786l-14.672-7.336s6.113-7.336,4.891-12.227-3.668-8.559-4.891-3.668-3.668,18.34-3.668,18.34,9.782,15.9,9.782,22.008c0,0,22.008,9.782,20.786,14.672s-3.668,3.668-3.668,3.668l-7.336-2.445s2.445,7.336,0,9.782-28.122-19.563-28.122-19.563l-1.223-3.668h-6.113L222.5,683.558s12.537-28.083,13.45-36.681C247.565,537.446,261.015,636.484,261.015,636.484Z" transform="translate(-189.172 -101.074)" fill="#dd8873"/>
    <path id="Path_10973" data-name="Path 10973" d="M250.668,660,247,678.341l1.223,1.223S253.113,661.223,250.668,660Z" transform="translate(-183.716 -86.686)" fill="#c36456"/>
    <path id="Path_10974" data-name="Path 10974" d="M253,660h8.559v2.445l-7.189-.1Z" transform="translate(-182.38 -86.686)" fill="#c66257"/>
    <path id="Path_10975" data-name="Path 10975" d="M259.048,678.435c-1.223-1.223,2.121-6.563,3.668-7.336a5.9,5.9,0,0,1,4.891,0l-.66,1.125s-1.456-1.137-3.991,1.055C261.849,674.238,259.912,679.3,259.048,678.435Z" transform="translate(-181.092 -84.335)" fill="#c66257"/>
    <path id="Path_10976" data-name="Path 10976" d="M251,673.04c.023,1.223,2.381,2.488,6.114,4.891a18.3,18.3,0,0,0,7.336,2.445S250.968,671.311,251,673.04Z" transform="translate(-182.825 -83.831)" fill="#c36456"/>
    <path id="Path_10977" data-name="Path 10977" d="M228.748,668s-1.533-.3-.767-2.118a3.1,3.1,0,0,1,2.733-1.813c.66.408,2.5,3.3,2.948,3.931.636.9,2.949.983,2.949.983s-2.949.983-3.932,0c-.492-.491-1.965-2.949-2.948-2.949C228.341,666.033,229.731,668,228.748,668Z" transform="translate(-187.999 -85.78)" fill="#c06457"/>
    <path id="Path_10978" data-name="Path 10978" d="M223,668s13.45,2.445,14.672,4.891,14.672,30.567,14.672,30.567l20.786,11s3.818,9.781-1.223,9.781c-1.223,0-24.454-18.34-24.454-18.34l-2.445-4.891h-4.891Z" transform="translate(-189.061 -84.904)" fill="#c36456"/>
    <path id="Path_10979" data-name="Path 10979" d="M230,675s13.45,29.345,14.672,30.567,23.231,18.34,23.231,18.34l.831-.489L245.9,704.345,232.445,675Z" transform="translate(-187.502 -83.345)" fill="#ae4d47"/>
    <path id="Path_10980" data-name="Path 10980" d="M242.786,706.135s-5.038,1.027-5.576-.1S222,673.122,222,673.122s1.223-2.445,6.113-13.45S235.45,645,235.45,645l-9.782,28.122S234.129,704.472,242.786,706.135Z" transform="translate(-189.283 -90.026)" fill="#c16259"/>
    <path id="Path_10981" data-name="Path 10981" d="M278.731,487s11.667,15.945,9.781,36.681c-1.223,13.45-9.781,23.231-9.781,23.231l1.223,99.038s-43.807,45.588-59.912,36.681c-11.234-6.214-2.445-48.908-2.445-48.908s18.038-1.075,24.454-8.559C249.386,616.606,278.731,487,278.731,487Z" transform="translate(-190.993 -125.212)" fill="#1c1c1c"/>
    <path id="Path_10982" data-name="Path 10982" d="M317,242.691s17.124,4.18,31.691,3.668c18.41-.648,38.762-3.4,40.933-6.113,2.911-3.633-5.083-13.45-9.044-12.227C380.58,228.019,371.138,240.246,317,242.691Z" transform="translate(-168.128 -182.908)" fill="#723938"/>
    <path id="Path_10983" data-name="Path 10983" d="M325,265.157s11-3.668,12.649,4.108c.183.869-2.867-5.331-11.426-4.108Z" transform="translate(-166.346 -174.807)" fill="#e38a76"/>
    <path id="Path_10984" data-name="Path 10984" d="M328,296s5.269,3.37,6.461,3.1S328,296,328,296Z" transform="translate(-165.678 -167.746)" fill="#ba594f"/>
    <path id="Path_10985" data-name="Path 10985" d="M329,289.025v7.336h1.223v-7.336S329,288.719,329,289.025Z" transform="translate(-165.455 -169.33)" fill="#632e30"/>
    <path id="Path_10986" data-name="Path 10986" d="M338,290v6.113h2.445v-4.891S337.794,291.149,338,290Z" transform="translate(-163.453 -169.082)" fill="#632e30"/>
    <path id="Path_10987" data-name="Path 10987" d="M347,292v3.668h2.445l-.122-3.644Z" transform="translate(-161.447 -168.637)" fill="#632e30"/>
    <path id="Path_10988" data-name="Path 10988" d="M354,291.223v4.891h1.223V290Z" transform="translate(-159.888 -169.082)" fill="#632e30"/>
    <path id="Path_10989" data-name="Path 10989" d="M377,257.625s13.45-13.45,8.559-30.567C384.63,223.8,395.34,246.62,377,257.625Z" transform="translate(-154.766 -183.169)" fill="#a2a1a2"/>
    <path id="Path_10990" data-name="Path 10990" d="M349,337.57s9.781-4.891,8.559-2.445a37.686,37.686,0,0,1-2.959,4.793Z" transform="translate(-161.002 -159.186)" fill="#bf943c"/>
    <path id="Path_10991" data-name="Path 10991" d="M267,352.2s11-2.445,15.9,0,20.786,20.786,41.62,101.484C324.821,454.866,292.677,338.748,267,352.2Z" transform="translate(-179.262 -155.473)" fill="#fff"/>
    <path id="Path_10992" data-name="Path 10992" d="M331,528s4.891,30.567,7.336,39.126,6.113,25.677,8.559,29.345S338.336,542.672,331,528Z" transform="translate(-165.01 -116.081)" fill="#333"/>
    <path id="Path_10993" data-name="Path 10993" d="M271,360" transform="translate(-178.372 -153.494)" fill="#dd8873"/>
    <path id="Path_10994" data-name="Path 10994" d="M281.4,350s-18.34,8.559-20.786,23.231-9.782,74.584-9.782,74.584L243.5,506.5s-12.227,92.925-13.45,114.933-15.895,97.815-9.782,86.811,23.231-86.811,22.009-106.374c0,0,2.445-68.471,7.336-84.366,0,0,14.672-74.584,13.45-96.593S270.4,361,285.073,357.336C286.259,357.039,281.4,350,281.4,350Z" transform="translate(-189.999 -155.721)" fill="#ecbd4f"/>
    <path id="Path_10995" data-name="Path 10995" d="M219.421,707.58s3.479-16.129,5.866-28.182c8.481-42.81,2.346-53.8,3.568-55.029,3.859-3.874-4.844,25.686-4.844,25.686s-2.481-19.559-.049-26.9,14.616-30.594,14.515-85.615c-.05-27.54,9.686-52.594,14.473-108.847.328-3.853-.078-42.794,7.242-51.367s17.9-22.618,15.865-17.147c-7.3,19.577-12.243-8.536-38.706,229.938C236.107,601.323,238.71,664.7,219.421,707.58Z" transform="translate(-189.858 -153.728)" fill="#dbb025"/>
    <path id="Path_10996" data-name="Path 10996" d="M261.885,380.142c9.706-6.233,12.885,53.645,12.885,53.645s-3.892-18.294-7.71-30.476C262.972,390.266,259.37,381.756,261.885,380.142Z" transform="translate(-180.587 -149.11)" fill="#333"/>
    <path id="Path_10997" data-name="Path 10997" d="M278.622,444c-.648-1.037,1.223,45.24-6.113,48.908-2.445,1.223-11-19.563-11-19.563s7.336,26.9,8.51,38-2.4,50.033-2.4,50.033L266.4,604.176s-4.891-7.336-7.336-7.336,9.782,9.782,8.559,29.345-1.712,28.073-1.712,28.073a13.016,13.016,0,0,0,7.825-9.733c1.223-7.336,2.445-33.013-1.223-40.349s1.223-2.445,2.445-25.677c0,0,4.891-64.8,2.445-72.139S290.849,463.566,278.622,444Z" transform="translate(-181.103 -134.791)" fill="#0f0f0f"/>
    <path id="Path_10998" data-name="Path 10998" d="M261.025,507.579s-1.223-3.668,3.668-6.113,4.891-3.668,6.113-1.223-1.223,9.781-4.891,9.781S261.025,507.579,261.025,507.579Z" transform="translate(-180.623 -122.56)" fill="#e29579"/>
    <path id="Path_10999" data-name="Path 10999" d="M260,512.727a8.468,8.468,0,0,1,4.891-3.668c3.668-1.223,9.782,1.223,9.782,3.668s-1.223,6.113-7.336,6.113S260,512.727,260,512.727Z" transform="translate(-180.821 -120.372)" fill="#e29579"/>
    <path id="Path_11000" data-name="Path 11000" d="M260,522.891S260,518,263.668,518,271,520.446,271,522.891s-2.445,3.668-6.113,3.668S260,522.891,260,522.891Z" transform="translate(-180.821 -118.308)" fill="#e29579"/>
    <path id="Path_11001" data-name="Path 11001" d="M259,530.668S260.223,527,262.668,527s3.668,3.668,3.668,3.668-1.223,4.891-3.668,4.891S259,530.668,259,530.668Z" transform="translate(-181.044 -116.304)" fill="#e29579"/>
    <path id="Path_11002" data-name="Path 11002" d="M259.241,377s23.231,37.9,17.118,56.244c0,0-12.227-44.262-18.34-50.13C257.485,382.6,259.241,377,259.241,377Z" transform="translate(-181.285 -149.708)" fill="#1e1d1d"/>
    <path id="Path_11003" data-name="Path 11003" d="M275.64,354.123s6.554-1.369,16.335,23.084l78.252,254.32" transform="translate(-177.338 -154.806)" fill="#f4ec63"/>
    <path id="Path_11004" data-name="Path 11004" d="M420.351,477.176c2.445-1.223,47.685-55.021,47.685-55.021l-3.5-3.595-48.859,58.1Z" transform="translate(-146.152 -140.453)" fill="#1e1d1d"/>
    <path id="Path_11005" data-name="Path 11005" d="M400.693,426.036s-2.445-2.445-3.668,9.781,6.113,162.618,9.782,168.732C411.387,612.183,395.8,429.7,400.693,426.036Z" transform="translate(-150.337 -138.832)" fill="#333"/>
    <path id="Path_11006" data-name="Path 11006" d="M271,360.1s2.445-13.45,41.572,91.7c40.285,108.267,79.475,325.237,95.37,437.724,2.442,17.276,2.445,67.248,0,70.916,0,0,2.445-37.9-4.891-68.471,0,0-77.03-365.585-92.925-424.275C301.636,436.349,271,361.324,271,360.1Z" transform="translate(-178.372 -153.595)" fill="#0f0f0f"/>
    <path id="Path_11007" data-name="Path 11007" d="M352,627s34.48,192.6,37.9,210.3S369.118,647.786,352,627Z" transform="translate(-160.333 -94.035)" fill="#1c1c1c"/>
    <path id="Path_11008" data-name="Path 11008" d="M284,237s24.454,2.445,25.677,4.255C310.032,241.782,293.781,243.113,284,237Z" transform="translate(-175.476 -180.885)" fill="#a2a1a2"/>
    <path id="Path_11009" data-name="Path 11009" d="M284.4,239.884s-4.891,4.891,0,7.336,91.473,16.124,121.047-13.45c1.223-1.223-17.118-7.336-19.563-12.227s-23.231-36.681-57.467-29.345-30.567,35.458-30.567,35.458S285.619,239.884,284.4,239.884Z" transform="translate(-175.872 -191.105)" fill="#fffdfd"/>
    <path id="Path_11010" data-name="Path 11010" d="M297.908,223.786c-1.466-1.811-5.67.746-7.59,2.065-4.1,2.815-9.034,6.748-8.3,8.939,1.223,3.668,14.672,11,59.912-1.223s47.685-20.786,46.462-25.677S374.938,203,374.938,203s12.227,6.113,0,11-37.9,12.227-50.13,14.672C314.862,230.666,302.07,228.926,297.908,223.786Z" transform="translate(-175.935 -188.457)"/>
    <path id="Path_11011" data-name="Path 11011" d="M296.405,217.106c.542-2.264-4.891,2.445-7.336,4.891-2.593,2.593,7.336,17.118,52.576,3.668s42.794-19.563,42.794-20.786-2.445-7.336-14.672-3.668c-2.619.786,29.652-.2-25.676,15.9C300.547,229.774,294.622,224.564,296.405,217.106Z" transform="translate(-174.432 -189.113)"/>
    <path id="Path_11012" data-name="Path 11012" d="M291,225.9c36.069,12.838,91.091-14.061,93.536-21.4" transform="translate(-173.918 -188.123)" fill="none" stroke="#333" stroke-miterlimit="10" stroke-width="1"/>
    <path id="Path_11013" data-name="Path 11013" d="M256,1031.782s36.681-13.45,70.916-6.114,40.544,8.657,52.576,7.336,15.8-7.483,18.34-7.336,21.47,6.358,30.567,4.891,22.008-4.891,23.231-8.559c0,0-4.98,10.621-11,12.227-18.34,4.891-45.932-5.759-43.234-3.961.44.293-15.455,19.856-93.707-.929C283.561,1023.991,256,1031.782,256,1031.782Z" transform="translate(-181.712 -6.071)" fill="#212121"/>
    <path id="Path_11014" data-name="Path 11014" d="M286,238.45s39.958,11.738,74.584,6.113S404.6,229.891,404.6,225c0,0-24.454,12.227-35.458,13.45S319.013,245.786,286,238.45Z" transform="translate(-175.031 -183.557)" fill="#e0e0e0"/>
    <path id="Path_11015" data-name="Path 11015" d="M215.36,649.417l.783,3.375s3.668,11,30.567-7.336,36.436-34.48,36.436-34.48l.587-6.456S247.933,641.788,215.36,649.417Z" transform="translate(-190.762 -99.041)" fill="#ecbd4f"/>
    <path id="Path_11016" data-name="Path 11016" d="M216.056,651.686s-1.223,9.781,1.223,8.559,20.786-4.891,33.013-13.45,37.9-25.677,34.235-35.458c0,0-1.223-4.891-6.113,1.223S229.505,652.909,216.056,651.686Z" transform="translate(-190.675 -97.935)" fill="#f4ec63"/>
    <path id="Path_11017" data-name="Path 11017" d="M352,273.336S358.113,266,363,266s7.336,3.668,7.336,6.113S361.782,280.672,352,273.336Z" transform="translate(-160.333 -174.427)" fill="#f7f2e8"/>
    <path id="Path_11018" data-name="Path 11018" d="M362.328,266.02s-7.6.256-5.245,7.312c2.445,7.336,11,2.445,11-2.445S362.328,266.02,362.328,266.02Z" transform="translate(-159.302 -174.423)" fill="#452038"/>
    <path id="Path_11019" data-name="Path 11019" d="M352.223,273.573H351s8.559-14.672,17.423-5.771c1.619,1.626-3.216-1.858-7.263-1.1S352.223,273.573,352.223,273.573Z" transform="translate(-160.556 -174.664)" fill="#dd7d6c"/>
    <path id="Path_11020" data-name="Path 11020" d="M362.668,268.834c0,.395-.705-.3-.917,0-.333.47.917,1.834-.917,1.834a1.834,1.834,0,1,1,1.834-1.834Z" transform="translate(-158.775 -174.204)" fill="#f7f6ee"/>
    <path id="Path_11021" data-name="Path 11021" d="M321.668,275.079,318,273.856s8.559-17.118,19.588-6.982c2.031,1.867-7.361-2.8-11.029-.355S321.668,275.079,321.668,275.079Z" transform="translate(-167.905 -174.947)" fill="#cf6859"/>
    <path id="Path_11022" data-name="Path 11022" d="M320,273.615c0-1.223,3.668-7.336,8.559-8.559s11,1.223,12.227,7.336c.537,2.681,0,3.668-1.223,3.668S320,277.283,320,273.615Z" transform="translate(-167.46 -174.705)" fill="#f7f2e8"/>
    <path id="Path_11023" data-name="Path 11023" d="M330.891,265c-1.682.4-4.891,2.445-4.891,4.891S327.223,276,329.668,276s7.336,0,8.559-2.445S335.782,265,333.336,265Z" transform="translate(-166.123 -174.65)" fill="#452038"/>
    <path id="Path_11024" data-name="Path 11024" d="M332.668,267.834c0,.395-.706-.3-.917,0-.333.47.917,1.834-.917,1.834a1.834,1.834,0,1,1,1.834-1.834Z" transform="translate(-165.455 -174.427)" fill="#f7f6ee"/>
    <path id="Path_11025" data-name="Path 11025" d="M316.7,284s-4.891,2.445-3.668,3.668l2.445,2.445" transform="translate(-169.054 -170.418)" fill="none" stroke="#de947b" stroke-miterlimit="10" stroke-width="1"/>
    <path id="Path_11026" data-name="Path 11026" d="M350.561,281.895s-4.891-8.559-3.668-15.895h2.445s0,13.45,3.668,14.672c0,0,9.782,8.559,8.559,13.45-.89,3.558-16.7,4.995-22.008,3.668-4.891-1.223-2.445-11-2.445-11,2.445-2.445,3.668-2.445,6.114-2.445v2.445s-4.891-1.223-4.891,3.668,3.567,6.113,11,6.113c7.336,0,12.873-3.022,7.336-8.559" transform="translate(-163.785 -174.427)" fill="#d67b6a"/>
    <path id="Path_11027" data-name="Path 11027" d="M333.98,265.123a16.41,16.41,0,0,0-3.411-.11c-1.328.325-3.441,2.313-4.182,3.521-1.589,2.592,1.332,6.7.856,5.038C324.8,265.013,333.98,265.123,333.98,265.123Z" transform="translate(-166.144 -174.662)" fill="#281221"/>
    <path id="Path_11028" data-name="Path 11028" d="M320,273.549s0-2.445,3.668-6.113c2.445-2.445,4.585-2.39,4.585-2.39S324.891,266.213,320,273.549Z" transform="translate(-167.46 -174.64)" fill="#d8d6d4"/>
    <path id="Path_11029" data-name="Path 11029" d="M360.189,266.35a4.741,4.741,0,0,0-3.466,5.117c.342,5.459,5.758,5.788,5.233,5.459C354.008,271.938,358.422,266.778,360.189,266.35Z" transform="translate(-159.285 -174.349)" fill="#281221"/>
    <path id="Path_11030" data-name="Path 11030" d="M305.238,338.047s.43-3.782,1.231-4.89c.76-1.05,4.874-6.148,4.874-6.148s-4.9-1.248-7.336,8.559C303.712,336.755,305.238,338.047,305.238,338.047Z" transform="translate(-171.03 -160.852)" fill="#e0e0e0"/>
    <path id="Path_11031" data-name="Path 11031" d="M349.031,336s3.962,3.766,5.037,3.717-.44,1.32-.44,1.32S347.808,338.445,349.031,336Z" transform="translate(-161.032 -158.838)" fill="#e0e0e0"/>
    <path id="Path_11032" data-name="Path 11032" d="M284.419,356s-16.188,2.543-19.71,41.621S245.342,514.07,245.928,526.737s-3.717,81.138-6.456,92.142c0,0-14.183,78.79-17.02,81.578s3.521-.587,3.521-.587,25.432-74.878,22.987-109.113,3.668-95.37,11-114.933c0,0,12.227-103.929,19.563-111.265S284.419,356,284.419,356Z" transform="translate(-189.345 -154.385)" fill="#1c1c1c"/>
    <path id="Path_11033" data-name="Path 11033" d="M310.285,328s-2.445,1.223-1.223,1.223A1.2,1.2,0,0,0,310.285,328Z" transform="translate(-169.972 -160.62)" fill="none" stroke="#b7b7b7" stroke-miterlimit="10" stroke-width="1"/>
    <path id="Path_11034" data-name="Path 11034" d="M330.5,351.231s1.712-6.749,5.135-8.265,16.873-2.739,17.607-3.668c.489-.62,2.934-1.516,2.934-5.184s-4.891-4.891-4.891-4.891-4.215,7.336-6.114,7.336c-17.118,0-14.672,9.782-14.672,9.782a15.163,15.163,0,0,0-4.891-8.559c-4.432-3.815-14.672-9.782-15.9-9.782s-4.891,4.891-3.668,4.891C311.513,332.891,326.831,340.227,330.5,351.231Z" transform="translate(-170.622 -160.62)" fill="#e0e0e0"/>
    <path id="Path_11035" data-name="Path 11035" d="M359.138,335.011c2.445,1.348,4.891,0,6.113,1.348s2.445,1.347,3.668,2.695,2.445,1.347,3.668,4.042,0,0-2.445,4.042c-14.672,24.251-9.782,67.366-9.782,67.366l-2.445,199.278s-17.576-38.734-15.9-44.017c17.118-53.8-1.174-191.854,1.223-198.376S356.693,333.663,359.138,335.011Z" transform="translate(-162.581 -159.068)" fill="#ecbd4f"/>
    <path id="Path_11036" data-name="Path 11036" d="M373.38,346.967,369.223,341s-4.891,3.668-8.754,17.411c-3.312,11.781-4.6,28.562-2.25,84.072.6,14.171,2.445-58.689,4.891-74.584C364.608,358.156,373.38,346.967,373.38,346.967Z" transform="translate(-159.216 -157.725)" fill="#1e1d1d"/>
    <path id="Path_11037" data-name="Path 11037" d="M404.336,460.462l6.113,6.113L397,414s.061,65.964,6.113,59.912C404.336,472.689,402.4,458.529,404.336,460.462Z" transform="translate(-150.312 -141.468)" fill="#1e1d1d"/>
    <path id="Path_11038" data-name="Path 11038" d="M324.5,353.486s3.878-9.275,7.336-11c7.336-3.668,23.231,0,19.734-10.882" transform="translate(-166.458 -159.818)" fill="none" stroke="#b7b7b7" stroke-miterlimit="10" stroke-width="1"/>
    <path id="Path_11039" data-name="Path 11039" d="M306.734,328.5s-3.668,2.445,1.394,4.524c3.553,1.459,19.1,6.725,22.3,17.607" transform="translate(-170.7 -160.509)" fill="none" stroke="#b7b7b7" stroke-miterlimit="10" stroke-width="1"/>
    <path id="Path_11040" data-name="Path 11040" d="M350.407,332.2s3.766,3.619-3.081,10.858S332.36,357.29,332.36,357.29" transform="translate(-164.707 -159.685)" fill="none" stroke="#b7b7b7" stroke-miterlimit="10" stroke-width="1"/>
    <path id="Path_11041" data-name="Path 11041" d="M355.876,339.028c2.9-2.426-14.672,24.454-13.45,40.349l1.712,46.34S329.491,361.134,355.876,339.028Z" transform="translate(-162.987 -158.198)" fill="#b7b7b7"/>
    <path id="Path_11042" data-name="Path 11042" d="M364.724,337.221s-13.181,14.424-12.056,42.55c3.668,91.7-3.668,212.749-3.668,212.749l7.336,23.231s6.413-146.745,3.546-184.333c-5.991-78.546,11.127-89.55,11.127-89.55S369.443,336.243,364.724,337.221Z" transform="translate(-161.002 -158.592)" fill="#dbb025"/>
    <path id="Path_11043" data-name="Path 11043" d="M341,560.056s6.26-25.383,6.8-36.534-4.206-112.923-6.162-150.538c-.636-12.227,20.15-36.681,17.7-37.9s4.744.489,4.744.489-18.194,28.856-18.194,45.973,7.336,141.832,4.891,151.614-6.113,39.126-6.113,39.126Z" transform="translate(-162.783 -159.141)" fill="#ecbd4f"/>
    <path id="Path_11044" data-name="Path 11044" d="M268.2,352.359s5.184-4.01,8.314-1.174A86.8,86.8,0,0,1,297.3,379.307c7.336,15.895,77.03,233.534,77.03,233.534s.721,38.081-1.223,31.79C305.859,426.992,287.519,379.307,268.2,352.359Z" transform="translate(-178.995 -155.683)" fill="#ecbd4f"/>
    <path id="Path_11045" data-name="Path 11045" d="M372.881,607.661s-9.439-30.518-13.45-41.571S309.4,412.617,298.3,374.127c-4.243-14.709-26.689-25.466-23.231-22.008,30.567,30.567,97.815,268.917,97.815,278.774Z" transform="translate(-177.546 -155.394)" fill="#dbb025"/>
    <path id="Path_11046" data-name="Path 11046" d="M294.937,236.382l27.85-1.281s-2.853,79.4-21.212,92.822c0,0,18.681,15.757,29.259,57.511,25.694,101.419-18.323,149.1-18.323,149.1s-2.491-129.573-7.368-139.361-17.085-22.033-28.094-18.382-27.014,31.674-33.7,68.372c-7.284,39.969-10.509,61.169-10.509,61.169S247.8,309.5,280.89,260.644A183.962,183.962,0,0,0,294.937,236.382Z" transform="translate(-186.87 -181.308)" fill="#fff"/>
    <path id="Path_11047" data-name="Path 11047" d="M252,365.458s13.45-29.345,15.895-31.79c.864-.864-7.336,23.231-6.113,23.231,1.729,0,11-29.345,12.227-31.79s-4.059,3.081-7.532,8.265S253.223,353.231,252,365.458Z" transform="translate(-182.603 -161.397)" fill="#b7b7b7"/>
    <path id="Path_11048" data-name="Path 11048" d="M318.708,239s1.113,85.234-26.9,94.147c-26.9,8.559-36.041,55.6-42.794,62.357-1.223,1.223,11.353-70.931,45.24-77.03C302.888,316.921,311.372,242.668,318.708,239Z" transform="translate(-183.285 -180.44)" fill="#e0e0e0"/>
    <path id="Path_11049" data-name="Path 11049" d="M310.786,500.517s18.34-39.126,3.668-128.383C310.6,348.709,290,311,290,311s21.862,31.839,26.9,44.017S345.021,440.605,310.786,500.517Z" transform="translate(-174.14 -164.406)" fill="#e0e0e0"/>
    <path id="Path_11050" data-name="Path 11050" d="M249,397.839s18.34-46.462,28.122-56.244,20.028-6.676,26.288-20.174,12.227-13.45,15.9-81.92" transform="translate(-183.271 -180.328)" fill="none" stroke="#b7b7b7" stroke-miterlimit="10" stroke-width="1"/>
    <path id="Path_11051" data-name="Path 11051" d="M272,350s24.9,7.181,27.511,27.511c3.057,23.843,4.279,130.217,4.279,130.217" transform="translate(-178.149 -155.721)" fill="none" stroke="#b7b7b7" stroke-miterlimit="10" stroke-width="2"/>
    <path id="Path_11052" data-name="Path 11052" d="M290.047,311s29.628,28.528,37.9,83.143c6.113,40.349-3.668,72.139-3.668,72.139s9.782-55.021-7.336-105.152C311.573,345.392,287.015,310.951,290.047,311Z" transform="translate(-174.187 -164.406)" fill="#b7b7b7"/>
    <ellipse id="Ellipse_148" data-name="Ellipse 148" cx="1.5" cy="2" rx="1.5" ry="2" transform="translate(166.219 126.501)" fill="#723938"/>
  </g>
</svg>
