<svg xmlns="http://www.w3.org/2000/svg" width="83.577" height="80" viewBox="0 0 83.577 80">
  <g id="number" transform="translate(-0.013 -8.247)">
    <path id="Path_39" data-name="Path 39" d="M83.515,84.009,69.584,21.316a3.514,3.514,0,0,0-3.4-2.728H55.735A10.391,10.391,0,0,0,49.32,8.94c-1.792-.711-6.086-1.731-11,1.931-4.914-3.661-9.207-2.641-11-1.931a10.391,10.391,0,0,0-6.415,9.648H13.939A3.483,3.483,0,0,0,10.5,21.5L.055,84.192A3.519,3.519,0,0,0,3.49,88.247H80.115a3.518,3.518,0,0,0,3.4-4.238ZM29.888,15.415a2.956,2.956,0,0,1,1.1-.2c1.442,0,3.135.944,4.8,2.716a3.483,3.483,0,0,0,5.072,0c2.113-2.245,4.26-3.159,5.9-2.513a3.378,3.378,0,0,1,2.017,3.173c0,5.865-6.521,11.047-10.429,13.416C35.1,30.019,27.871,24.882,27.871,18.588A3.378,3.378,0,0,1,29.888,15.415Zm-13,10.139h5.648c3.941,8.323,13.709,13.306,14.225,13.564a3.509,3.509,0,0,0,3.115,0c.516-.258,10.284-5.241,14.225-13.564h7.969L52.784,81.281H7.6ZM59.846,81.281l6.826-40.955,9.1,40.955Z" transform="translate(0)" fill="#90599f"/>
    <path id="Path_40" data-name="Path 40" d="M65.368,100.056A3.483,3.483,0,0,0,60,96.585l-10.449,6.966,3.864,5.8,3.759-2.506L55.5,116.9H48v6.966H68.9V116.9H62.56Z" transform="translate(-27.095 -49.548)" fill="#90599f"/>
  </g>
</svg>
