<svg xmlns="http://www.w3.org/2000/svg" width="24.401" height="28.023" viewBox="0 0 24.401 28.023">
  <g id="Group_596" data-name="Group 596" transform="translate(-1901.569 -707.749)">
    <path id="Path_11777" data-name="Path 11777" d="M1922.872,729.742a.82.82,0,0,0,1.119-.284,13.759,13.759,0,0,0,1.979-7v-8.815a.816.816,0,0,0-.489-.745h0l-11.438-5.074a.82.82,0,0,0-.333-.071.8.8,0,0,0-.332.071l-11.323,5.075a.816.816,0,0,0-.484.744v8.817a14.083,14.083,0,0,0,3.538,9.146,12.694,12.694,0,0,0,3.869,3.015,10.688,10.688,0,0,0,4.8,1.155,10.925,10.925,0,0,0,6.5-2.168.816.816,0,0,0-.972-1.3,9.325,9.325,0,0,1-5.53,1.847c-5.533,0-10.57-5.569-10.57-11.684v-8.294l10.513-4.713.123.054,10.495,4.661v8.286a12.115,12.115,0,0,1-1.742,6.17.814.814,0,0,0,.285,1.116Z" fill="#ccd2d4"/>
    <path id="Path_11778" data-name="Path 11778" d="M1914.738,725.771l5.55-7.75a.816.816,0,0,0-1.326-.952l-.29.405v0l-5.21,7.28a.946.946,0,0,1-1.341.115l-3.585-3.5a.816.816,0,1,0-1.139,1.17l3.561,3.475a2.77,2.77,0,0,0,1.8.716c.046,0,.092,0,.138,0A2.592,2.592,0,0,0,1914.738,725.771Z" fill="#ccd2d4"/>
  </g>
</svg>
