<svg xmlns="http://www.w3.org/2000/svg" width="25.083" height="24.907" viewBox="0 0 25.083 24.907">
  <g id="Group_593" data-name="Group 593" transform="translate(-1873.648 -751.592)">
    <path id="Path_11773" data-name="Path 11773" d="M1898.538,767.784a.7.7,0,0,0-.009-.079l-1.894-10.408a3.678,3.678,0,0,0-1.239-1.934.662.662,0,0,0-.149-.092l-5.642-2.622a11.469,11.469,0,0,0-4.768-1.054h-10.4a.734.734,0,0,0-.539.159.7.7,0,0,0,.387,1.234.668.668,0,0,0,.127,0h10.425a10.072,10.072,0,0,1,4.182.928l5.595,2.615a2.294,2.294,0,0,1,.652,1.037l1.1,6.049-.62-.483a7.42,7.42,0,0,0-2.62-1.312l-.18-.049-.035-.182c-.222-1.133-.35-1.745-.383-1.821a.692.692,0,0,0-.38-.382.683.683,0,0,0-.536,0,.7.7,0,0,0-.414.8c.026.1.112.519.211,1.014l.072.358-.365,0a7.44,7.44,0,0,0-5.012,1.968l-.389.359-.108-.519c-.138-.671-.274-1.3-.39-1.818l-.032-.144.094-.113a5.784,5.784,0,0,1,2.307-1.676.712.712,0,0,0,.5-.878.7.7,0,0,0-.986-.429,7.044,7.044,0,0,0-3.258,2.6.685.685,0,0,0-.078.509,71.59,71.59,0,0,1,1.468,8.069,1.334,1.334,0,0,1-1.317,1.337h0a1.284,1.284,0,0,1-1.076-.579l-4.293-8.869a.644.644,0,0,0-.058-.1,2.533,2.533,0,0,0-2.061-1.067h-1.988a.685.685,0,0,0-.448.247.7.7,0,0,0,.475,1.146h1.961a1.131,1.131,0,0,1,.87.407l4.3,8.853a2.7,2.7,0,0,0,2.316,1.347,1.7,1.7,0,0,0,.277-.013l.2-.018.091.183a7.476,7.476,0,0,0,10.028,3.343c.08-.04.159-.082.237-.124a.686.686,0,0,0,.284-.431.7.7,0,0,0-.972-.783,6.077,6.077,0,0,1-8.231-2.438l-.175-.332.162-.156a2.679,2.679,0,0,0,.819-1.921,28.065,28.065,0,0,0-.531-3.7l-.027-.126.072-.106a6.079,6.079,0,0,1,10.8,5.307.71.71,0,0,0,.362.943.7.7,0,0,0,.917-.37.615.615,0,0,0,.038-.115,7.582,7.582,0,0,0,.273-3.545l.19-.04Z" fill="#ccd2d4"/>
    <path id="Path_11774" data-name="Path 11774" d="M1891.431,771.9a.7.7,0,0,0,.7-.7v-4.482a.7.7,0,0,0-.7-.7h0a.716.716,0,0,0-.416.141l-1.594,1.207a.7.7,0,0,0,.859,1.1l.46-.29V771.2A.7.7,0,0,0,1891.431,771.9Z" fill="#ccd2d4"/>
  </g>
</svg>
