<svg xmlns="http://www.w3.org/2000/svg" xmlns:xlink="http://www.w3.org/1999/xlink" width="1519" height="185" viewBox="0 0 1519 185">
  <defs>
    <clipPath id="clip-path">
      <rect id="Rectangle_599" data-name="Rectangle 599" width="1519" height="185" transform="translate(192 3835)" fill="#fff" stroke="#707070" stroke-width="1"/>
    </clipPath>
  </defs>
  <g id="Mask_Group_19" data-name="Mask Group 19" transform="translate(-192 -3835)" clip-path="url(#clip-path)">
    <path id="Path_11202" data-name="Path 11202" d="M-118.386-68.156s529.012-57.4,725.207,0,57.152,196.811,57.152,196.811-222.6,23.27-447.134,29.35c-122.014,3.3-258.679,6.658-327.937-13.6C-307.294,87-118.386-68.156-118.386-68.156Z" transform="translate(318.227 3869.667)" fill="#fff"/>
    <path id="Path_11203" data-name="Path 11203" d="M48,0H1467c26.51,0,48,24.376,48,54.446V815.554c0,30.07-21.49,54.446-48,54.446H48c-26.51,0-48-24.376-48-54.446V54.446C0,24.376,21.49,0,48,0Z" transform="translate(192 3872)" fill="#ffacbe"/>
    <g id="Group_434" data-name="Group 434" transform="translate(-2 675)">
      <path id="Path_10207" data-name="Path 10207" d="M960,320c-25-1-29,59-29,59s-13-26-33-25-34,34-34,34-13-13-27-12-10.76,25.76-10.76,25.76L995,393S985,321,960,320Z" transform="translate(697 2959)" fill="#f895aa" opacity="0.3"/>
      <path id="Path_11196" data-name="Path 11196" d="M960,320c-25-1-29,59-29,59s-13-26-33-25-34,34-34,34-13-13-27-12-10.76,25.76-10.76,25.76L995,393S985,321,960,320Z" transform="translate(-358 3041)" fill="#f895aa" opacity="0.3"/>
      <g id="Group_305" data-name="Group 305" transform="translate(195.16 3052.348)" opacity="0.12">
        <path id="Path_11115" data-name="Path 11115" d="M-1,180s22-39,48-30S28.286,242.714,1,270C-2,273-1,180-1,180Z" fill="#eb617f"/>
        <path id="Path_11116" data-name="Path 11116" d="M6,424S34.618,315.455,69.512,317c67.746,3-14.819,304-14.819,304s62.453-65,79.39-62S9.176,842,9.176,842Z" transform="translate(-7.16)" fill="#eb617f"/>
      </g>
      <g id="Group_328" data-name="Group 328" transform="translate(642 279)" opacity="0.54">
        <g id="Group_326" data-name="Group 326" transform="translate(1888.5 2693.259)">
          <g id="Group_310" data-name="Group 310">
            <circle id="Ellipse_149" data-name="Ellipse 149" cx="3" cy="3" r="3" transform="translate(-903.5 825.5)" fill="#f895aa"/>
          </g>
          <g id="Group_311" data-name="Group 311">
            <path id="Path_11124" data-name="Path 11124" d="M-1006.5,843.5s-11,1-11,10,14,5,14,5S-975.5,848.5-1006.5,843.5Z" fill="#f895aa"/>
          </g>
          <g id="Group_312" data-name="Group 312">
            <path id="Path_11125" data-name="Path 11125" d="M-953.042,848.593l-.257-.193c-.328-.245-8-6.055-7.154-11.316.392-2.427,2.51-4.3,6.295-5.559,1.759-.58,4.752,1.9,6.154,5.122.972,2.235,2.456,7.858-4.757,11.791Zm-.532-16.158a.812.812,0,0,0-.268.04c-3.4,1.134-5.3,2.739-5.624,4.769-.675,4.174,5.2,9.117,6.512,10.157,6.164-3.527,4.883-8.4,4.033-10.355C-950.162,834.2-952.435,832.435-953.574,832.435Z" fill="#f895aa"/>
          </g>
          <g id="Group_313" data-name="Group 313">
            <path id="Path_11126" data-name="Path 11126" d="M-924,862.48S-933.166,844-921,844c1,0,7,16.96-3,18.48" fill="#f895aa"/>
          </g>
          <g id="Group_314" data-name="Group 314">
            <path id="Path_11127" data-name="Path 11127" d="M-923,870s-35-6-32,10S-923,870-923,870Z" fill="#f895aa"/>
          </g>
          <g id="Group_315" data-name="Group 315">
            <path id="Path_11128" data-name="Path 11128" d="M-988.032,872.237a.957.957,0,0,1-.915-.513,8.734,8.734,0,0,1-.473-7.053c2.425-6.866,12.294-11.435,12.712-11.626l.416.91c-.1.045-9.9,4.586-12.186,11.051a7.773,7.773,0,0,0,.421,6.263,3.694,3.694,0,0,0,1.28-.505c3.988-2.2,12.253-10.458,13.789-17.372l.976.216c-1.828,8.229-12.811,18.246-15.817,18.617A1.85,1.85,0,0,1-988.032,872.237Z" fill="#f895aa"/>
          </g>
          <g id="Group_316" data-name="Group 316">
            <path id="Path_11129" data-name="Path 11129" d="M-887.045,913a88.819,88.819,0,0,0-19.636-34.382c-13.938-15.269-40.044-32.712-85.279-29.119l-.08-1c45.666-3.636,72.04,14.024,86.129,29.477a89.832,89.832,0,0,1,19.836,34.782Z" fill="#f895aa"/>
          </g>
          <g id="Group_317" data-name="Group 317">
            <path id="Path_11130" data-name="Path 11130" d="M-946,909s-7-10-15-5S-951,915-946,909Z" fill="#f895aa"/>
          </g>
          <g id="Group_318" data-name="Group 318">
            <path id="Path_11131" data-name="Path 11131" d="M-849,835s-26-75-13-78S-849,835-849,835Z" fill="#f895aa"/>
          </g>
          <g id="Group_319" data-name="Group 319">
            <path id="Path_11132" data-name="Path 11132" d="M-840.48,887.68S-906.5,797.5-916.5,753.5s0-35,0-35,12,7,24,32,54,130,54,130l-1.98,7.18" fill="#f895aa"/>
          </g>
          <g id="Group_320" data-name="Group 320">
            <path id="Path_11133" data-name="Path 11133" d="M-845.224,886.506c-8.091-12.927-44.015-20.442-44.377-20.516l.2-.98c1.495.307,36.705,7.677,45.023,20.965Z" fill="#f895aa"/>
          </g>
          <g id="Group_321" data-name="Group 321">
            <path id="Path_11134" data-name="Path 11134" d="M-840,891h-18c-6,0-39-12-40-28S-847,876-840,891Z" fill="#f895aa"/>
          </g>
          <g id="Group_322" data-name="Group 322">
            <circle id="Ellipse_150" data-name="Ellipse 150" cx="3" cy="3" r="3" transform="translate(-960 926)" fill="#f895aa"/>
          </g>
          <g id="Group_323" data-name="Group 323">
            <path id="Path_11135" data-name="Path 11135" d="M-954.721,925.258c-.076-.267-1.679-6.622,15.508-14.71,17.124-8.062,31.27,6.158,31.411,6.3l-.716.7c-.136-.141-13.8-13.849-30.269-6.1-16.265,7.654-14.985,13.479-14.971,13.537Z" fill="#f895aa"/>
          </g>
          <g id="Group_324" data-name="Group 324">
            <line id="Line_28" data-name="Line 28" x2="67.8" y2="134.16" transform="translate(-909 742)" fill="#dacab8" stroke="#8d539c" stroke-width="1"/>
          </g>
          <g id="Group_325" data-name="Group 325">
            <path id="Path_11136" data-name="Path 11136" d="M-995.731,851.392s-16.839-2.333-20.152,3.147" fill="#f895aa"/>
          </g>
          <g id="Group_327" data-name="Group 327" transform="translate(1.383 -1.157)">
            <path id="Path_11137" data-name="Path 11137" d="M-995.731,851.392s-16.839-2.333-20.152,3.147" fill="#f895aa"/>
          </g>
        </g>
      </g>
      <g id="Group_430" data-name="Group 430" transform="translate(313.07 2160.268)" opacity="0.03">
        <path id="Path_11199" data-name="Path 11199" d="M313.773,1642.657a22.5,22.5,0,0,0-16.851-14.037l-2.965-95.493a19.673,19.673,0,0,0-39.05-2.837L229.5,1675.451a47.637,47.637,0,0,0,9.725,36.895l62.362,78.554V1817a4.256,4.256,0,0,0,8.512,0v-27.585a4.282,4.282,0,0,0-.92-2.649l-63.288-79.718a39.062,39.062,0,0,1-8-30.212l25.4-145.084a11.16,11.16,0,0,1,22.154,1.618l2.958,95.3a22.534,22.534,0,0,0-18.119,24.19c2.051,22.31,9.365,53.762,32.55,76.948a4.259,4.259,0,0,0,6.018-6.029c-21.39-21.379-28.167-50.792-30.089-71.694a14.039,14.039,0,0,1,27.086-6.328c12.823,32.738,41.383,73.844,57.265,95.444,5.652,7.67,9.321,29.735-.5,39.731a4.253,4.253,0,0,0-1.219,2.981V1817a4.256,4.256,0,0,0,8.512,0v-31.442c11.377-13.422,8.163-38.391.066-49.407C354.335,1714.905,326.246,1674.486,313.773,1642.657Z" fill="#fff"/>
        <path id="Path_11200" data-name="Path 11200" d="M778.054,1675.373,752.663,1530.3a19.672,19.672,0,0,0-39.05,2.8l-2.965,95.516a22.5,22.5,0,0,0-16.856,14.037c-12.474,31.852-40.563,72.248-56.2,93.494-8.1,11.016-11.3,35.985.072,49.407V1817a4.256,4.256,0,0,0,8.512,0v-33.082a4.253,4.253,0,0,0-1.219-2.981c-9.825-10-6.151-32.062-.5-39.731,15.876-21.589,44.436-62.684,57.265-95.444a14,14,0,0,1,12.986-9.008,3.707,3.707,0,0,0,.7.012,14.042,14.042,0,0,1,13.4,15.323c-1.923,20.913-8.7,50.327-30.09,71.694a4.259,4.259,0,0,0,6.018,6.029c23.185-23.185,30.5-54.638,32.55-76.948a22.535,22.535,0,0,0-18.114-24.19l2.958-95.326a11.157,11.157,0,0,1,22.149-1.6l25.379,145.007a39.1,39.1,0,0,1-7.974,30.289l-63.288,79.718a4.256,4.256,0,0,0-.926,2.649V1817a4.256,4.256,0,0,0,8.512,0v-26.1l62.363-78.554A47.684,47.684,0,0,0,778.054,1675.373Z" transform="translate(53.366)" fill="#fff"/>
      </g>
    </g>
    <path id="Path_11206" data-name="Path 11206" d="M-1522.667,1246.53v-68.541L1.766,1197.155s0,96.355-5.136,97.348c-166.813,32.261,63.627-51.491-84.3-116.513-119.345-48.483-333.159,108.4-558,116.513C-825.362,1300.985-1522.667,1246.53-1522.667,1246.53Z" transform="translate(1709.667 2621.034)" fill="#fff"/>
  </g>
</svg>
