<svg xmlns="http://www.w3.org/2000/svg" width="79.217" height="85.978" viewBox="0 0 79.217 85.978">
  <g id="_12-pin" data-name="12-pin" transform="translate(-16 -0.979)">
    <path id="Path_41" data-name="Path 41" d="M91.616,14.941H48.4A14.4,14.4,0,1,0,26.8,27.859V68.953H19.6a3.6,3.6,0,0,0-3.6,3.6,14.419,14.419,0,0,0,14.4,14.4H84.415a10.814,10.814,0,0,0,10.8-10.8V18.542A3.6,3.6,0,0,0,91.616,14.941ZM34,8.19a7.2,7.2,0,1,1-7.2,7.2A7.2,7.2,0,0,1,34,8.19ZM30.4,79.755a7.206,7.206,0,0,1-6.235-3.6h46.3a14.336,14.336,0,0,0,1.477,3.6Zm57.612-3.6a3.6,3.6,0,0,1-3.6,3.6,7.21,7.21,0,0,1-7.2-7.2,3.6,3.6,0,0,0-3.6-3.6H34V29.795a14.361,14.361,0,0,0,10.448-4.5l13.014,7.2,3.488-6.3-7.319-4.051H88.016Z" transform="translate(0 0)" fill="#90599f"/>
    <path id="Path_42" data-name="Path 42" d="M83.212,76.462a9.146,9.146,0,0,0-7.469,4.194,9.148,9.148,0,0,0-8.313,2.067A8.7,8.7,0,0,0,65.4,92.211c3.558,8.969,15.92,10.285,17.318,10.4a3.625,3.625,0,0,0,2.993-1.187,27.777,27.777,0,0,0,2.131-2.766,28.031,28.031,0,0,0,2.106,2.766,3.625,3.625,0,0,0,2.993,1.187c1.4-.12,13.76-1.436,17.318-10.4a8.7,8.7,0,0,0-2.025-9.488,9.144,9.144,0,0,0-8.311-2.067,9.361,9.361,0,0,0-6.421-4.126,8.39,8.39,0,0,0-5.681,1.337,8.417,8.417,0,0,0-4.613-1.4Zm-1.71,18.7c-3.12-.615-8.071-2.255-9.4-5.611a1.376,1.376,0,0,1,1.4-1.944,6.076,6.076,0,0,1,2.449.658,3.6,3.6,0,0,0,4.875-1.935c.653-1.648,1.571-2.671,2.4-2.671a1.471,1.471,0,0,1,1.284.974c1.334,3.366-1.119,7.912-3,10.531ZM92.591,83.672c.615.079,1.53.82,2.263,2.663a3.6,3.6,0,0,0,4.875,1.935c1.605-.752,2.975-.868,3.576-.3a1.472,1.472,0,0,1,.267,1.589c-1.332,3.359-6.222,4.989-9.386,5.609a22.06,22.06,0,0,1-2.568-4.623,14.628,14.628,0,0,0,.156-6.656,1.2,1.2,0,0,1,.816-.215Z" transform="translate(-26.824 -41.508)" fill="#90599f"/>
  </g>
</svg>
