<svg xmlns="http://www.w3.org/2000/svg" width="105.217" height="73.094" viewBox="0 0 105.217 73.094">
  <path id="Path_33" data-name="Path 33" d="M103.041,106.664H93.606A17.782,17.782,0,0,0,84.939,95.55l3.494-3.494a4.436,4.436,0,0,0,1.3-3.137V84.483A4.436,4.436,0,0,0,85.3,80.047H67.551a4.436,4.436,0,0,0-4.436,4.436v4.436a4.436,4.436,0,0,0,1.3,3.137l3.473,3.473a17.655,17.655,0,0,0-8.647,11.135h-6.8L26.3,62.368A4.436,4.436,0,0,0,20.222,60.8L8.761,67.57A13.433,13.433,0,0,0,4.064,85.8L22.1,116.359a13.434,13.434,0,0,0,18.226,4.7l5.038-2.976v6.33a8.883,8.883,0,0,0,8.873,8.873H98.6a8.883,8.883,0,0,0,8.873-8.873V111.1a4.436,4.436,0,0,0-4.436-4.436Zm-67.22,6.748a4.492,4.492,0,0,1-3.95.277,4.264,4.264,0,0,1-1.58-1.109c-.1-.111-18.585-31.3-18.585-31.3A4.478,4.478,0,0,1,13.271,75.2L20.914,70.7l22.547,38.2Zm43.2-24.493-2.6,2.6-2.6-2.6Zm-2.6,13.309a8.906,8.906,0,0,1,7.678,4.436H68.728a8.848,8.848,0,0,1,7.7-4.436ZM98.6,124.409H54.242v-8.873H98.6l0,8.873Z" transform="translate(-2.26 -60.187)" fill="#90599f"/>
</svg>
