<svg id="_24-home" data-name="24-home" xmlns="http://www.w3.org/2000/svg" width="83.275" height="76.336" viewBox="0 0 83.275 76.336">
  <path id="Path_30" data-name="Path 30" d="M82,48.013,43.835,16.784a3.467,3.467,0,0,0-4.394,0L1.274,48.013a3.47,3.47,0,0,0,2.2,6.155h6.94v34.7a3.47,3.47,0,0,0,3.47,3.47H69.4a3.47,3.47,0,0,0,3.47-3.47v-34.7h6.94A3.47,3.47,0,0,0,82,48.013ZM69.4,47.228a3.47,3.47,0,0,0-3.47,3.47V85.4H17.35V50.7a3.47,3.47,0,0,0-3.47-3.47h-.689L41.639,23.953,70.086,47.228Z" transform="translate(-0.001 -15.999)" fill="#8f6c38"/>
  <path id="Path_31" data-name="Path 31" d="M62.544,104.462a8.816,8.816,0,0,0-7.2,4.041,8.813,8.813,0,0,0-8.011,1.992,8.385,8.385,0,0,0-1.952,9.143c3.429,8.643,15.341,9.911,16.688,10.027.1.009.2.013.3.013a3.47,3.47,0,0,0,2.586-1.157,26.9,26.9,0,0,0,2.054-2.667,27.261,27.261,0,0,0,2.029,2.667,3.47,3.47,0,0,0,2.586,1.157c.1,0,.2,0,.3-.013,1.347-.116,13.259-1.384,16.688-10.027a8.385,8.385,0,0,0-1.952-9.143A8.817,8.817,0,0,0,78.65,108.5a8.816,8.816,0,0,0-7.2-4.041A8.117,8.117,0,0,0,67,105.82a8.117,8.117,0,0,0-4.453-1.358Zm-1.651,18.024c-3-.593-7.775-2.173-9.059-5.407a1.419,1.419,0,0,1,.258-1.531,1.552,1.552,0,0,1,1.084-.342,5.855,5.855,0,0,1,2.359.633,3.47,3.47,0,0,0,4.7-1.865c.63-1.588,1.515-2.574,2.309-2.574a1.419,1.419,0,0,1,1.237.938C65.067,115.582,62.7,119.963,60.893,122.486Zm12.867-8.509a3.47,3.47,0,0,0,4.7,1.865c1.547-.724,2.867-.836,3.446-.291a1.418,1.418,0,0,1,.258,1.531c-1.284,3.237-6,4.808-9.045,5.405a21.246,21.246,0,0,1-2.472-4.459,14.1,14.1,0,0,0,.15-6.407,1.191,1.191,0,0,1,.658-.217C72.245,111.4,73.13,112.388,73.76,113.977Z" transform="translate(-25.36 -66.093)" fill="#8f6c38"/>
</svg>
