<svg xmlns="http://www.w3.org/2000/svg" xmlns:xlink="http://www.w3.org/1999/xlink" width="771.004" height="558.518" viewBox="0 0 771.004 558.518">
  <defs>
    <linearGradient id="linear-gradient" x1="-2.25" y1="7.11" x2="-2.25" y2="3.899" gradientUnits="objectBoundingBox">
      <stop offset="0" stop-color="#fcbac6"/>
      <stop offset="0.409" stop-color="#fbc3ce"/>
      <stop offset="1" stop-color="#fbdae1"/>
    </linearGradient>
    <linearGradient id="linear-gradient-2" x1="-15.249" y1="12.288" x2="-13.956" y2="12.288" gradientUnits="objectBoundingBox">
      <stop offset="0" stop-color="#fcbac6"/>
      <stop offset="0.43" stop-color="#fbb0be"/>
      <stop offset="1" stop-color="#fb9cb0"/>
    </linearGradient>
    <linearGradient id="linear-gradient-3" x1="-10.518" y1="9.918" x2="-10.518" y2="5.782" xlink:href="#linear-gradient"/>
    <linearGradient id="linear-gradient-4" x1="-7.861" y1="5.636" x2="-6.779" y2="5.636" gradientUnits="objectBoundingBox">
      <stop offset="0" stop-color="#cf2a43"/>
      <stop offset="0.283" stop-color="#d5334c"/>
      <stop offset="0.761" stop-color="#e74e65"/>
      <stop offset="1" stop-color="#f25e74"/>
    </linearGradient>
    <linearGradient id="linear-gradient-5" x1="-7.336" y1="9.348" x2="-6.779" y2="9.348" xlink:href="#linear-gradient-4"/>
    <linearGradient id="linear-gradient-6" x1="-8.825" y1="20.713" x2="-8.825" y2="11.545" xlink:href="#linear-gradient"/>
  </defs>
  <g id="Group_802" data-name="Group 802" transform="translate(51.867 -611.378)">
    <g id="Group_502" data-name="Group 502" transform="translate(-138.32 629)">
      <g id="Group_425" data-name="Group 425" transform="translate(838.621 228.428) rotate(-166)">
        <g id="Group_367" data-name="Group 367" transform="translate(480.017 47.044)" opacity="0.38">
          <path id="Path_11189" data-name="Path 11189" d="M3.574,0A3.574,3.574,0,1,1,0,3.574,3.578,3.578,0,0,1,3.574,0Zm0,5.546A1.973,1.973,0,1,0,1.6,3.574,1.977,1.977,0,0,0,3.574,5.546Z" fill="#c186b8"/>
        </g>
        <g id="Group_368" data-name="Group 368" transform="translate(189.828 112.843)">
          <path id="Path_11190" data-name="Path 11190" d="M3.574,0A3.573,3.573,0,1,1,0,3.573,3.577,3.577,0,0,1,3.574,0Zm0,5.546A1.973,1.973,0,1,0,1.6,3.573,1.977,1.977,0,0,0,3.574,5.546Z" transform="translate(0 0)" fill="#de7b90"/>
        </g>
        <g id="Group_374" data-name="Group 374" transform="translate(264.88 123.556)">
          <g id="Group_369" data-name="Group 369" transform="translate(0.002 4.238)">
            <rect id="Rectangle_167" data-name="Rectangle 167" width="2.677" height="1.846" transform="matrix(-0.707, 0.707, -0.707, -0.707, 3.198, 1.305)" fill="#c181a3"/>
          </g>
          <g id="Group_370" data-name="Group 370" transform="translate(4.236 0)">
            <rect id="Rectangle_168" data-name="Rectangle 168" width="2.679" height="1.849" transform="translate(3.201 1.305) rotate(134.914)" fill="#c181a3"/>
          </g>
          <g id="Group_373" data-name="Group 373" transform="translate(0 0)">
            <g id="Group_371" data-name="Group 371" transform="translate(4.237 4.238)">
              <rect id="Rectangle_169" data-name="Rectangle 169" width="1.846" height="2.677" transform="translate(3.199 1.892) rotate(134.969)" fill="#c181a3"/>
            </g>
            <g id="Group_372" data-name="Group 372" transform="translate(0 0)">
              <rect id="Rectangle_170" data-name="Rectangle 170" width="1.849" height="2.679" transform="matrix(-0.707, 0.707, -0.707, -0.707, 3.202, 1.896)" fill="#c181a3"/>
            </g>
          </g>
        </g>
        <g id="Group_380" data-name="Group 380" transform="translate(400.528 92.718)">
          <g id="Group_375" data-name="Group 375" transform="translate(0.002 4.238)">
            <rect id="Rectangle_171" data-name="Rectangle 171" width="2.677" height="1.846" transform="translate(3.198 1.305) rotate(134.997)" fill="#fff"/>
          </g>
          <g id="Group_376" data-name="Group 376" transform="translate(4.236 0)">
            <rect id="Rectangle_172" data-name="Rectangle 172" width="2.679" height="1.849" transform="translate(3.201 1.306) rotate(134.926)" fill="#fff"/>
          </g>
          <g id="Group_379" data-name="Group 379" transform="translate(0 0)">
            <g id="Group_377" data-name="Group 377" transform="translate(4.237 4.238)">
              <rect id="Rectangle_173" data-name="Rectangle 173" width="1.846" height="2.677" transform="matrix(-0.707, 0.707, -0.707, -0.707, 3.199, 1.892)" fill="#fff"/>
            </g>
            <g id="Group_378" data-name="Group 378" transform="translate(0 0)">
              <rect id="Rectangle_174" data-name="Rectangle 174" width="1.849" height="2.679" transform="translate(3.202 1.896) rotate(135.031)" fill="#fff"/>
            </g>
          </g>
        </g>
        <g id="Group_386" data-name="Group 386" transform="translate(0 71.736)">
          <g id="Group_381" data-name="Group 381" transform="translate(0.002 4.238)">
            <rect id="Rectangle_175" data-name="Rectangle 175" width="2.677" height="1.846" transform="matrix(-0.707, 0.707, -0.707, -0.707, 3.199, 1.306)" fill="#fff"/>
          </g>
          <g id="Group_382" data-name="Group 382" transform="translate(4.236 0)">
            <rect id="Rectangle_176" data-name="Rectangle 176" width="2.679" height="1.849" transform="translate(3.201 1.305) rotate(134.914)" fill="#fff"/>
          </g>
          <g id="Group_385" data-name="Group 385" transform="translate(0 0)">
            <g id="Group_383" data-name="Group 383" transform="translate(4.237 4.238)">
              <rect id="Rectangle_177" data-name="Rectangle 177" width="1.846" height="2.677" transform="translate(3.199 1.892) rotate(134.976)" fill="#fff"/>
            </g>
            <g id="Group_384" data-name="Group 384" transform="translate(0 0)">
              <rect id="Rectangle_178" data-name="Rectangle 178" width="1.849" height="2.679" transform="matrix(-0.707, 0.707, -0.707, -0.707, 3.202, 1.895)" fill="#fff"/>
            </g>
          </g>
        </g>
        <g id="Group_393" data-name="Group 393" transform="translate(639.123 35.355)">
          <g id="Group_392" data-name="Group 392" transform="translate(0 0)">
            <g id="Group_387" data-name="Group 387" transform="translate(0 4.238)">
              <rect id="Rectangle_179" data-name="Rectangle 179" width="2.676" height="1.846" transform="matrix(-0.707, 0.707, -0.707, -0.707, 3.197, 1.306)" fill="#ee77ad"/>
            </g>
            <g id="Group_388" data-name="Group 388" transform="translate(4.234 0)">
              <rect id="Rectangle_180" data-name="Rectangle 180" width="2.681" height="1.846" transform="matrix(-0.707, 0.707, -0.707, -0.707, 3.201, 1.306)" fill="#ee77ad"/>
            </g>
            <g id="Group_391" data-name="Group 391" transform="translate(0 0)">
              <g id="Group_389" data-name="Group 389" transform="translate(4.235 4.237)">
                <rect id="Rectangle_181" data-name="Rectangle 181" width="1.846" height="2.678" transform="matrix(-0.706, 0.708, -0.708, -0.706, 3.2, 1.892)" fill="#ee77ad"/>
              </g>
              <g id="Group_390" data-name="Group 390" transform="translate(0 0)">
                <path id="Path_11191" data-name="Path 11191" d="M1.306,0,3.2,1.9,1.892,3.2,0,1.306Z" fill="#ee77ad"/>
              </g>
            </g>
          </g>
        </g>
        <g id="Group_399" data-name="Group 399" transform="translate(113.324 41.445)">
          <g id="Group_394" data-name="Group 394" transform="translate(0 3.411)">
            <rect id="Rectangle_182" data-name="Rectangle 182" width="2.677" height="1.851" transform="translate(0 0)" fill="#fff"/>
          </g>
          <g id="Group_395" data-name="Group 395" transform="translate(5.991 3.411)">
            <rect id="Rectangle_183" data-name="Rectangle 183" width="2.678" height="1.851" transform="translate(0 0)" fill="#fff"/>
          </g>
          <g id="Group_398" data-name="Group 398" transform="translate(3.41 0)">
            <g id="Group_396" data-name="Group 396" transform="translate(0 5.993)">
              <rect id="Rectangle_184" data-name="Rectangle 184" width="1.848" height="2.678" transform="translate(0 0)" fill="#fff"/>
            </g>
            <g id="Group_397" data-name="Group 397" transform="translate(0 0)">
              <rect id="Rectangle_185" data-name="Rectangle 185" width="1.848" height="2.681" transform="translate(0 0)" fill="#fff"/>
            </g>
          </g>
        </g>
        <g id="Group_405" data-name="Group 405" transform="translate(488.975 102.787)" opacity="0.38">
          <g id="Group_400" data-name="Group 400" transform="translate(0 3.408)">
            <rect id="Rectangle_186" data-name="Rectangle 186" width="2.681" height="1.851" transform="translate(0 0)" fill="#c186b8"/>
          </g>
          <g id="Group_401" data-name="Group 401" transform="translate(5.993 3.408)">
            <rect id="Rectangle_187" data-name="Rectangle 187" width="2.678" height="1.851" transform="translate(0 0)" fill="#c186b8"/>
          </g>
          <g id="Group_404" data-name="Group 404" transform="translate(3.411 0)">
            <g id="Group_402" data-name="Group 402" transform="translate(0 5.989)">
              <rect id="Rectangle_188" data-name="Rectangle 188" width="1.851" height="2.677" transform="translate(0 0)" fill="#c186b8"/>
            </g>
            <g id="Group_403" data-name="Group 403" transform="translate(0 0)">
              <rect id="Rectangle_189" data-name="Rectangle 189" width="1.851" height="2.678" transform="translate(0 0)" fill="#c186b8"/>
            </g>
          </g>
        </g>
        <g id="Group_411" data-name="Group 411" transform="translate(208.725 73.979)">
          <g id="Group_406" data-name="Group 406" transform="translate(0 3.408)">
            <rect id="Rectangle_190" data-name="Rectangle 190" width="2.681" height="1.852" transform="translate(0 0)" fill="#f25e74"/>
          </g>
          <g id="Group_407" data-name="Group 407" transform="translate(5.993 3.408)">
            <rect id="Rectangle_191" data-name="Rectangle 191" width="2.678" height="1.852" transform="translate(0 0)" fill="#f25e74"/>
          </g>
          <g id="Group_410" data-name="Group 410" transform="translate(3.411 0)">
            <g id="Group_408" data-name="Group 408" transform="translate(0 5.989)">
              <rect id="Rectangle_192" data-name="Rectangle 192" width="1.851" height="2.677" transform="translate(0 0)" fill="#f25e74"/>
            </g>
            <g id="Group_409" data-name="Group 409" transform="translate(0 0)">
              <rect id="Rectangle_193" data-name="Rectangle 193" width="1.851" height="2.677" transform="translate(0 0)" fill="#f25e74"/>
            </g>
          </g>
        </g>
        <g id="Group_417" data-name="Group 417" transform="translate(571.246 0)">
          <g id="Group_412" data-name="Group 412" transform="translate(0 3.408)">
            <rect id="Rectangle_194" data-name="Rectangle 194" width="2.681" height="1.852" transform="translate(0 0)" fill="#fff"/>
          </g>
          <g id="Group_413" data-name="Group 413" transform="translate(5.993 3.408)">
            <rect id="Rectangle_195" data-name="Rectangle 195" width="2.677" height="1.852" transform="translate(0 0)" fill="#fff"/>
          </g>
          <g id="Group_416" data-name="Group 416" transform="translate(3.411 0)">
            <g id="Group_414" data-name="Group 414" transform="translate(0 5.989)">
              <rect id="Rectangle_196" data-name="Rectangle 196" width="1.851" height="2.677" transform="translate(0 0)" fill="#fff"/>
            </g>
            <g id="Group_415" data-name="Group 415" transform="translate(0 0)">
              <rect id="Rectangle_197" data-name="Rectangle 197" width="1.851" height="2.677" transform="translate(0 0)" fill="#fff"/>
            </g>
          </g>
        </g>
        <path id="Path_11192" data-name="Path 11192" d="M.583,5.929a2.034,2.034,0,0,0,3.1-.449,2.036,2.036,0,0,0,3.1.449,2,2,0,0,0,.039-2.761L3.68,0,.543,3.168A2,2,0,0,0,.583,5.929Z" transform="translate(333.785 120.933)" fill="#90599f"/>
        <path id="Path_11193" data-name="Path 11193" d="M.583,5.929a2.034,2.034,0,0,0,3.1-.449,2.036,2.036,0,0,0,3.1.449,2,2,0,0,0,.041-2.761L3.68,0,.543,3.168A2,2,0,0,0,.583,5.929Z" transform="translate(603.856 80.718)" fill="#ecac63"/>
        <path id="Path_11194" data-name="Path 11194" d="M.583,5.929a2.035,2.035,0,0,0,3.1-.449,2.034,2.034,0,0,0,3.1.449,2,2,0,0,0,.041-2.761L3.68,0,.543,3.168A2,2,0,0,0,.583,5.929Z" transform="translate(64.477 110.487)" fill="none" stroke="#f6dde2" stroke-miterlimit="10" stroke-width="0.8"/>
        <path id="Path_11195" data-name="Path 11195" d="M.583,5.929a2.034,2.034,0,0,0,3.1-.449,2.034,2.034,0,0,0,3.1.449,2,2,0,0,0,.041-2.761L3.68,0,.543,3.168A2,2,0,0,0,.583,5.929Z" transform="translate(431.63 137.646)" fill="#ee77ad"/>
      </g>
      <g id="Group_366" data-name="Group 366" transform="matrix(0.966, -0.259, 0.259, 0.966, 0, 127.31)">
        <g id="Group_358" data-name="Group 358" transform="translate(491.89 157.861) rotate(135)">
          <path id="Path_11171" data-name="Path 11171" d="M201.723,61.759l-11.77-1.525L188.908,65.4c-14.316-2.933-24.39-5.469-27.158-7.218-16.3-10.294-32.805-30.7-53.126-35.754-11.609-2.89-20.08-3.7-26.267-2.641a30.3,30.3,0,0,0-4.571-5.335C71.7,6.179,56.652-5.984,37.036,3.393,12.277,15.23,19.157,44.206,26.723,53.282c-.324.221-.645.453-.965.69C13.931,56.919-8.335,74.892,3.239,99.1c10.788,22.565,34.775,19.151,42.443,15.685L90.542,93.6c2.839.547,4.812.926,5.034.97,6.223,1.2,12.741,1.4,18.979,2.7l47.844,10.02c1.264.265,7.651,1.5,17.351,3.362l-.933,4.611,11.657,2.092L189.03,124.5l268.264,57.382,5.406-40.154,9.688-45.6L202.6,57.419Z" transform="translate(0 41.372)" fill="#ece1ef" opacity="0.34" style="mix-blend-mode: multiply;isolation: isolate"/>
          <g id="Group_357" data-name="Group 357" transform="translate(3.009 0)">
            <g id="Group_353" data-name="Group 353" transform="translate(54.89 22.937)">
              <path id="Path_11172" data-name="Path 11172" d="M39.423,75.813c6.069,1.826,12.534,2.686,18.605,4.623Q81.317,87.855,104.6,95.277c7.046,2.245,177.579,53.123,184.628,55.368l22.806-46.49S121.762,56.413,108.958,46.36C93.8,34.459,79.45,12.481,59.751,5.38,25.812-6.854,18.22,2.488,14.979,26.2,13.015,40.568-6.069,42.134,1.963,53.7,4.734,57.691,5.23,65.2,9.912,66.889,10.759,67.194,38.559,75.549,39.423,75.813Z" transform="translate(0)" fill="url(#linear-gradient)"/>
              <path id="Path_11173" data-name="Path 11173" d="M.2,34.569c-2.523,20.409,20.028,33.392,25.228,34.2C48.875,72.38,49.15,44.447,50.738,29.142S14.948-7.73,3.471,2.783C-.411,6.339,2.081,19.3.2,34.569Z" transform="translate(28.239 8.325)" fill="url(#linear-gradient-2)"/>
            </g>
            <g id="Group_354" data-name="Group 354" transform="translate(0 0)">
              <path id="Path_11174" data-name="Path 11174" d="M2.057,75.349c-8.9-21.765,13.363-33.982,23.326-34.211C19.236,33.3,14.54,8.337,37.008,1.4c20.171-6.23,33.415,10.019,36.248,16.547l23.61,56.978L37.854,92.851C31.011,94.808,10.048,94.889,2.057,75.349Z" transform="translate(15.981 6.022)" opacity="0.67" fill="url(#linear-gradient-3)" style="mix-blend-mode: multiply;isolation: isolate"/>
              <path id="Path_11175" data-name="Path 11175" d="M1.994,93.857C-7.4,67.629,18.809,51.8,30.324,51.113,23.543,41.781,19.137,11.481,45.365,2.088,68.911-6.344,83.545,12.967,86.55,20.826L111.5,89.475,42.619,113.782C34.637,116.449,10.426,117.4,1.994,93.857Z" transform="translate(0 0)" fill="url(#linear-gradient-4)"/>
              <path id="Path_11176" data-name="Path 11176" d="M111.5,38.362,42.619,62.669c-7.982,2.667-32.192,3.62-40.625-19.926C-7.4,16.516,18.809.685,30.324,0Z" transform="translate(0 51.113)" fill="url(#linear-gradient-5)"/>
            </g>
            <g id="Group_355" data-name="Group 355" transform="translate(79.425 43.835)">
              <path id="Path_11177" data-name="Path 11177" d="M2.006,0s.449.24,1.3.686A20.171,20.171,0,0,0,7.2,2.131c3.536,1.066,9.141,1.1,17.872.358C39.677,1.247,52.488,4.852,63.4,14.7c5.771,5.211,13,10.227,17.829,16.047C87.37,38.16,80.2,46.718,72.211,47.877c-8.094,1.178-15.8,5.347-22.634.729-9.033-6.112-10.851-19.176-19.86-25.358-6.439-4.426-15.964-5-16.626-5.065-4.831-.462-9.924-2.946-11.863-6.715C-.822,7.694-.129,3.516,2.006,0Z" transform="translate(0 0)" fill="url(#linear-gradient-6)"/>
            </g>
            <g id="Group_356" data-name="Group 356" transform="translate(175.013 72.698)">
              <path id="Path_11178" data-name="Path 11178" d="M86.2,16.343,68.862,73.383,0,53.608,16.684,0Z" transform="translate(0 1.512)" fill="#ee78ac"/>
              <path id="Path_11179" data-name="Path 11179" d="M284.773,65.987,20.334,0,10.395,31.942h0L0,65.346l261.024,84.411,9.468-39.395Z" transform="translate(9.218 0)" fill="#98e0e8"/>
            </g>
          </g>
        </g>
      </g>
    </g>
    <g id="Group_695" data-name="Group 695" transform="translate(700.301 857.428) rotate(-166)">
      <g id="Group_367-2" data-name="Group 367" transform="translate(480.017 47.044)" opacity="0.38">
        <path id="Path_11189-2" data-name="Path 11189" d="M3.574,0A3.574,3.574,0,1,1,0,3.574,3.578,3.578,0,0,1,3.574,0Zm0,5.546A1.973,1.973,0,1,0,1.6,3.574,1.977,1.977,0,0,0,3.574,5.546Z" fill="#c186b8"/>
      </g>
      <g id="Group_368-2" data-name="Group 368" transform="translate(189.828 112.843)">
        <path id="Path_11190-2" data-name="Path 11190" d="M3.574,0A3.573,3.573,0,1,1,0,3.573,3.577,3.577,0,0,1,3.574,0Zm0,5.546A1.973,1.973,0,1,0,1.6,3.573,1.977,1.977,0,0,0,3.574,5.546Z" transform="translate(0 0)" fill="#de7b90"/>
      </g>
      <g id="Group_374-2" data-name="Group 374" transform="translate(264.88 123.556)">
        <g id="Group_369-2" data-name="Group 369" transform="translate(0.002 4.238)">
          <rect id="Rectangle_167-2" data-name="Rectangle 167" width="2.677" height="1.846" transform="matrix(-0.707, 0.707, -0.707, -0.707, 3.198, 1.305)" fill="#c181a3"/>
        </g>
        <g id="Group_370-2" data-name="Group 370" transform="translate(4.236 0)">
          <rect id="Rectangle_168-2" data-name="Rectangle 168" width="2.679" height="1.849" transform="translate(3.201 1.305) rotate(134.914)" fill="#c181a3"/>
        </g>
        <g id="Group_373-2" data-name="Group 373" transform="translate(0 0)">
          <g id="Group_371-2" data-name="Group 371" transform="translate(4.237 4.238)">
            <rect id="Rectangle_169-2" data-name="Rectangle 169" width="1.846" height="2.677" transform="translate(3.199 1.892) rotate(134.969)" fill="#c181a3"/>
          </g>
          <g id="Group_372-2" data-name="Group 372" transform="translate(0 0)">
            <rect id="Rectangle_170-2" data-name="Rectangle 170" width="1.849" height="2.679" transform="matrix(-0.707, 0.707, -0.707, -0.707, 3.202, 1.896)" fill="#c181a3"/>
          </g>
        </g>
      </g>
      <g id="Group_380-2" data-name="Group 380" transform="translate(400.528 92.718)">
        <g id="Group_375-2" data-name="Group 375" transform="translate(0.002 4.238)">
          <rect id="Rectangle_171-2" data-name="Rectangle 171" width="2.677" height="1.846" transform="translate(3.198 1.305) rotate(134.997)" fill="#fff"/>
        </g>
        <g id="Group_376-2" data-name="Group 376" transform="translate(4.236 0)">
          <rect id="Rectangle_172-2" data-name="Rectangle 172" width="2.679" height="1.849" transform="translate(3.201 1.306) rotate(134.926)" fill="#fff"/>
        </g>
        <g id="Group_379-2" data-name="Group 379" transform="translate(0 0)">
          <g id="Group_377-2" data-name="Group 377" transform="translate(4.237 4.238)">
            <rect id="Rectangle_173-2" data-name="Rectangle 173" width="1.846" height="2.677" transform="matrix(-0.707, 0.707, -0.707, -0.707, 3.199, 1.892)" fill="#fff"/>
          </g>
          <g id="Group_378-2" data-name="Group 378" transform="translate(0 0)">
            <rect id="Rectangle_174-2" data-name="Rectangle 174" width="1.849" height="2.679" transform="translate(3.202 1.896) rotate(135.031)" fill="#fff"/>
          </g>
        </g>
      </g>
      <g id="Group_386-2" data-name="Group 386" transform="translate(0 71.736)">
        <g id="Group_381-2" data-name="Group 381" transform="translate(0.002 4.238)">
          <rect id="Rectangle_175-2" data-name="Rectangle 175" width="2.677" height="1.846" transform="matrix(-0.707, 0.707, -0.707, -0.707, 3.199, 1.306)" fill="#fff"/>
        </g>
        <g id="Group_382-2" data-name="Group 382" transform="translate(4.236 0)">
          <rect id="Rectangle_176-2" data-name="Rectangle 176" width="2.679" height="1.849" transform="translate(3.201 1.305) rotate(134.914)" fill="#fff"/>
        </g>
        <g id="Group_385-2" data-name="Group 385" transform="translate(0 0)">
          <g id="Group_383-2" data-name="Group 383" transform="translate(4.237 4.238)">
            <rect id="Rectangle_177-2" data-name="Rectangle 177" width="1.846" height="2.677" transform="translate(3.199 1.892) rotate(134.976)" fill="#fff"/>
          </g>
          <g id="Group_384-2" data-name="Group 384" transform="translate(0 0)">
            <rect id="Rectangle_178-2" data-name="Rectangle 178" width="1.849" height="2.679" transform="matrix(-0.707, 0.707, -0.707, -0.707, 3.202, 1.895)" fill="#fff"/>
          </g>
        </g>
      </g>
      <g id="Group_393-2" data-name="Group 393" transform="translate(639.123 35.355)">
        <g id="Group_392-2" data-name="Group 392" transform="translate(0 0)">
          <g id="Group_387-2" data-name="Group 387" transform="translate(0 4.238)">
            <rect id="Rectangle_179-2" data-name="Rectangle 179" width="2.676" height="1.846" transform="matrix(-0.707, 0.707, -0.707, -0.707, 3.197, 1.306)" fill="#ee77ad"/>
          </g>
          <g id="Group_388-2" data-name="Group 388" transform="translate(4.234 0)">
            <rect id="Rectangle_180-2" data-name="Rectangle 180" width="2.681" height="1.846" transform="matrix(-0.707, 0.707, -0.707, -0.707, 3.201, 1.306)" fill="#ee77ad"/>
          </g>
          <g id="Group_391-2" data-name="Group 391" transform="translate(0 0)">
            <g id="Group_389-2" data-name="Group 389" transform="translate(4.235 4.237)">
              <rect id="Rectangle_181-2" data-name="Rectangle 181" width="1.846" height="2.678" transform="matrix(-0.706, 0.708, -0.708, -0.706, 3.2, 1.892)" fill="#ee77ad"/>
            </g>
            <g id="Group_390-2" data-name="Group 390" transform="translate(0 0)">
              <path id="Path_11191-2" data-name="Path 11191" d="M1.306,0,3.2,1.9,1.892,3.2,0,1.306Z" fill="#ee77ad"/>
            </g>
          </g>
        </g>
      </g>
      <g id="Group_399-2" data-name="Group 399" transform="translate(113.324 41.445)">
        <g id="Group_394-2" data-name="Group 394" transform="translate(0 3.411)">
          <rect id="Rectangle_182-2" data-name="Rectangle 182" width="2.677" height="1.851" transform="translate(0 0)" fill="#fff"/>
        </g>
        <g id="Group_395-2" data-name="Group 395" transform="translate(5.991 3.411)">
          <rect id="Rectangle_183-2" data-name="Rectangle 183" width="2.678" height="1.851" transform="translate(0 0)" fill="#fff"/>
        </g>
        <g id="Group_398-2" data-name="Group 398" transform="translate(3.41 0)">
          <g id="Group_396-2" data-name="Group 396" transform="translate(0 5.993)">
            <rect id="Rectangle_184-2" data-name="Rectangle 184" width="1.848" height="2.678" transform="translate(0 0)" fill="#fff"/>
          </g>
          <g id="Group_397-2" data-name="Group 397" transform="translate(0 0)">
            <rect id="Rectangle_185-2" data-name="Rectangle 185" width="1.848" height="2.681" transform="translate(0 0)" fill="#fff"/>
          </g>
        </g>
      </g>
      <g id="Group_405-2" data-name="Group 405" transform="translate(488.975 102.787)" opacity="0.38">
        <g id="Group_400-2" data-name="Group 400" transform="translate(0 3.408)">
          <rect id="Rectangle_186-2" data-name="Rectangle 186" width="2.681" height="1.851" transform="translate(0 0)" fill="#c186b8"/>
        </g>
        <g id="Group_401-2" data-name="Group 401" transform="translate(5.993 3.408)">
          <rect id="Rectangle_187-2" data-name="Rectangle 187" width="2.678" height="1.851" transform="translate(0 0)" fill="#c186b8"/>
        </g>
        <g id="Group_404-2" data-name="Group 404" transform="translate(3.411 0)">
          <g id="Group_402-2" data-name="Group 402" transform="translate(0 5.989)">
            <rect id="Rectangle_188-2" data-name="Rectangle 188" width="1.851" height="2.677" transform="translate(0 0)" fill="#c186b8"/>
          </g>
          <g id="Group_403-2" data-name="Group 403" transform="translate(0 0)">
            <rect id="Rectangle_189-2" data-name="Rectangle 189" width="1.851" height="2.678" transform="translate(0 0)" fill="#c186b8"/>
          </g>
        </g>
      </g>
      <g id="Group_411-2" data-name="Group 411" transform="translate(208.725 73.979)">
        <g id="Group_406-2" data-name="Group 406" transform="translate(0 3.408)">
          <rect id="Rectangle_190-2" data-name="Rectangle 190" width="2.681" height="1.852" transform="translate(0 0)" fill="#f25e74"/>
        </g>
        <g id="Group_407-2" data-name="Group 407" transform="translate(5.993 3.408)">
          <rect id="Rectangle_191-2" data-name="Rectangle 191" width="2.678" height="1.852" transform="translate(0 0)" fill="#f25e74"/>
        </g>
        <g id="Group_410-2" data-name="Group 410" transform="translate(3.411 0)">
          <g id="Group_408-2" data-name="Group 408" transform="translate(0 5.989)">
            <rect id="Rectangle_192-2" data-name="Rectangle 192" width="1.851" height="2.677" transform="translate(0 0)" fill="#f25e74"/>
          </g>
          <g id="Group_409-2" data-name="Group 409" transform="translate(0 0)">
            <rect id="Rectangle_193-2" data-name="Rectangle 193" width="1.851" height="2.677" transform="translate(0 0)" fill="#f25e74"/>
          </g>
        </g>
      </g>
      <g id="Group_417-2" data-name="Group 417" transform="translate(571.246 0)">
        <g id="Group_412-2" data-name="Group 412" transform="translate(0 3.408)">
          <rect id="Rectangle_194-2" data-name="Rectangle 194" width="2.681" height="1.852" transform="translate(0 0)" fill="#fff"/>
        </g>
        <g id="Group_413-2" data-name="Group 413" transform="translate(5.993 3.408)">
          <rect id="Rectangle_195-2" data-name="Rectangle 195" width="2.677" height="1.852" transform="translate(0 0)" fill="#fff"/>
        </g>
        <g id="Group_416-2" data-name="Group 416" transform="translate(3.411 0)">
          <g id="Group_414-2" data-name="Group 414" transform="translate(0 5.989)">
            <rect id="Rectangle_196-2" data-name="Rectangle 196" width="1.851" height="2.677" transform="translate(0 0)" fill="#fff"/>
          </g>
          <g id="Group_415-2" data-name="Group 415" transform="translate(0 0)">
            <rect id="Rectangle_197-2" data-name="Rectangle 197" width="1.851" height="2.677" transform="translate(0 0)" fill="#fff"/>
          </g>
        </g>
      </g>
      <path id="Path_11192-2" data-name="Path 11192" d="M.583,5.929a2.034,2.034,0,0,0,3.1-.449,2.036,2.036,0,0,0,3.1.449,2,2,0,0,0,.039-2.761L3.68,0,.543,3.168A2,2,0,0,0,.583,5.929Z" transform="translate(333.785 120.933)" fill="#90599f"/>
      <path id="Path_11193-2" data-name="Path 11193" d="M.583,5.929a2.034,2.034,0,0,0,3.1-.449,2.036,2.036,0,0,0,3.1.449,2,2,0,0,0,.041-2.761L3.68,0,.543,3.168A2,2,0,0,0,.583,5.929Z" transform="translate(603.856 80.718)" fill="#ecac63"/>
      <path id="Path_11194-2" data-name="Path 11194" d="M.583,5.929a2.035,2.035,0,0,0,3.1-.449,2.034,2.034,0,0,0,3.1.449,2,2,0,0,0,.041-2.761L3.68,0,.543,3.168A2,2,0,0,0,.583,5.929Z" transform="translate(64.477 110.487)" fill="none" stroke="#f6dde2" stroke-miterlimit="10" stroke-width="0.8"/>
      <path id="Path_11195-2" data-name="Path 11195" d="M.583,5.929a2.034,2.034,0,0,0,3.1-.449,2.034,2.034,0,0,0,3.1.449,2,2,0,0,0,.041-2.761L3.68,0,.543,3.168A2,2,0,0,0,.583,5.929Z" transform="translate(431.63 137.646)" fill="#ee77ad"/>
    </g>
  </g>
</svg>
