<svg xmlns="http://www.w3.org/2000/svg" xmlns:xlink="http://www.w3.org/1999/xlink" width="1920" height="1080" viewBox="0 0 1920 1080">
  <defs>
    <linearGradient id="linear-gradient" x1="0.5" x2="0.5" y2="1" gradientUnits="objectBoundingBox">
      <stop offset="0" stop-color="#fff"/>
      <stop offset="1" stop-color="gray"/>
    </linearGradient>
    <clipPath id="clip-Artboard_23">
      <rect width="1920" height="1080"/>
    </clipPath>
  </defs>
  <g id="Artboard_23" data-name="Artboard – 23" clip-path="url(#clip-Artboard_23)">
    <rect width="1920" height="1080" fill="#fff"/>
    <rect id="Rectangle_598" data-name="Rectangle 598" width="960" height="5" transform="translate(960)" fill="#fff"/>
    <path id="Path_12489" data-name="Path 12489" d="M0,0H960V5H0Z" fill="#fff"/>
    <g id="Group_828" data-name="Group 828" transform="translate(967.86 895.552)">
      <path id="Path_11122" data-name="Path 11122" d="M-272.068,1233.767c-25.822,0-50.672-.724-75.863-2.342-5.56-.357-14.876-1.141-27.77-2.229-85.574-7.207-312.89-26.354-398.075.97l-.377-1.175c85.423-27.4,312.916-8.236,398.556-1.022,12.4,1.046,22.2,1.871,27.745,2.227,70.332,4.516,138.115,2.066,231.43-3.694,98.3-6.068,141.488-58.012,141.912-58.536l.958.775c-.429.527-43.922,52.887-142.793,58.99C-176.3,1231.431-225.733,1233.767-272.068,1233.767Z" transform="translate(774.153 -1167.967)" fill="#854e93"/>
    </g>
    <g id="Group_825" data-name="Group 825" transform="translate(10 212.093)">
      <path id="Path_10207" data-name="Path 10207" d="M991.03,320c-30.786-1.231-35.711,72.654-35.711,72.654s-16.008-32.017-40.637-30.786-41.869,41.868-41.869,41.868-16.008-16.009-33.248-14.777-13.25,31.722-13.25,31.722L1034.13,409.9S1021.816,321.234,991.03,320Z" transform="translate(533.056 -470.987)" opacity="0.039" fill="url(#linear-gradient)"/>
      <path id="Path_11196" data-name="Path 11196" d="M991.03,320c-30.786-1.231-35.711,72.654-35.711,72.654s-16.008-32.017-40.637-30.786-41.869,41.868-41.869,41.868-16.008-16.009-33.248-14.777-13.25,31.722-13.25,31.722L1034.13,409.9S1021.816,321.234,991.03,320Z" transform="translate(157.471 -420.499)" opacity="0.039" fill="url(#linear-gradient)"/>
      <g id="Group_305" data-name="Group 305" transform="translate(-23 0.015)" opacity="0.3">
        <path id="Path_11115" data-name="Path 11115" d="M-.963,187.255s27.091-48.026,59.108-36.943S35.1,264.482,1.5,298.083C-2.194,301.777-.963,187.255-.963,187.255Z" transform="translate(1.16 -148.652)" fill="#7d498a"/>
        <path id="Path_11116" data-name="Path 11116" d="M6,448.766S41.241,315.1,84.21,317c83.424,3.694-18.249,374.353-18.249,374.353s76.907-80.043,97.763-76.348S9.911,963.5,9.911,963.5Z" transform="translate(-6 -109.696)" fill="#7d498a"/>
      </g>
      <g id="Group_328" data-name="Group 328" transform="translate(173.631 560.314)" opacity="0.54">
        <g id="Group_326" data-name="Group 326" transform="translate(0 0)">
          <g id="Group_310" data-name="Group 310" transform="translate(140.382 132.697)">
            <ellipse id="Ellipse_149" data-name="Ellipse 149" cx="3.694" cy="3.694" rx="3.694" ry="3.694" fill="#854e93"/>
          </g>
          <g id="Group_311" data-name="Group 311" transform="translate(0 154.862)">
            <path id="Path_11124" data-name="Path 11124" d="M-1003.954,843.5s-13.546,1.231-13.546,12.314,17.24,6.157,17.24,6.157S-965.78,849.657-1003.954,843.5Z" transform="translate(1017.5 -843.5)" fill="#854e93"/>
          </g>
          <g id="Group_312" data-name="Group 312" transform="translate(70.168 140.012)">
            <path id="Path_11125" data-name="Path 11125" d="M-951.312,852.563l-.317-.238c-.4-.3-9.856-7.456-8.81-13.935.483-2.989,3.091-5.291,7.752-6.845,2.166-.714,5.852,2.343,7.578,6.307,1.2,2.752,3.024,9.677-5.858,14.52Zm-.655-19.9a1,1,0,0,0-.33.049c-4.192,1.4-6.522,3.373-6.926,5.873-.831,5.14,6.408,11.227,8.019,12.508,7.59-4.343,6.013-10.346,4.966-12.751C-947.765,834.834-950.564,832.665-951.967,832.665Z" transform="translate(960.519 -831.441)" fill="#854e93"/>
          </g>
          <g id="Group_313" data-name="Group 313" transform="translate(111.06 155.478)">
            <path id="Path_11126" data-name="Path 11126" d="M-923.234,866.757S-934.521,844-919.539,844c1.231,0,8.62,20.885-3.694,22.757" transform="translate(927.312 -844)" fill="#854e93"/>
          </g>
          <g id="Group_314" data-name="Group 314" transform="translate(76.739 186.138)">
            <path id="Path_11127" data-name="Path 11127" d="M-915.552,870.255s-43.1-7.389-39.406,12.314S-915.552,870.255-915.552,870.255Z" transform="translate(955.182 -868.898)" fill="#854e93"/>
          </g>
          <g id="Group_315" data-name="Group 315" transform="translate(33.927 166.616)">
            <path id="Path_11128" data-name="Path 11128" d="M-987.588,876.679a1.178,1.178,0,0,1-1.127-.632,10.755,10.755,0,0,1-.582-8.685c2.986-8.455,15.139-14.081,15.654-14.317l.512,1.121c-.122.055-12.2,5.647-15.006,13.609a9.572,9.572,0,0,0,.518,7.712,4.551,4.551,0,0,0,1.576-.622c4.911-2.7,15.089-12.878,16.98-21.392l1.2.266c-2.251,10.133-15.776,22.469-19.477,22.926A2.281,2.281,0,0,1-987.588,876.679Z" transform="translate(989.949 -853.045)" fill="#854e93"/>
          </g>
          <g id="Group_316" data-name="Group 316" transform="translate(31.352 160.429)">
            <path id="Path_11129" data-name="Path 11129" d="M-862.747,928.037c-.054-.217-5.567-21.948-24.18-42.339-17.164-18.8-49.311-40.282-105.015-35.858l-.1-1.226c56.234-4.478,88.712,17.269,106.061,36.3,18.8,20.62,24.372,42.611,24.427,42.831Z" transform="translate(992.04 -848.021)" fill="#854e93"/>
          </g>
          <g id="Group_317" data-name="Group 317" transform="translate(67.087 227.639)">
            <path id="Path_11130" data-name="Path 11130" d="M-942.061,910.481s-8.62-12.314-18.471-6.157S-948.218,917.87-942.061,910.481Z" transform="translate(963.021 -902.6)" fill="#854e93"/>
          </g>
          <g id="Group_318" data-name="Group 318" transform="translate(187.004 48.244)">
            <path id="Path_11131" data-name="Path 11131" d="M-845.149,853.07s-32.017-92.357-16.008-96.051S-845.149,853.07-845.149,853.07Z" transform="translate(865.64 -756.919)" fill="#854e93"/>
          </g>
          <g id="Group_319" data-name="Group 319" transform="translate(118.901 0)">
            <path id="Path_11132" data-name="Path 11132" d="M-821.859,927.008s-81.3-111.05-93.613-165.233,0-43.1,0-43.1,14.777,8.62,29.554,39.406,66.5,160.085,66.5,160.085l-2.438,8.842" transform="translate(920.944 -717.741)" fill="#854e93"/>
          </g>
          <g id="Group_320" data-name="Group 320" transform="translate(157.498 181.35)">
            <path id="Path_11133" data-name="Path 11133" d="M-834.954,891.481c-9.963-15.919-54.2-25.173-54.647-25.264l.249-1.207c1.841.378,45.2,9.454,55.442,25.817Z" transform="translate(889.601 -865.01)" fill="#854e93"/>
          </g>
          <g id="Group_321" data-name="Group 321" transform="translate(147.138 173.118)">
            <path id="Path_11134" data-name="Path 11134" d="M-826.574,898.562H-848.74c-7.389,0-48.026-14.777-49.257-34.48S-835.194,880.091-826.574,898.562Z" transform="translate(898.014 -858.325)" fill="#854e93"/>
          </g>
          <g id="Group_322" data-name="Group 322" transform="translate(70.807 256.455)">
            <ellipse id="Ellipse_150" data-name="Ellipse 150" cx="3.694" cy="3.694" rx="3.694" ry="3.694" fill="#854e93"/>
          </g>
          <g id="Group_323" data-name="Group 323" transform="translate(77.22 234.382)">
            <path id="Path_11135" data-name="Path 11135" d="M-954.7,929.235c-.094-.329-2.068-8.155,19.1-18.114,21.087-9.928,38.507,7.583,38.68,7.763l-.882.859c-.167-.174-16.99-17.054-37.274-7.509-20.029,9.425-18.453,16.6-18.436,16.67Z" transform="translate(954.792 -908.075)" fill="#854e93"/>
          </g>
          <g id="Group_324" data-name="Group 324" transform="translate(133.61 29.873)">
            <line id="Line_28" data-name="Line 28" x2="83.491" y2="165.208" fill="#dacab8" stroke="#8d539c" stroke-width="1"/>
          </g>
          <g id="Group_325" data-name="Group 325" transform="translate(1.991 163.973)">
            <path id="Path_11136" data-name="Path 11136" d="M-991.067,851.506s-20.736-2.873-24.816,3.875" transform="translate(1015.883 -850.899)" fill="#854e93"/>
          </g>
          <g id="Group_327" data-name="Group 327" transform="translate(3.694 162.548)">
            <path id="Path_11137" data-name="Path 11137" d="M-991.067,851.506s-20.736-2.873-24.816,3.875" transform="translate(1015.883 -850.899)" fill="#8d539c"/>
          </g>
        </g>
      </g>
    </g>
    <path id="Path_12486" data-name="Path 12486" d="M991.03,320c-30.786-1.231-35.711,72.654-35.711,72.654s-16.008-32.017-40.637-30.786-41.869,41.868-41.869,41.868-16.008-16.009-33.248-14.777-13.25,31.722-13.25,31.722L1034.13,409.9S1021.816,321.234,991.03,320Z" transform="translate(-395.361 -291.567)" opacity="0.043" fill="url(#linear-gradient)"/>
    <g id="Group_826" data-name="Group 826" transform="translate(1594.843 741.621)">
      <g id="Group_330" data-name="Group 330" transform="translate(155.874 189.897)" opacity="0.14">
        <ellipse id="Ellipse_151" data-name="Ellipse 151" cx="4.926" cy="4.31" rx="4.926" ry="4.31" transform="translate(0)" fill="#854e93"/>
      </g>
      <g id="Group_331" data-name="Group 331" transform="translate(113.126 175.119)" opacity="0.17">
        <ellipse id="Ellipse_152" data-name="Ellipse 152" cx="3.518" cy="3.079" rx="3.518" ry="3.079" fill="#854e93"/>
      </g>
      <g id="Group_332" data-name="Group 332" transform="translate(71.806 135.515)">
        <path id="Path_11138" data-name="Path 11138" d="M-70.442-295.078a9.541,9.541,0,0,1-4.06-1.2c-6.278-3.138-15.767-12.436-15.767-19.3a6.156,6.156,0,0,1,3.75-5.706,6.9,6.9,0,0,1,6.528-.113c8.148,4.182,11.458,24.339,11.6,25.195l.059.367-.3.223A2.942,2.942,0,0,1-70.442-295.078Zm-12.626-25.855a6.469,6.469,0,0,0-2.9.752,4.879,4.879,0,0,0-3.07,4.606c0,6.18,9.012,15.16,15.086,18.2,1.889.944,3.41,1.279,4.267.952-.523-2.937-3.888-20.29-10.87-23.874A5.444,5.444,0,0,0-83.068-320.933Z" transform="translate(90.269 322.162)" fill="#854e93"/>
      </g>
      <g id="Group_333" data-name="Group 333" transform="translate(49.355 147.412)">
        <path id="Path_11139" data-name="Path 11139" d="M-104.19-303.88a4.315,4.315,0,0,1-4.31-4.31,4.315,4.315,0,0,1,4.31-4.31,4.315,4.315,0,0,1,4.31,4.31A4.315,4.315,0,0,1-104.19-303.88Zm0-7.389a3.083,3.083,0,0,0-3.079,3.079,3.083,3.083,0,0,0,3.079,3.079,3.083,3.083,0,0,0,3.079-3.079A3.083,3.083,0,0,0-104.19-311.269Z" transform="translate(108.5 312.5)" fill="#854e93"/>
      </g>
      <g id="Group_334" data-name="Group 334" transform="translate(34.347 163.384)">
        <path id="Path_11140" data-name="Path 11140" d="M-108.265-262.8l-.985-.739c5.58-7.44,19.538-27.956,17.154-33.468a2.174,2.174,0,0,0-1.952-1.262c-10.514-1.153-25.388,28.328-25.537,28.626l-1.1-.549c.624-1.249,15.357-30.576,26.775-29.3a3.361,3.361,0,0,1,2.946,2C-87.813-290.2-107.428-263.912-108.265-262.8Z" transform="translate(120.688 299.53)" fill="#854e93"/>
      </g>
      <g id="Group_335" data-name="Group 335" transform="translate(66.445 74.503)">
        <path id="Path_11141" data-name="Path 11141" d="M-92.7-234.12l-1.926-1.534c.267-.335,26.695-33.757,29.094-58.951,2.624-27.545-.4-72.425-3.338-75.361l1.741-1.741c4.4,4.4,6.357,53.108,4.05,77.336C-65.546-268.445-91.589-235.509-92.7-234.12Z" transform="translate(94.622 371.707)" fill="#854e93"/>
      </g>
      <g id="Group_336" data-name="Group 336" transform="translate(80.023 33.506)">
        <path id="Path_11142" data-name="Path 11142" d="M-81.634-219.344l-1.962-1.49c.169-.222,16.9-22.49,22.928-50.2,5.566-25.609,25.637-99.9,41.052-112.744C-2.957-397.663,13.07-405,26.735-405v2.463c-13.081,0-28.564,7.14-44.775,20.649-13.817,11.515-33.014,78.221-40.222,111.375C-64.405-242.251-81.463-219.57-81.634-219.344Z" transform="translate(83.596 405)" fill="#854e93"/>
      </g>
      <g id="Group_337" data-name="Group 337" transform="translate(116.381 114.223)">
        <path id="Path_11143" data-name="Path 11143" d="M-47.389-321.8a47.429,47.429,0,0,1-6.682-.479l.175-1.219c12.676,1.81,22.143-1.728,25.9-6.038a7,7,0,0,0,1.74-6.73A2.417,2.417,0,0,0-27.843-338c-5.049-1.788-19.44,7.108-24.556,10.689l-.707-1.01c.772-.539,18.992-13.212,25.674-10.839a3.613,3.613,0,0,1,2.363,2.555,8.176,8.176,0,0,1-2,7.876C-30.894-324.334-38.622-321.8-47.389-321.8Z" transform="translate(54.071 339.452)" fill="#854e93"/>
      </g>
      <g id="Group_338" data-name="Group 338" transform="translate(62.988 95.797)">
        <path id="Path_11144" data-name="Path 11144" d="M-66.115-320.655s3.694-2.463-1.231-11.083S-85.818-357.6-95.669-353.9-71.041-319.424-66.115-320.655Z" transform="translate(97.43 354.415)" fill="#854e93"/>
      </g>
      <g id="Group_339" data-name="Group 339" transform="translate(137.798 62.706)">
        <path id="Path_11145" data-name="Path 11145" d="M-36.679-376.324s37.808-12.085,37.832,1.46S-33.85-364.311-36.679-376.324Z" transform="translate(36.679 381.288)" fill="#854e93"/>
      </g>
      <g id="Group_340" data-name="Group 340" transform="translate(150.615 -0.001)">
        <path id="Path_11146" data-name="Path 11146" d="M-14.851-391.377s-13.572-14.754-11.125-23.379a85.444,85.444,0,0,1,7.359-17.252c1.226-2.465,1.263,18.469,6.194,20.923S-6.239-396.319-14.851-391.377Z" transform="translate(26.271 432.21)" fill="#854e93"/>
      </g>
      <g id="Group_341" data-name="Group 341" transform="translate(76.247 42.595)">
        <path id="Path_11147" data-name="Path 11147" d="M-72.25-372.167s12.947-30.883-9.895-24.611C-95.685-393.06-74.711-370.931-72.25-372.167Z" transform="translate(86.663 397.619)" fill="#854e93"/>
      </g>
      <g id="Group_342" data-name="Group 342" transform="translate(0 35.267)">
        <path id="Path_11148" data-name="Path 11148" d="M-147.349-241.1l-1.231-.011c.054-6.475,1.662-158.643,30.19-162.365,4.92-.64,9.119,2.124,12.476,8.22,7.193,13.063,9.824,41.259,6.706,71.831-3.348,32.829-12.559,61.1-24.64,75.621l-.946-.788c11.93-14.341,21.036-42.362,24.361-74.957,3.093-30.341.518-58.255-6.561-71.112-3.088-5.609-6.87-8.163-11.239-7.593C-145.706-398.674-147.335-242.678-147.349-241.1Z" transform="translate(148.58 403.569)" fill="#854e93"/>
      </g>
    </g>
    <g id="Group_425" data-name="Group 425" transform="translate(463.024 19.447)" opacity="0.234">
      <g id="Group_367" data-name="Group 367" transform="translate(307.352 154.957)" opacity="0.38">
        <path id="Path_11189" data-name="Path 11189" d="M136.469,90.224a5.658,5.658,0,1,1,5.659-5.659A5.665,5.665,0,0,1,136.469,90.224Zm0-8.782a3.124,3.124,0,1,0,3.131,3.123A3.131,3.131,0,0,0,136.469,81.443Z" transform="translate(-130.814 -78.908)" fill="#c186b8"/>
      </g>
      <g id="Group_368" data-name="Group 368" transform="translate(766.819 50.777)">
        <path id="Path_11190" data-name="Path 11190" d="M274.538,41.678a5.657,5.657,0,1,1,5.659-5.657A5.663,5.663,0,0,1,274.538,41.678Zm0-8.782a3.125,3.125,0,1,0,3.131,3.125A3.13,3.13,0,0,0,274.538,32.9Z" transform="translate(-268.883 -30.364)" fill="#de7b90"/>
      </g>
      <g id="Group_374" data-name="Group 374" transform="translate(647.526 33.355)">
        <g id="Group_369" data-name="Group 369" transform="translate(6.709)">
          <rect id="Rectangle_167" data-name="Rectangle 167" width="4.238" height="2.923" transform="matrix(0.707, -0.707, 0.707, 0.707, 0, 2.997)" fill="#c181a3"/>
        </g>
        <g id="Group_370" data-name="Group 370" transform="translate(0 6.703)">
          <rect id="Rectangle_168" data-name="Rectangle 168" width="4.242" height="2.927" transform="translate(0 3.004) rotate(-45.086)" fill="#c181a3"/>
        </g>
        <g id="Group_373" data-name="Group 373" transform="translate(0.002 0)">
          <g id="Group_371" data-name="Group 371" transform="translate(0)">
            <rect id="Rectangle_169" data-name="Rectangle 169" width="2.923" height="4.238" transform="translate(0 2.068) rotate(-45.031)" fill="#c181a3"/>
          </g>
          <g id="Group_372" data-name="Group 372" transform="translate(6.704 6.703)">
            <rect id="Rectangle_170" data-name="Rectangle 170" width="2.927" height="4.242" transform="translate(0 2.069) rotate(-44.973)" fill="#c181a3"/>
          </g>
        </g>
      </g>
      <g id="Group_380" data-name="Group 380" transform="translate(432.749 82.182)">
        <g id="Group_375" data-name="Group 375" transform="translate(6.709)">
          <rect id="Rectangle_171" data-name="Rectangle 171" width="4.239" height="2.923" transform="translate(0 2.997) rotate(-45.003)" fill="#fff"/>
        </g>
        <g id="Group_376" data-name="Group 376" transform="translate(0 6.703)">
          <rect id="Rectangle_172" data-name="Rectangle 172" width="4.243" height="2.927" transform="translate(0 3.004) rotate(-45.074)" fill="#fff"/>
        </g>
        <g id="Group_379" data-name="Group 379" transform="translate(0.002 0)">
          <g id="Group_377" data-name="Group 377" transform="translate(0)">
            <rect id="Rectangle_173" data-name="Rectangle 173" width="2.923" height="4.238" transform="translate(0 2.068) rotate(-45.029)" fill="#fff"/>
          </g>
          <g id="Group_378" data-name="Group 378" transform="translate(6.704 6.703)">
            <rect id="Rectangle_174" data-name="Rectangle 174" width="2.928" height="4.242" transform="matrix(0.707, -0.707, 0.707, 0.707, 0, 2.069)" fill="#fff"/>
          </g>
        </g>
      </g>
      <g id="Group_386" data-name="Group 386" transform="translate(1066.921 115.403)">
        <g id="Group_381" data-name="Group 381" transform="translate(6.709)">
          <rect id="Rectangle_175" data-name="Rectangle 175" width="4.239" height="2.923" transform="matrix(0.707, -0.707, 0.707, 0.707, 0, 2.997)" fill="#fff"/>
        </g>
        <g id="Group_382" data-name="Group 382" transform="translate(0 6.703)">
          <rect id="Rectangle_176" data-name="Rectangle 176" width="4.242" height="2.928" transform="translate(0 3.004) rotate(-45.086)" fill="#fff"/>
        </g>
        <g id="Group_385" data-name="Group 385" transform="translate(0.002 0)">
          <g id="Group_383" data-name="Group 383" transform="translate(0)">
            <rect id="Rectangle_177" data-name="Rectangle 177" width="2.923" height="4.238" transform="translate(0 2.068) rotate(-45.024)" fill="#fff"/>
          </g>
          <g id="Group_384" data-name="Group 384" transform="translate(6.704 6.703)">
            <rect id="Rectangle_178" data-name="Rectangle 178" width="2.928" height="4.242" transform="translate(0 2.069) rotate(-44.973)" fill="#fff"/>
          </g>
        </g>
      </g>
      <g id="Group_393" data-name="Group 393" transform="translate(54.975 173.008)">
        <g id="Group_392" data-name="Group 392" transform="translate(0)">
          <g id="Group_387" data-name="Group 387" transform="translate(6.709 0.001)">
            <rect id="Rectangle_179" data-name="Rectangle 179" width="4.236" height="2.923" transform="translate(0 2.995) rotate(-44.997)" fill="#ee77ad"/>
          </g>
          <g id="Group_388" data-name="Group 388" transform="translate(0 6.705)">
            <rect id="Rectangle_180" data-name="Rectangle 180" width="4.245" height="2.923" transform="matrix(0.707, -0.707, 0.707, 0.707, 0, 3.001)" fill="#ee77ad"/>
          </g>
          <g id="Group_391" data-name="Group 391" transform="translate(0.001)">
            <g id="Group_389" data-name="Group 389" transform="translate(0)">
              <rect id="Rectangle_181" data-name="Rectangle 181" width="2.923" height="4.24" transform="matrix(0.706, -0.708, 0.708, 0.706, 0, 2.069)" fill="#ee77ad"/>
            </g>
            <g id="Group_390" data-name="Group 390" transform="translate(6.708 6.704)">
              <path id="Path_11191" data-name="Path 11191" d="M61.1,95.512l-3-3,2.067-2.067,3,3Z" transform="translate(-58.102 -90.443)" fill="#ee77ad"/>
            </g>
          </g>
        </g>
      </g>
      <g id="Group_399" data-name="Group 399" transform="translate(885.54 161.409)">
        <g id="Group_394" data-name="Group 394" transform="translate(9.486 5.396)">
          <rect id="Rectangle_182" data-name="Rectangle 182" width="4.239" height="2.931" fill="#fff"/>
        </g>
        <g id="Group_395" data-name="Group 395" transform="translate(0 5.396)">
          <rect id="Rectangle_183" data-name="Rectangle 183" width="4.24" height="2.931" fill="#fff"/>
        </g>
        <g id="Group_398" data-name="Group 398" transform="translate(5.402)">
          <g id="Group_396" data-name="Group 396">
            <rect id="Rectangle_184" data-name="Rectangle 184" width="2.926" height="4.24" fill="#fff"/>
          </g>
          <g id="Group_397" data-name="Group 397" transform="translate(0 9.483)">
            <rect id="Rectangle_185" data-name="Rectangle 185" width="2.926" height="4.245" fill="#fff"/>
          </g>
        </g>
      </g>
      <g id="Group_405" data-name="Group 405" transform="translate(290.754 64.291)" opacity="0.38">
        <g id="Group_400" data-name="Group 400" transform="translate(9.483 5.395)">
          <rect id="Rectangle_186" data-name="Rectangle 186" width="4.245" height="2.931" fill="#c186b8"/>
        </g>
        <g id="Group_401" data-name="Group 401" transform="translate(0 5.395)">
          <rect id="Rectangle_187" data-name="Rectangle 187" width="4.24" height="2.931" fill="#c186b8"/>
        </g>
        <g id="Group_404" data-name="Group 404" transform="translate(5.396)">
          <g id="Group_402" data-name="Group 402">
            <rect id="Rectangle_188" data-name="Rectangle 188" width="2.931" height="4.239" fill="#c186b8"/>
          </g>
          <g id="Group_403" data-name="Group 403" transform="translate(0 9.483)">
            <rect id="Rectangle_189" data-name="Rectangle 189" width="2.931" height="4.24" fill="#c186b8"/>
          </g>
        </g>
      </g>
      <g id="Group_411" data-name="Group 411" transform="translate(734.485 109.903)">
        <g id="Group_406" data-name="Group 406" transform="translate(9.483 5.395)">
          <rect id="Rectangle_190" data-name="Rectangle 190" width="4.245" height="2.932" fill="#f25e74"/>
        </g>
        <g id="Group_407" data-name="Group 407" transform="translate(0 5.395)">
          <rect id="Rectangle_191" data-name="Rectangle 191" width="4.24" height="2.932" fill="#f25e74"/>
        </g>
        <g id="Group_410" data-name="Group 410" transform="translate(5.396)">
          <g id="Group_408" data-name="Group 408">
            <rect id="Rectangle_192" data-name="Rectangle 192" width="2.931" height="4.239" fill="#f25e74"/>
          </g>
          <g id="Group_409" data-name="Group 409" transform="translate(0 9.483)">
            <rect id="Rectangle_193" data-name="Rectangle 193" width="2.931" height="4.239" fill="#f25e74"/>
          </g>
        </g>
      </g>
      <g id="Group_417" data-name="Group 417" transform="translate(160.492 227.037)">
        <g id="Group_412" data-name="Group 412" transform="translate(9.483 5.395)">
          <rect id="Rectangle_194" data-name="Rectangle 194" width="4.245" height="2.932" fill="#fff"/>
        </g>
        <g id="Group_413" data-name="Group 413" transform="translate(0 5.395)">
          <rect id="Rectangle_195" data-name="Rectangle 195" width="4.239" height="2.932" fill="#fff"/>
        </g>
        <g id="Group_416" data-name="Group 416" transform="translate(5.395)">
          <g id="Group_414" data-name="Group 414">
            <rect id="Rectangle_196" data-name="Rectangle 196" width="2.931" height="4.239" fill="#fff"/>
          </g>
          <g id="Group_415" data-name="Group 415" transform="translate(0 9.483)">
            <rect id="Rectangle_197" data-name="Rectangle 197" width="2.931" height="4.239" fill="#fff"/>
          </g>
        </g>
      </g>
      <path id="Path_11192" data-name="Path 11192" d="M210.993,25.763c-1.9-1.9-4.369-.268-4.9.71-.537-.979-3-2.614-4.906-.71a3.166,3.166,0,0,0-.062,4.372l4.968,5.015,4.966-5.015A3.166,3.166,0,0,0,210.993,25.763Z" transform="translate(338.286 14.131)" fill="#90599f"/>
      <path id="Path_11193" data-name="Path 11193" d="M91.781,55.433c-1.9-1.9-4.369-.268-4.9.71-.537-.979-3-2.614-4.906-.71a3.169,3.169,0,0,0-.064,4.372l4.97,5.015L91.844,59.8A3.166,3.166,0,0,0,91.781,55.433Z" transform="translate(29.883 48.136)" fill="#ecac63"/>
      <path id="Path_11194" data-name="Path 11194" d="M319.18,33.47c-1.9-1.9-4.367-.268-4.9.71-.534-.979-3-2.614-4.9-.71a3.166,3.166,0,0,0-.064,4.372l4.968,5.015,4.968-5.015A3.166,3.166,0,0,0,319.18,33.47Z" transform="translate(656.504 22.964)" fill="none" stroke="#f6dde2" stroke-miterlimit="10" stroke-width="0.8"/>
      <path id="Path_11195" data-name="Path 11195" d="M164.447,13.433c-1.9-1.9-4.367-.268-4.9.71-.534-.979-3-2.614-4.9-.71a3.166,3.166,0,0,0-.064,4.372l4.968,5.015,4.968-5.015A3.166,3.166,0,0,0,164.447,13.433Z" transform="translate(229.908 0)" fill="#ee77ad"/>
    </g>
  </g>
</svg>
