<svg xmlns="http://www.w3.org/2000/svg" width="69.205" height="67.839" viewBox="0 0 69.205 67.839">
  <g id="Group_558" data-name="Group 558" transform="translate(69.205) rotate(90)">
    <path id="Path_11174" data-name="Path 11174" d="M1.237,11.026C-4.114,24.11,9.27,31.455,15.259,31.592c-3.7,4.714-6.519,19.718,6.988,23.891,12.126,3.745,20.087-6.023,21.791-9.947L58.232,11.283,22.756.5C18.643-.672,6.041-.72,1.237,11.026Z" transform="translate(9.607 9.262)" fill="#ee77ad" opacity="0.67" style="mix-blend-mode: multiply;isolation: isolate"/>
    <path id="Path_11175" data-name="Path 11175" d="M1.2,12.783c-5.647,15.767,10.108,25.284,17.03,25.7C14.153,44.088,11.5,62.3,27.271,67.949c14.155,5.069,22.952-6.54,24.758-11.264l15-41.268L25.62.8C20.822-.8,6.268-1.372,1.2,12.783Z" transform="translate(0 0)" fill="#ee77ad"/>
    <path id="Path_11176" data-name="Path 11176" d="M67.026,15.417,25.62.8C20.822-.8,6.268-1.372,1.2,12.783c-5.647,15.767,10.108,25.284,17.03,25.7Z" transform="translate(0 0)" fill="#ee77ad"/>
  </g>
</svg>
