<?xml version="1.0" standalone="no"?>
<!DOCTYPE svg PUBLIC "-//W3C//DTD SVG 20010904//EN"
 "http://www.w3.org/TR/2001/REC-SVG-20010904/DTD/svg10.dtd">
<svg version="1.0" xmlns="http://www.w3.org/2000/svg"
 width="266.000000pt" height="113.000000pt" viewBox="0 0 266.000000 113.000000"
 preserveAspectRatio="xMidYMid meet">

<g transform="translate(0.000000,113.000000) scale(0.100000,-0.100000)"
fill="#000000" stroke="none">
<path d="M572 1076 l-273 -51 -145 -234 c-79 -128 -144 -235 -144 -236 0 -2
17 -1 38 2 36 5 39 3 75 -48 25 -35 34 -56 27 -63 -16 -16 -12 -25 9 -19 22 6
55 -43 66 -97 11 -51 13 -52 49 -28 l33 22 -48 38 c-57 45 -75 73 -60 92 14
16 2 29 -14 16 -9 -7 -22 5 -48 44 l-36 55 50 10 c27 6 54 11 59 11 6 0 41 31
79 70 75 77 116 96 54 26 -66 -75 -69 -87 -38 -135 15 -22 31 -41 35 -41 4 0
15 11 24 24 28 44 119 128 178 167 50 32 135 70 211 93 16 5 15 10 -12 50 -17
25 -31 49 -31 55 0 6 28 54 63 108 73 114 79 123 75 122 -2 -1 -126 -25 -276
-53z"/>
<path d="M690 687 c-74 -17 -138 -55 -193 -117 -55 -61 -78 -125 -78 -216 0
-98 24 -158 96 -230 51 -51 71 -64 133 -83 126 -41 287 -15 372 59 l35 30 -29
-10 c-46 -17 -147 -15 -203 4 -67 22 -137 84 -159 141 -26 69 -16 197 19 258
66 112 169 118 184 10 11 -85 -40 -173 -125 -218 l-47 -23 40 -17 c30 -13 60
-16 120 -13 99 5 156 33 190 93 34 60 38 90 20 153 -40 137 -207 217 -375 179z"/>
<path d="M2165 621 c-7 -12 12 -24 25 -16 11 7 4 25 -10 25 -5 0 -11 -4 -15
-9z"/>
<path d="M1290 505 l0 -105 70 0 c84 0 94 18 13 22 l-58 3 -3 93 c-4 128 -22
117 -22 -13z"/>
<path d="M1472 537 c-26 -27 -29 -73 -7 -104 19 -27 75 -39 104 -24 26 14 29
36 4 26 -38 -16 -61 -16 -76 0 -28 28 -20 35 41 35 32 0 61 3 65 6 10 10 -14
64 -33 74 -32 17 -75 11 -98 -13z m96 -9 c26 -26 13 -38 -38 -38 -34 0 -50 4
-50 13 0 21 22 37 50 37 14 0 31 -5 38 -12z"/>
<path d="M1652 553 c-24 -10 -1 -22 33 -16 37 6 65 -9 65 -33 0 -10 -13 -14
-43 -14 -48 0 -67 -13 -67 -47 0 -33 41 -51 81 -36 16 6 29 7 29 2 0 -5 5 -9
10 -9 17 0 12 126 -6 144 -15 15 -74 21 -102 9z m95 -89 c6 -18 -26 -44 -53
-44 -32 0 -43 28 -18 47 22 16 66 14 71 -3z"/>
<path d="M1830 480 c0 -64 3 -80 15 -80 11 0 15 13 15 54 0 56 16 86 46 86 8
0 14 5 14 10 0 14 -33 13 -48 -2 -9 -9 -12 -9 -12 0 0 7 -7 12 -15 12 -12 0
-15 -16 -15 -80z"/>
<path d="M1960 480 c0 -47 4 -80 10 -80 6 0 10 21 10 48 0 55 21 92 54 92 35
0 46 -20 46 -82 0 -45 3 -58 15 -58 21 0 21 107 -1 138 -17 24 -61 30 -95 12
-13 -7 -19 -7 -19 0 0 5 -4 10 -10 10 -6 0 -10 -33 -10 -80z"/>
<path d="M2170 480 c0 -47 4 -80 10 -80 6 0 10 33 10 80 0 47 -4 80 -10 80 -6
0 -10 -33 -10 -80z"/>
<path d="M2260 480 c0 -47 4 -80 10 -80 6 0 10 24 10 54 0 60 16 86 54 86 35
0 46 -20 46 -82 0 -47 3 -58 16 -58 25 0 14 128 -12 147 -22 16 -76 17 -92 1
-9 -9 -12 -9 -12 0 0 7 -4 12 -10 12 -6 0 -10 -33 -10 -80z"/>
<path d="M2487 549 c-30 -17 -39 -55 -23 -94 17 -40 54 -54 100 -37 36 14 39
12 27 -21 -12 -32 -46 -42 -86 -27 -17 7 -32 7 -37 2 -13 -13 2 -21 55 -28 40
-6 49 -3 71 19 24 24 26 33 26 112 0 76 -10 108 -23 73 -4 -10 -7 -10 -18 0
-16 15 -67 15 -92 1z m93 -24 c18 -22 15 -66 -6 -82 -56 -41 -127 32 -78 81
20 20 68 21 84 1z"/>
<path d="M1850 195 c0 -96 3 -115 15 -115 9 0 15 9 15 23 0 13 8 31 18 40 17
16 20 14 48 -23 16 -22 37 -40 47 -40 15 0 12 8 -17 44 -20 23 -36 47 -36 51
0 5 12 22 27 37 44 46 4 33 -44 -14 l-43 -42 0 77 c0 62 -3 77 -15 77 -12 0
-15 -19 -15 -115z"/>
<path d="M1324 293 c-37 -7 -59 -40 -48 -70 7 -20 22 -31 58 -43 61 -20 80
-45 51 -66 -20 -15 -58 -14 -99 2 -14 5 -17 3 -14 -7 6 -18 68 -34 102 -25 14
3 33 18 42 31 14 22 15 28 2 47 -8 12 -37 29 -64 37 -41 14 -49 20 -49 41 0
28 34 41 77 29 39 -11 44 7 6 20 -17 6 -34 10 -37 10 -3 -1 -16 -4 -27 -6z"/>
<path d="M1482 217 c-26 -27 -29 -73 -7 -104 19 -27 75 -39 104 -24 26 14 29
36 4 26 -38 -16 -61 -16 -76 0 -28 28 -20 35 41 35 32 0 61 3 65 6 10 10 -14
64 -33 74 -32 17 -75 11 -98 -13z m96 -9 c26 -26 13 -38 -38 -38 -34 0 -50 4
-50 13 0 21 22 37 50 37 14 0 31 -5 38 -12z"/>
<path d="M1672 217 c-26 -27 -29 -73 -7 -104 19 -27 75 -39 104 -24 26 14 29
36 4 26 -38 -16 -61 -16 -76 0 -28 28 -20 35 41 35 32 0 61 3 65 6 10 10 -14
64 -33 74 -32 17 -75 11 -98 -13z m96 -9 c26 -26 13 -38 -38 -38 -34 0 -50 4
-50 13 0 21 22 37 50 37 14 0 31 -5 38 -12z"/>
<path d="M2041 214 c-34 -43 -21 -102 26 -123 30 -14 46 -14 77 0 35 16 23 30
-13 16 -23 -9 -34 -7 -55 6 -41 27 -31 37 39 37 57 0 65 2 65 19 0 10 -9 30
-21 45 -16 20 -29 26 -59 26 -30 0 -43 -6 -59 -26z m97 -6 c26 -26 13 -38 -38
-38 -34 0 -50 4 -50 13 0 21 22 37 50 37 14 0 31 -5 38 -12z"/>
<path d="M2230 160 c0 -47 4 -80 10 -80 6 0 10 24 10 53 0 54 19 87 48 87 7 0
12 5 12 10 0 14 -33 13 -48 -2 -9 -9 -12 -9 -12 0 0 7 -4 12 -10 12 -6 0 -10
-33 -10 -80z"/>
<path d="M2357 227 c-12 -8 -18 -22 -15 -37 2 -20 13 -27 51 -38 51 -14 63
-38 24 -47 -12 -4 -35 -1 -50 4 -21 8 -27 8 -27 -3 0 -30 82 -34 110 -6 28 28
14 51 -42 70 -56 20 -58 45 -3 46 22 0 42 5 45 10 8 15 -73 16 -93 1z"/>
</g>
</svg>
