<svg xmlns="http://www.w3.org/2000/svg" xmlns:xlink="http://www.w3.org/1999/xlink" width="1142.541" height="1056.091" viewBox="0 0 1142.541 1056.091">
  <defs>
    <linearGradient id="linear-gradient" x1="-2.25" y1="7.11" x2="-2.25" y2="3.899" gradientUnits="objectBoundingBox">
      <stop offset="0" stop-color="#fcbac6"/>
      <stop offset="0.409" stop-color="#fbc3ce"/>
      <stop offset="1" stop-color="#fbdae1"/>
    </linearGradient>
    <linearGradient id="linear-gradient-2" x1="-15.249" y1="12.288" x2="-13.956" y2="12.288" gradientUnits="objectBoundingBox">
      <stop offset="0" stop-color="#fcbac6"/>
      <stop offset="0.43" stop-color="#fbb0be"/>
      <stop offset="1" stop-color="#fb9cb0"/>
    </linearGradient>
    <linearGradient id="linear-gradient-3" x1="-10.518" y1="9.918" x2="-10.518" y2="5.782" xlink:href="#linear-gradient"/>
    <linearGradient id="linear-gradient-4" x1="-7.861" y1="5.636" x2="-6.779" y2="5.636" gradientUnits="objectBoundingBox">
      <stop offset="0" stop-color="#cf2a43"/>
      <stop offset="0.283" stop-color="#d5334c"/>
      <stop offset="0.761" stop-color="#e74e65"/>
      <stop offset="1" stop-color="#f25e74"/>
    </linearGradient>
    <linearGradient id="linear-gradient-5" x1="-7.336" y1="9.348" x2="-6.779" y2="9.348" xlink:href="#linear-gradient-4"/>
    <linearGradient id="linear-gradient-6" x1="-8.825" y1="20.713" x2="-8.825" y2="11.545" xlink:href="#linear-gradient"/>
    <linearGradient id="linear-gradient-7" x1="-8.709" y1="52.069" x2="-8.709" y2="35.27" xlink:href="#linear-gradient"/>
    <linearGradient id="linear-gradient-8" x1="-8.94" y1="55.891" x2="-8.94" y2="37.696" xlink:href="#linear-gradient"/>
    <linearGradient id="linear-gradient-9" x1="-9.805" y1="62.088" x2="-9.805" y2="41.623" xlink:href="#linear-gradient"/>
    <linearGradient id="linear-gradient-10" x1="-12.091" y1="71.052" x2="-12.091" y2="47.317" xlink:href="#linear-gradient"/>
    <linearGradient id="linear-gradient-11" x1="-2.303" y1="13.143" x2="-2.303" y2="8.96" xlink:href="#linear-gradient"/>
    <linearGradient id="linear-gradient-12" x1="-120.923" y1="126.903" x2="-119.748" y2="126.903" gradientUnits="objectBoundingBox">
      <stop offset="0" stop-color="#8feeff"/>
      <stop offset="1" stop-color="#33fff9"/>
    </linearGradient>
  </defs>
  <g id="Group_366" data-name="Group 366" transform="matrix(0.809, -0.588, 0.588, 0.809, -86.036, 629.22)">
    <g id="Group_358" data-name="Group 358" transform="translate(478.896 48.092)">
      <path id="Path_11171" data-name="Path 11171" d="M480.157,176.744l-18.635-2.415-1.655,8.181c-22.668-4.643-38.618-8.659-43-11.428-25.8-16.3-51.941-48.6-84.117-56.61-18.381-4.576-31.793-5.862-41.589-4.181a47.974,47.974,0,0,0-7.237-8.446c-9.641-13.1-33.463-32.36-64.522-17.513-39.2,18.741-28.308,64.62-16.328,78.991-.514.35-1.021.717-1.528,1.093-18.727,4.665-53.981,33.122-35.656,71.455,17.082,35.728,55.061,30.322,67.2,24.834l71.029-33.552c4.495.866,7.619,1.466,7.971,1.536,9.854,1.9,20.174,2.211,30.051,4.278l75.753,15.866c2,.42,12.114,2.375,27.472,5.323l-1.477,7.3,18.457,3.313-2.288,11.309,424.753,90.855,8.559-63.578,15.34-72.2L481.547,169.872Z" transform="translate(-160.761 -13.453)" fill="#87488f" opacity="0.55"/>
      <g id="Group_357" data-name="Group 357" transform="translate(4.764)">
        <g id="Group_353" data-name="Group 353" transform="translate(86.91 36.318)">
          <path id="Path_11172" data-name="Path 11172" d="M266.378,185.242c9.609,2.89,19.845,4.253,29.459,7.32q36.873,11.747,73.743,23.5c11.157,3.555,281.167,84.112,292.328,87.667l36.11-73.609s-301.269-75.594-321.543-91.51c-24.007-18.843-46.721-53.641-77.911-64.885-53.737-19.372-65.757-4.58-70.889,32.96-3.111,22.755-33.327,25.233-20.609,43.55,4.387,6.316,5.172,18.2,12.585,20.878C220.992,171.6,265.009,184.824,266.378,185.242Z" transform="translate(-203.957 -65.205)" fill="url(#linear-gradient)"/>
          <path id="Path_11173" data-name="Path 11173" d="M225.336,126.15c-3.994,32.315,31.71,52.871,39.945,54.144,37.13,5.724,37.566-38.5,40.08-62.737s-56.668-58.38-74.84-41.736C224.375,81.452,228.32,101.97,225.336,126.15Z" transform="translate(-180.314 -58.235)" fill="url(#linear-gradient-2)"/>
        </g>
        <g id="Group_354" data-name="Group 354">
          <path id="Path_11174" data-name="Path 11174" d="M178.185,171.888c-14.094-34.461,21.159-53.8,36.933-54.168C205.386,105.3,197.95,65.785,233.525,54.8c31.937-9.864,52.907,15.864,57.393,26.2L328.3,171.211,234.864,199.6C224.03,202.7,190.838,202.826,178.185,171.888Z" transform="translate(-149.625 -43.05)" opacity="0.67" fill="url(#linear-gradient-3)" style="mix-blend-mode: multiply;isolation: isolate"/>
          <path id="Path_11175" data-name="Path 11175" d="M166.163,196.7c-14.873-41.528,26.623-66.593,44.855-67.678-10.736-14.775-17.712-62.75,23.816-77.623,37.281-13.351,60.452,17.224,65.21,29.669l39.5,108.694L230.485,228.248C217.847,232.471,179.514,233.98,166.163,196.7Z" transform="translate(-163.005 -48.092)" fill="url(#linear-gradient-4)"/>
          <path id="Path_11176" data-name="Path 11176" d="M339.54,146.966,230.485,185.453c-12.638,4.223-50.972,5.732-64.323-31.549-14.873-41.528,26.623-66.593,44.855-67.678Z" transform="translate(-163.005 -5.297)" fill="url(#linear-gradient-5)"/>
        </g>
        <g id="Group_355" data-name="Group 355" transform="translate(125.757 69.405)">
          <path id="Path_11177" data-name="Path 11177" d="M225.439,80.8s.711.38,2.052,1.087a31.938,31.938,0,0,0,6.171,2.288c5.6,1.687,14.474,1.738,28.3.567,23.124-1.967,43.408,3.741,60.691,19.342,9.138,8.251,20.583,16.193,28.23,25.407,9.718,11.73-1.63,25.28-14.285,27.116-12.816,1.865-25.01,8.466-35.838,1.154-14.3-9.677-17.182-30.363-31.445-40.15-10.2-7.008-25.276-7.924-26.324-8.02-7.649-.732-15.713-4.665-18.784-10.632C220.961,92.978,222.058,86.363,225.439,80.8Z" transform="translate(-222.262 -80.796)" fill="url(#linear-gradient-6)"/>
        </g>
        <g id="Group_356" data-name="Group 356" transform="translate(277.105 115.106)">
          <path id="Path_11178" data-name="Path 11178" d="M430.069,129.334l-27.458,90.314L293.578,188.338l26.417-84.879Z" transform="translate(-293.578 -101.065)" fill="#ee78ac"/>
          <path id="Path_11179" data-name="Path 11179" d="M751.349,206.81l-418.7-104.48L316.913,152.9h0L300.455,205.8,713.745,339.447l14.991-62.376Z" transform="translate(-285.86 -102.33)" fill="#ee77ad"/>
        </g>
      </g>
    </g>
    <g id="Group_365" data-name="Group 365" transform="translate(-122.726 264.444)">
      <path id="Path_11180" data-name="Path 11180" d="M249.781,303.009l33.264-1.225.019-7.625q14.379-.923,28.769-1.921c25.223-1.755,41.364,10.011,64.573,11.821,12.071.94,21.819,1.388,29.773,1.447a21.087,21.087,0,0,0,8.642-.115c.732-.025,1.479-.051,2.169-.087,23.616-.155,46.061-2.163,70.394-4.387l6.691-.611a8.318,8.318,0,1,0-1.5-16.568l-6.7.613c-14.747,1.348-28.773,2.6-42.8,3.413.057-.163.106-.327.17-.49.514-1.333.983-2.593,1.464-3.869,31.925.072,60.235-1.2,82.1-5.231a9.507,9.507,0,0,0-3.451-18.7c-19.115,3.527-43.894,4.82-72.054,4.928.335-1.078.671-2.156.97-3.177,41.963-1.055,75.995-3.7,91.982-6.587a9.506,9.506,0,1,0-3.383-18.71c-14.9,2.693-45.942,5.159-84.488,6.256.125-1.282.2-2.491.219-3.6,23.2-1.689,45.878-2.958,68.747-3.06a9.506,9.506,0,1,0-.085-19.011c-29.2.129-57.837,2.092-87.542,4.438-6.734-4.391-14.353-3.958-19.826-2.364q-.662,0-1.314.028c2.774-1.549,8.342-3.383,14.639-4.043,13.671-1.428,23.99-2.674,31.167-10.63,3.994-4.425,4.724-11.135.588-15.429-4.334-4.495-4.648-5.52-8.786-.976-4.219,4.635-13.427,5.117-24.089,5.677a166.334,166.334,0,0,0-20.17,1.923,31.99,31.99,0,0,0-4.355.874c-1.988.454-3.99,1-5.989,1.628-17.141,4.953-49.622,16.362-62.181,26.42-9.673,7.748-41.269,9.59-54.191,9.735l.017-6.517L249.972,228.5l.017-6.169L-78.7,206.163l-.229,118.726,328.682-11.736Z" transform="translate(171.879 -111.259)" fill="#87488f"/>
      <g id="Group_364" data-name="Group 364">
        <g id="Group_359" data-name="Group 359" transform="translate(525.233 27.585)">
          <path id="Path_11181" data-name="Path 11181" d="M124.766,183.885c2.672,4.571,5.006,9.115,7.071,12.982.874,1.638,1.708,3.3,2.542,4.97,18.894-2.426,36.818-5.025,54-7.517,35.369-5.134,68.779-9.983,102.8-12.3a9.5,9.5,0,1,0-1.29-18.964c-34.741,2.358-68.5,7.258-104.237,12.445C166.4,178.3,146.207,181.221,124.766,183.885Z" transform="translate(-124.766 -163.036)" fill="url(#linear-gradient-7)"/>
        </g>
        <g id="Group_360" data-name="Group 360" transform="translate(547.629 45.716)">
          <path id="Path_11182" data-name="Path 11182" d="M135.319,188.5q.774,9.445,1.212,18.9c72.576-3.081,138.772-11.129,162.875-17.086a9.506,9.506,0,0,0-4.561-18.457C271.3,177.676,206.462,185.526,135.319,188.5Z" transform="translate(-135.319 -171.579)" fill="url(#linear-gradient-8)"/>
        </g>
        <g id="Group_361" data-name="Group 361" transform="translate(548.924 70.315)">
          <path id="Path_11183" data-name="Path 11183" d="M135.929,196.013q.411,9.509.395,19.009c58.085-1.683,111.126-4.251,146.474-13.122a9.507,9.507,0,0,0-4.626-18.442C244.668,191.868,192.862,194.364,135.929,196.013Z" transform="translate(-135.929 -183.171)" fill="url(#linear-gradient-9)"/>
        </g>
        <g id="Group_362" data-name="Group 362" transform="translate(548.644 96.67)">
          <path id="Path_11184" data-name="Path 11184" d="M136.432,206.219c-.083,5.571-.284,11.133-.635,16.685,39.669,1.08,72.226-3.977,109.246-9.743l6.64-1.034a8.318,8.318,0,0,0-2.551-16.439l-6.651,1.034C206.514,202.327,174.88,207.24,136.432,206.219Z" transform="translate(-135.797 -195.589)" fill="url(#linear-gradient-10)"/>
        </g>
        <path id="Path_11185" data-name="Path 11185" d="M414.6,253.459c20.811-66.281,6.445-63.225-10.9-64.212-3.646-.208-17.818.422-21.114-.274-3.181-.673,5.04-5.554,15.416-7.309,13.555-2.292,23.773-4.189,30.433-12.583,3.705-4.671,4.007-11.413-.393-15.435-4.609-4.213-4.987-5.214-8.828-.418-3.92,4.892-13.077,5.957-23.682,7.19a166.111,166.111,0,0,0-20.006,3.2,32.293,32.293,0,0,0-4.291,1.15q-2.938.866-5.876,2c-16.791,6.027-48.484,19.471-60.382,30.305-9.958,9.066-46.248,12.825-56.422,13.34-35.636,1.808-288.746,19.393-288.746,19.393-25.214,3.033-14.964,78.463,2.177,75.984,69.579-10.1,196.849-22.36,321.785-39.055,25.061-3.349,41.914,7.37,65.191,7.708C421.593,275.492,411.18,264.352,414.6,253.459Z" transform="translate(198.372 -150.038)" fill="url(#linear-gradient-11)"/>
        <g id="Group_363" data-name="Group 363" transform="translate(0 50.847)">
          <path id="Path_11186" data-name="Path 11186" d="M41.9,185.4l4.531,74.371L146.544,249.7l-4.532-74.372Z" transform="translate(307.472 -172.501)" fill="#ee5d9d"/>
          <path id="Path_11187" data-name="Path 11187" d="M-122.726,179.331-28.49,297.182l327.278-32.529L293.268,174Z" transform="translate(122.726 -173.997)" fill="#ee78ac"/>
          <path id="Path_11188" data-name="Path 11188" d="M85.594,200.12c3.141.134,5.558,3.241,5.4,6.935s-2.833,6.581-5.976,6.445-5.558-3.241-5.4-6.935S82.453,199.985,85.594,200.12Z" transform="translate(349.793 -144.686)" fill="url(#linear-gradient-12)"/>
        </g>
      </g>
    </g>
  </g>
</svg>
