<svg xmlns="http://www.w3.org/2000/svg" width="109.513" height="109.513" viewBox="0 0 109.513 109.513">
  <g id="Group_713" data-name="Group 713" transform="translate(-194.584 -1874.33)">
    <g id="Group_696" data-name="Group 696" transform="translate(16 1109)">
      <g id="Group_670" data-name="Group 670" transform="translate(-786 484)">
        <g id="Group_801" data-name="Group 801">
          <path id="Path_11393" data-name="Path 11393" d="M1427.513,237.257a43.321,43.321,0,0,1-16.362,33.882,43.258,43.258,0,1,1,16.362-33.882Z" transform="translate(-364.916 98.83)" fill="none" stroke="#90599f" stroke-width="23" opacity="0.19"/>
          <g id="Group_464" data-name="Group 464" transform="translate(976.256 293.059)">
            <rect id="Rectangle_292" data-name="Rectangle 292" width="86" height="86" rx="43" transform="translate(-0.256 -0.059)" fill="#90599f"/>
          </g>
          <path id="done" d="M16.565,40.117H6.8a3.412,3.412,0,0,1-3.409-3.4V11.049A3.412,3.412,0,0,1,6.8,7.65h5.345V8.5a5.1,5.1,0,1,0,10.2,0V7.65H27.7a3.4,3.4,0,0,1,3.4,3.4V24.138a1.7,1.7,0,0,0,3.4,0V11.049a6.807,6.807,0,0,0-6.8-6.8H22.344V1.7a1.7,1.7,0,0,0-1.7-1.7h-6.8a1.7,1.7,0,0,0-1.7,1.7V4.25H6.8a6.807,6.807,0,0,0-6.8,6.8V36.718a6.807,6.807,0,0,0,6.8,6.8h9.765a1.7,1.7,0,0,0,0-3.4ZM15.545,3.4h3.4V8.5a1.7,1.7,0,0,1-3.4,0ZM11.72,20.314a1.7,1.7,0,0,1-1.7,1.7H9.17a1.7,1.7,0,0,1,0-3.4h.85A1.7,1.7,0,0,1,11.72,20.314Zm15.469,0a1.7,1.7,0,0,1-1.7,1.7H15.97a1.7,1.7,0,0,1,0-3.4h9.519A1.7,1.7,0,0,1,27.189,20.314Zm-15.469,6.8a1.7,1.7,0,0,1-1.7,1.7H9.17a1.7,1.7,0,1,1,0-3.4h.85A1.7,1.7,0,0,1,11.72,27.113Zm15.469,0a1.7,1.7,0,0,1-1.7,1.7H15.97a1.7,1.7,0,0,1,0-3.4h9.519A1.7,1.7,0,0,1,27.189,27.113Zm0,0" transform="translate(1000 314.484)" fill="#fff"/>
        </g>
      </g>
    </g>
    <path id="private_1_" data-name="private (1)" d="M148.5,101a4,4,0,0,0-4.026,3.953v1.6A2.88,2.88,0,0,0,142,109.4v6.557a1.15,1.15,0,0,0,1.15,1.15h10.7a1.15,1.15,0,0,0,1.15-1.15V109.4a2.88,2.88,0,0,0-2.474-2.847v-1.6A4,4,0,0,0,148.5,101Zm0,2.3a1.692,1.692,0,0,1,1.725,1.653v1.568h-3.451v-1.568A1.692,1.692,0,0,1,148.5,103.3Zm4.2,6.1V114.8h-8.4V109.4a.576.576,0,0,1,.575-.575h7.247A.576.576,0,0,1,152.7,109.4Zm-3.048,2.416a1.15,1.15,0,1,1-1.15-1.15A1.15,1.15,0,0,1,149.649,111.813Z" transform="translate(110.002 1836.898)" fill="#fff"/>
  </g>
</svg>
