<svg xmlns="http://www.w3.org/2000/svg" width="19.449" height="14.841" viewBox="0 0 19.449 14.841">
  <path id="Path_12179" data-name="Path 12179" d="M691.64,377.23a1.568,1.568,0,0,0-.671-1.007,1.59,1.59,0,0,0-2.144.361l-7.672,10.724a.882.882,0,0,1-1.229.127l-5.014-4.892a1.65,1.65,0,0,0-1.126-.449,1.582,1.582,0,0,0-1.083,2.716l4.992,4.874a4.325,4.325,0,0,0,2.818,1.114c.076,0,.153,0,.223-.006a4.078,4.078,0,0,0,2.882-1.5l7.788-10.873A1.574,1.574,0,0,0,691.64,377.23Z" transform="translate(-672.222 -375.958)" fill="#90599f"/>
</svg>
