<svg xmlns="http://www.w3.org/2000/svg" xmlns:xlink="http://www.w3.org/1999/xlink" width="152" height="152" viewBox="0 0 152 152">
  <defs>
    <clipPath id="clip-path">
      <rect id="Rectangle_506" data-name="Rectangle 506" width="152" height="152" rx="40" fill="#c4c4c4" opacity="0.41"/>
    </clipPath>
  </defs>
  <g id="Mask_Group_18" data-name="Mask Group 18" clip-path="url(#clip-path)">
    <g id="woman" transform="translate(-31 14.078)">
      <path id="Path_10795" data-name="Path 10795" d="M534.794,1050.848a172.792,172.792,0,0,0,31.93,3.041c.76,0,.76.76,2.281-3.8s-40.292-15.965-40.292-15.965L508.947,1025v25.848l6.842-.76,3.041-15.965,9.883,3.041S528.713,1046.286,534.794,1050.848Z" transform="translate(-471.696 -430.122)" fill="#bea69a"/>
      <path id="Path_10797" data-name="Path 10797" d="M507.753,385s13.137,14.475,17.972,23.2,17,26.973,17,26.973a5.376,5.376,0,0,1,.152,7.329c-3.193,4.075-16.026,18.367-15.691,22.624s1,9.305,2.19,10.582l1.186,1.277s0,5.322-2.281,9.123,1.521,6.842-.76,9.123l-2.281,2.281s0,3.041-.76,3.8S530.56,518.8,530.56,518.8s35.731,121.636,38.772,152.046c0,0,10.643,56.257,9.123,78.3s-9.883,76.783-9.123,93.508,3.041,25.088,3.041,25.088-.5,4.383-1.521,5.322c-9.883,9.123,8.363,13.684,8.363,13.684s-16.667,12.43-60.818,12.164c-19.793-.119-30.039-.685-47.894-6.842-22.047-7.6-66.14-24.327-74.5-19.766,0,0,6.082-123.917,19.766-164.969L440.853,600.9l-8.362-6.082,4.561-111.753s9.883-28.128,9.883-41.052,3.041-41.812,7.6-46.374,35.731-3.8,35.731-3.8Z" transform="translate(-396 -276.668)" fill="#f7f4eb"/>
      <path id="Path_10798" data-name="Path 10798" d="M457.2,262.993s13.684,1.52,20.526,19.006a20.626,20.626,0,0,1-2.281,8.362l-6.082,12.164s4.561,19.766,3.041,25.848-3.8,10.643-6.082,12.164c0,0,0,3.8-2.281,6.082s-16.725,19.006-19.006,24.327L432.114,354.98s-1.46-17.82,6.082-19.766C438.2,335.214,451.88,261.472,457.2,262.993Z" transform="translate(-321.881 -247.408)" fill="#7e302e"/>
      <path id="Path_10799" data-name="Path 10799" d="M491.052,272.309s-5.608-3.072-5.608-2.311-3.887,5.94-6.928,8.981-14.072,10.816-16.353,10.816-1.52,15.2.76,21.286c0,0,8.363,16.725,6.082,25.088a28.474,28.474,0,0,1-15.965,19.006,11.633,11.633,0,0,0-3.041,7.6v4.561l26.608,30.409s2.281-21.286-9.883-39.532c0,0,.76-10.643,1.52-12.924s0-5.322,5.322-9.123c0,0,9.123,2.281,17.485,1.52,0,0,5.322-19.006,5.322-20.526v-5.322s3.041-1.4,3.041-3.8c0-.76-.76-1.52-3.8-4.561s2.281-11.4,1.52-15.965S491.052,272.309,491.052,272.309Z" transform="translate(-357.252 -248.362)" fill="#efae90"/>
      <path id="Path_10800" data-name="Path 10800" d="M480.919,300.891a6.017,6.017,0,0,1,1.521,5.322c-.76,3.041-2.281,3.8-2.281,3.8s-8.362-.76-8.362-3.8S479.4,299.37,480.919,300.891Z" transform="translate(-357.002 -256.418)" fill="#f3f0e7"/>
      <path id="Path_10801" data-name="Path 10801" d="M456.812,308.842s3.8-.76,2.281-6.842c0,0-4.389,2.327-4.561,3.8C454.421,306.745,456.812,308.842,456.812,308.842Z" transform="translate(-320.731 -256.766)" fill="#f8f1e9"/>
      <path id="Path_10802" data-name="Path 10802" d="M469.445,335.812s1.962-1.079.76-2.281c-.76-.76-1.422-1.181-3.8-1.52a18.767,18.767,0,0,1-8.362-3.041c-2.15-1.075,2.346,7.418,6.842,9.123C469.166,339.717,470.2,338.853,469.445,335.812Z" transform="translate(-334.124 -263.211)" fill="#f7f3e8"/>
      <path id="Path_10803" data-name="Path 10803" d="M450.673,304s-.76,3.8,8.606,11.586c.234.195,2.213,3.778-1.232,4.789-3.159.928-3.109.846-4.713-.03" transform="translate(-318.393 -257.246)" fill="none" stroke="#dc866d" stroke-miterlimit="10" stroke-width="1"/>
      <path id="Path_10804" data-name="Path 10804" d="M463.488,324.967s.907-1.187-.76-1.52c-1.9-.38-1.52,0-1.52,0A1.9,1.9,0,0,0,463.488,324.967Z" transform="translate(-330.068 -261.868)" fill="#cf6859"/>
      <rect id="Rectangle_155" data-name="Rectangle 155" width="3" height="3" transform="translate(130.999 76.923)" fill="#dc9174"/>
      <path id="Path_10805" data-name="Path 10805" d="M484.324,321.714c1.2.686,1.52,3.8-1.52,5.322-3.662,1.831-6.657.737-6.842,0A5.442,5.442,0,0,1,484.324,321.714Z" transform="translate(-362.687 -261.276)" fill="#e39277"/>
      <path id="Path_10806" data-name="Path 10806" d="M486.761,321.041S484.481,318,481.44,318s-6.082,3.041-5.322,6.082c0,0,2.281-4.561,5.322-4.561S484.481,320.281,486.761,321.041Z" transform="translate(-364.365 -260.603)" fill="#e39277"/>
      <path id="Path_10807" data-name="Path 10807" d="M482.665,287.821c0,.76-1.52,4.561-3.041,4.561s-4.561-.76-6.842.76l-4.561,3.041s-3.579.359,1.52-3.041c4.561-3.041,3.8-2.281,4.561-2.281h5.322c.76-.76,1.1-2.55,1.521-3.041C482.1,286.71,482.665,287.526,482.665,287.821Z" transform="translate(-353.426 -253.231)" fill="#c17c5b"/>
      <path id="Path_10808" data-name="Path 10808" d="M453,289.94s3.041-.76,3.8.76l.76,1.521s-.76-1.521-4.561-.76Z" transform="translate(-317.68 -253.829)" fill="#c17c5b"/>
      <path id="Path_10809" data-name="Path 10809" d="M442.2,319.99c.149-.746,1.52,12.164,1.52,15.2s1.52,9.123-3.041,14.444C440.68,349.639,441.44,323.791,442.2,319.99Z" transform="translate(-294.716 -261.073)" fill="#602223"/>
      <path id="Path_10810" data-name="Path 10810" d="M503.986,358a7.545,7.545,0,0,0-4.577,5.975c-.745,4.668-3.786,13.03-2.266,16.071,0,0,8.879,18.55,9.381,26.76s.5,12.772.5,12.772l-26.608-30.409s-2.281-8.758,3.8-12.741c0,0,12.164-6.264,15.2-18.428Z" transform="translate(-387.671 -270.194)" fill="#ecab8b"/>
      <path id="Path_10811" data-name="Path 10811" d="M491.034,357.94s-4.713,3.087-5.474,11.449-.76,17.485-.76,17.485" transform="translate(-375.327 -270.179)" fill="none" stroke="#cf6859" stroke-miterlimit="10" stroke-width="1" opacity="0.29"/>
      <path id="Path_10812" data-name="Path 10812" d="M465.784,285.8s-8.743-10.263-10.263-11.023l-1.52-.76,1.52-1.521s3.345,1.064,3.953.912a6.685,6.685,0,0,1,1.368-.152S465.023,281.243,465.784,285.8Z" transform="translate(-326.662 -249.693)" fill="#e3987b"/>
      <path id="Path_10813" data-name="Path 10813" d="M566.039,266.827s1.52-12.164-.76-15.965-8.362-8.363-12.924-8.363-10.242,1.119-13.684,4.561c-.76.76-16.725-.76-22.047.76s-7.6,1.52-6.842,6.842,1.52,9.883.76,10.643-18.245,18.246-19.006,20.526-1.52,9.883.76,19.006,3.041,16.725,1.52,19.766-5.322,6.842-11.4,9.123-16.725,10.643-19.766,15.2-3.8,15.965-3.8,15.965l17.485,5.322s5.769-9.839,5.322-7.6c-.38,1.9,1.14,9.5,1.14,9.5s37.865,3.948,39.912,1.9c3.421-3.421-4.181-21.666,6.462-25.468,0,0,17.145-13.586,12.924-28.889-6.082-22.047-9.309-29.129-1.52-34.97,12.164-9.123,17.014-14.551,18.246-18.245S566.039,266.827,566.039,266.827Z" transform="translate(-431.099 -242.5)" fill="#7e302e"/>
      <path id="Path_10814" data-name="Path 10814" d="M479.2,360.46s-4.06,2.311-4.82,5.352-.76,12.164-3.8,15.2-3.421,4.941-3.421,4.941" transform="translate(-350.085 -270.784)" fill="none" stroke="#b96f3e" stroke-miterlimit="10" stroke-width="2"/>
      <path id="Path_10815" data-name="Path 10815" d="M487.487,358.48a16.066,16.066,0,0,0-3.619,7.617c-.76,4.561-2.129,14.277-2.129,14.277" transform="translate(-369.454 -270.309)" fill="none" stroke="#b96f3e" stroke-miterlimit="10" stroke-width="2"/>
      <path id="Path_10816" data-name="Path 10816" d="M445.3,271.5s9.883,3.8,10.643,9.883-1.52,10.643-1.52,25.087" transform="translate(-310.355 -249.453)" fill="none" stroke="#b96f3e" stroke-miterlimit="10" stroke-width="2"/>
      <path id="Path_10817" data-name="Path 10817" d="M486.028,385.628C483.441,368.143,491.2,357.5,491.2,357.5" transform="translate(-376.027 -270.074)" fill="none" stroke="#cf6859" stroke-miterlimit="10" stroke-width="2" opacity="0.21"/>
      <path id="Path_10818" data-name="Path 10818" d="M501.4,389.335a17.212,17.212,0,0,1,2.858,6.508c.76,3.8,3.041,9.883,3.041,15.2,0,0-.537.909-.76.76-6.842-4.561-18.245-15.965-22.472-22.29-.272-.408.426-.517.426-.517s19.766,21.286,21.286,20.526c.962-.48-3.8-16.725-3.8-16.725Z" transform="translate(-390.981 -277.627)" fill="#f7e5d9"/>
      <path id="Path_10819" data-name="Path 10819" d="M424.567,439.368C420.75,434.058,401,412,401,412s17.485,27.368,18.245,28.889.76,6.842-1.52,9.883S405.561,463.7,404.8,466.736,401,478.9,407.842,482.7l1.521-12.924s15.2,15.2,19.006,17.485,17.485,9.123,17.485,9.123,6.842-18.245,6.842-22.047.76-10.643.76-10.643S442.052,463.7,424.567,439.368Z" transform="translate(-274.042 -283.142)" fill="#e1d8d1"/>
      <path id="Path_10820" data-name="Path 10820" d="M423.229,479.32s-.182,8.879-2.463,11.92-3.041,6.082-6.082,7.6S401,501.884,401,501.884s1,1.673,5.443,4.257,12.8,6.386,12.8,6.386a26.01,26.01,0,0,1,1.521-8.363c1.52-3.8,3.892-8.407,4.561-11.4.706-3.159.76-12.924.76-12.924Z" transform="translate(-246.674 -299.283)" fill="#d0c7c2"/>
      <path id="Path_10821" data-name="Path 10821" d="M447.491,515.608s-13.806-7.541-16.786-9.852S411.76,492.041,411,489" transform="translate(-275.679 -301.604)" fill="none" stroke="#cab7a8" stroke-miterlimit="10" stroke-width="1"/>
      <path id="Path_10822" data-name="Path 10822" d="M425.343,466.36s-8.575,6.568-7.815,7.329,12.559-2.585,12.559-2.585S425.556,467.394,425.343,466.36Z" transform="translate(-263.202 -296.175)" fill="#d1c6c2"/>
      <path id="Path_10823" data-name="Path 10823" d="M556.772,416.175v4.561s-6.842,3.041-9.123,3.8-18.245,3.041-21.286,3.8S518,430.619,518,433.66s.583-20.173.973-20.1C537.006,416.935,552.21,416.175,556.772,416.175Z" transform="translate(-466.304 -283.515)" fill="#e2dbd5"/>
      <path id="Path_10824" data-name="Path 10824" d="M547.809,430.5s-4.181,26.988,6.462,37.631" transform="translate(-485.851 -287.577)" fill="none" stroke="#f4ede5" stroke-miterlimit="10" stroke-width="1"/>
      <path id="Path_10825" data-name="Path 10825" d="M558.388,451.5s4.561,13.684,3.8,19.006-2.281,12.164-2.281,12.164" transform="translate(-502.511 -292.613)" fill="none" stroke="#f4ede5" stroke-miterlimit="10" stroke-width="1"/>
      <path id="Path_10826" data-name="Path 10826" d="M471.414,399l27.748,33.07s6.082,6.842,5.322,9.883-6.213,13.185-8.362,17.485c-3.8,7.6-1.14,28.509-.38,30.789" transform="translate(-378.666 -280.024)" fill="none" stroke="#dfd6cf" stroke-miterlimit="10" stroke-width="2"/>
      <path id="Path_10827" data-name="Path 10827" d="M479.115,389s11.784,14.824,9.5,39.912" transform="translate(-368.882 -277.627)" fill="none" stroke="#dfd6cf" stroke-miterlimit="10" stroke-width="2"/>
      <path id="Path_10828" data-name="Path 10828" d="M526.8,500.8l-2.281,3.041L467.5,506.88s14.444-60.058,18.245-65.38c0,0,3.421,34.59,11.023,45.233C507.465,501.709,526.8,500.8,526.8,500.8Z" transform="translate(-397.939 -290.215)" fill="#e4dbd4"/>
      <path id="Path_10829" data-name="Path 10829" d="M517.379,496s-2.281,3.041-3.041,9.123a64.3,64.3,0,0,0,0,12.924" transform="translate(-423.871 -303.282)" fill="none" stroke="#d7cec9" stroke-miterlimit="10" stroke-width="1"/>
      <path id="Path_10830" data-name="Path 10830" d="M501.733,511.333s-.873-7.386.76-6.842c2.281.76,4.561,15.2,4.561,15.2" transform="translate(-404.044 -305.311)" fill="none" stroke="#d7cec9" stroke-miterlimit="10" stroke-width="1"/>
      <path id="Path_10831" data-name="Path 10831" d="M530.2,531.26s-9.123,4.561-15.965,3.8S478.5,530.5,478.5,530.5" transform="translate(-409.699 -311.554)" fill="none" stroke="#e0d7d0" stroke-miterlimit="10" stroke-width="1"/>
      <path id="Path_10832" data-name="Path 10832" d="M524.277,536.5l2.281,7.6s-12.164,10.643-19.006,11.4-20.906,9.5-23.567,12.164c-6.129,6.129-12.164,19.766-12.164,19.766L466.5,538.781s21.286,2.281,28.129,2.281S516.675,539.541,524.277,536.5Z" transform="translate(-396.939 -312.993)" fill="#e4dbd4"/>
      <path id="Path_10833" data-name="Path 10833" d="M547,517s4.561,9.123,10.643,10.643" transform="translate(-489.223 -308.318)" fill="none" stroke="#f4ede5" stroke-miterlimit="10" stroke-width="1"/>
      <path id="Path_10834" data-name="Path 10834" d="M517.941,593.286s8.332-16.634,7.6-21.286" transform="translate(-435.076 -321.505)" fill="none" stroke="#e4dbd4" stroke-miterlimit="10" stroke-width="2"/>
      <path id="Path_10835" data-name="Path 10835" d="M506.833,600.974c0-.76-.3-27.976-4.333-33.374" transform="translate(-404.583 -320.45)" fill="none" stroke="#e4dbd4" stroke-miterlimit="10" stroke-width="2"/>
      <path id="Path_10836" data-name="Path 10836" d="M488.008,557.8s1.718,8.895-1.323,8.895-4.561-6.842-4.561-6.842" transform="translate(-370.751 -318.1)" fill="none" stroke="#e4dbd4" stroke-miterlimit="10" stroke-width="2"/>
      <path id="Path_10837" data-name="Path 10837" d="M539,639c.76,2.281,7.6,5.322,15.2,9.123s22.807-6.842,22.807-6.842" transform="translate(-502.509 -337.57)" fill="none" stroke="#e4dbd4" stroke-miterlimit="10" stroke-width="2"/>
      <path id="Path_10838" data-name="Path 10838" d="M571.722,530.5s4.561,34.21,4.561,41.813,3.041,37.251,0,46.374" transform="translate(-528.009 -311.554)" fill="none" stroke="#f4ede5" stroke-miterlimit="10" stroke-width="1"/>
      <path id="Path_10839" data-name="Path 10839" d="M566.886,624.022s-2.2-40.429-3.725-52.593S558.6,539.5,558.6,539.5" transform="translate(-507.285 -313.712)" fill="none" stroke="#f4ede5" stroke-miterlimit="10" stroke-width="1"/>
      <path id="Path_10840" data-name="Path 10840" d="M551.276,622.681s.76-17.485-.76-22.807-9.123-37.251-6.842-46.374" transform="translate(-480.194 -317.069)" fill="none" stroke="#f4ede5" stroke-miterlimit="10" stroke-width="1"/>
      <path id="Path_10841" data-name="Path 10841" d="M579.648,589s4.561,11.4,3.8,17.485-3.8,19.766-4.561,22.807" transform="translate(-539.356 -325.581)" fill="none" stroke="#e4dbd4" stroke-miterlimit="10" stroke-width="2"/>
      <path id="Path_10842" data-name="Path 10842" d="M581.321,638s.76,10.643-1.521,12.924-8.667,7.177-13.076,8.91-16.573,7.055-20.374.213c-.522-.94-14.444,67.66-14.444,67.66s32.72-8.515,42.208-30.1S584.362,646.362,581.321,638Z" transform="translate(-503.018 -337.33)" fill="#e3dad3"/>
      <path id="Path_10843" data-name="Path 10843" d="M561.322,552.52s16.462,86.877,21.56,107.557c40.292,163.449-144.443,216.665-144.443,216.665" transform="translate(-437.679 -316.834)" fill="none" stroke="#e4dbd4" stroke-miterlimit="10" stroke-width="2"/>
      <path id="Path_10844" data-name="Path 10844" d="M611.091,750.52s3.8,25.452,1.52,39.136-15.965,56.257-19.006,66.14-7.6,20.526-4.561,29.649" transform="translate(-576.12 -364.309)" fill="none" stroke="#e4dbd4" stroke-miterlimit="10" stroke-width="2"/>
      <path id="Path_10845" data-name="Path 10845" d="M411.72,620.92S429.464,699.664,428.7,735.4s-6.082,101.11-4.561,114.034c0,0,1.186,31.413,12.757,54.478" transform="translate(-265.635 -333.235)" fill="none" stroke="#e4dbd4" stroke-miterlimit="10" stroke-width="2"/>
      <path id="Path_10846" data-name="Path 10846" d="M579.21,1033.953l-6.432-4.637s-30.06,6.918-41.463,6.918-18.246.76-31.169-8.363-39.532-25.087-57.777-28.889S398.595,991,398.595,991s-1.11,24.221-1.095,25.6,31.185,5.185,38.787,8.986,31.23,10.521,40.7,12.483,35.055,9.306,60.757,5.9A196.484,196.484,0,0,0,579.21,1033.953Z" transform="translate(-397.135 -421.97)" fill="#f0e5df"/>
      <path id="Path_10847" data-name="Path 10847" d="M541.725,667s3.041,5.322,3.041,8.362,0,3.041,1.521,6.082a48.483,48.483,0,0,0,4.561,6.842s.76,6.082-1.52,4.561-10.643-12.164-10.643-12.164l2.281,9.123,6.082,6.082H557.69s3.8.76,3.8,4.561H547.047s9.883,0,10.643.76l3.041,3.041-16.725.76-1.521-1.521h-8.362L525,693.608l.76-23.567S540.2,667.76,541.725,667Z" transform="translate(-476.346 -344.283)" fill="#e1957b"/>
      <path id="Path_10848" data-name="Path 10848" d="M566.682,697s.76,1.52-1.521,1.52-3.8-1.52-4.561-.76a2.355,2.355,0,0,0-.76,1.521" transform="translate(-508.145 -351.477)" fill="none" stroke="#cf6859" stroke-miterlimit="10" stroke-width="1" opacity="0.22"/>
      <path id="Path_10849" data-name="Path 10849" d="M550.088,708.842h-15.2L525,702" transform="translate(-464.942 -352.676)" fill="none" stroke="#cf6859" stroke-miterlimit="10" stroke-width="1" opacity="0.21"/>
      <path id="Path_10850" data-name="Path 10850" d="M553.621,697l2.235,2.235-3.755,3.086-3.041-2.281Z" transform="translate(-489.002 -351.477)" fill="#c6c3ca"/>
      <path id="Path_10851" data-name="Path 10851" d="M554.481,697l1,1-4.242,3.421-.563-.623Z" transform="translate(-489.862 -351.477)" fill="#f9f6ed"/>
      <path id="Path_10852" data-name="Path 10852" d="M553.377,682.5s2.463,5.291,2.372,7.587-.091,3.056-.091,3.056" transform="translate(-492.178 -348)" fill="none" stroke="#cf6859" stroke-miterlimit="10" stroke-width="1" opacity="0.23"/>
      <path id="Path_10853" data-name="Path 10853" d="M548.16,670.041a8.882,8.882,0,0,0,6.842,0c3.8-1.521,8.363-3.041,8.363-3.041a12.771,12.771,0,0,1,2.919,4.789" transform="translate(-498.745 -344.283)" fill="none" stroke="#cf6859" stroke-miterlimit="10" stroke-width="1" opacity="0.17"/>
      <ellipse id="Ellipse_133" data-name="Ellipse 133" cx="2.5" cy="2" rx="2.5" ry="2" transform="translate(109.999 359.923)" fill="#dbae1d"/>
      <circle id="Ellipse_134" data-name="Ellipse 134" cx="4" cy="4" r="4" transform="translate(99.999 359.923)" fill="#dbae1d"/>
      <path id="Path_10854" data-name="Path 10854" d="M486,703.893s6.082-.76,9.883,0,16.725,6.842,23.567,10.643,10.643,11.4,10.643,11.4c-1.52,0-10.643-.76-10.643-.76-8.362-3.041-6.842-11.4-6.842-11.4" transform="translate(-415.299 -353.048)" fill="none" stroke="#4e8464" stroke-miterlimit="10" stroke-width="1"/>
      <path id="Path_10855" data-name="Path 10855" d="M502.247,725.881l-4.743-2.748c-2.372-1.375-3.889-1.279-4.743-2.748" transform="translate(-392.593 -357.084)" fill="none" stroke="#4e8464" stroke-miterlimit="10" stroke-width="1"/>
      <ellipse id="Ellipse_135" data-name="Ellipse 135" cx="3.421" cy="6.082" rx="3.421" ry="6.082" transform="matrix(-0.468, -0.884, 0.884, -0.468, 129.267, 344.931)" fill="#deb529"/>
      <ellipse id="Ellipse_136" data-name="Ellipse 136" cx="1.5" cy="1" rx="1.5" ry="1" transform="translate(135.999 343.923)" fill="#deb529"/>
      <path id="Path_10856" data-name="Path 10856" d="M458.608,683s0,3.8,1.52,4.561,2.281,1.521,1.52,3.041" transform="translate(-326.328 -348.12)" fill="none" stroke="#cf6859" stroke-miterlimit="10" stroke-width="1"/>
      <circle id="Ellipse_137" data-name="Ellipse 137" cx="1.5" cy="1.5" r="1.5" transform="translate(125.999 328.923)" fill="#f2c7a7"/>
      <path id="Path_10857" data-name="Path 10857" d="M526.116,716.1s-18.245-7.6-22.807-8.362-14.561-4.523-16.725-3.8c-4.561,1.52-7.6-.76-8.362-.76s-5.352.745-5.352.745L471,702.04s15.2-2.281,16.345-1.141,19.386,6.462,19.386,6.462,13.246-5,18.246,0c.38.38-2.661,2.661-7.222,3.421-1.06.176,9.123,4.561,9.123,4.561Z" transform="translate(-400.679 -352.335)" fill="#4e8464"/>
      <ellipse id="Ellipse_138" data-name="Ellipse 138" cx="8.5" cy="7.5" rx="8.5" ry="7.5" transform="translate(124.999 359.923)" fill="#c081b8"/>
      <path id="Path_10858" data-name="Path 10858" d="M464.883,718s-1.52,3.041-3.041,3.041-3.8.76-6.842-1.521" transform="translate(-326.522 -356.512)" fill="none" stroke="#9b5299" stroke-miterlimit="10" stroke-width="1"/>
      <path id="Path_10859" data-name="Path 10859" d="M457.561,726.8A4.722,4.722,0,0,1,453,723" transform="translate(-317.68 -357.711)" fill="none" stroke="#cf6859" stroke-miterlimit="10" stroke-width="1" opacity="0.13"/>
      <path id="Path_10860" data-name="Path 10860" d="M462.77,716.109s5.258,2.424,4.375,6.962-2.423,5.259-2.443,6.019-2.938-3.882-5.217-3.943-6.818-.944-7.6-.2" transform="translate(-326.515 -356.059)" fill="none" stroke="#9b5299" stroke-miterlimit="10" stroke-width="1"/>
      <path id="Path_10861" data-name="Path 10861" d="M471.319,731.037a26.883,26.883,0,0,1-.76,4.561s-3.041.76-3.558-7.359C466.935,727.209,471.319,729.516,471.319,731.037Z" transform="translate(-342.08 -358.905)" fill="#c081b8"/>
      <path id="Path_10862" data-name="Path 10862" d="M467.3,736.582a35.805,35.805,0,0,1,1.52-3.8c.76-1.521-1.52-2.281-1.52-2.281" transform="translate(-339.958 -359.509)" fill="none" stroke="#9b5299" stroke-miterlimit="10" stroke-width="1"/>
      <path id="Path_10863" data-name="Path 10863" d="M513.526,690.842s-3.8-6.842-9.883-6.842S493,690.082,493,690.082s3.8,6.842,10.643,6.842S513.526,690.842,513.526,690.842Z" transform="translate(-404.053 -348.36)" fill="#efb993"/>
      <path id="Path_10864" data-name="Path 10864" d="M458.041,697s16.725,0,16.725,6.082-13.684,0-16.725-3.041c-.425-.425-.76,2.281-.76,2.281S455,700.8,455,700.041,458.041,697,458.041,697Z" transform="translate(-336.404 -351.477)" fill="#f1bb95"/>
      <path id="Path_10865" data-name="Path 10865" d="M527.286,697s1.521,0,0,1.52a4.709,4.709,0,0,1-3.041,1.521v-1.521s-22.9.294-30.409,1.521c-2.011.328-7.846,2.2-7.846,2.2l-8.88.076s14.444-3.8,24.327-4.561S527.286,697,527.286,697Z" transform="translate(-406.41 -351.477)" fill="#4e8464"/>
      <ellipse id="Ellipse_139" data-name="Ellipse 139" cx="4.654" cy="3.513" rx="4.654" ry="3.513" transform="matrix(-0.786, -0.618, 0.618, -0.786, 129.923, 320.298)" fill="#ba6eac"/>
      <path id="Path_10866" data-name="Path 10866" d="M503.117,632.243s6.082-3.8,5.322-6.082-5.7-1.9-6.462.38-2.661-2.661-2.661-2.661-3.041-1.521-2.281,1.52a24.51,24.51,0,0,0,1.52,4.561" transform="translate(-402.007 -333.853)" fill="none" stroke="#f1b78f" stroke-miterlimit="10" stroke-width="1"/>
      <path id="Path_10867" data-name="Path 10867" d="M479.833,678.826a11.121,11.121,0,0,1,3.8,2.281c1.52,1.52,3.041,2.281,3.041,3.8s-6.082,2.281-8.362.76-6.082-3.8-6.082-3.8,0-6.082-.76-6.842l-1.52-1.521s9.883-13.684,15.965-10.643-7.6,11.4-7.6,11.4,3.8-.76,4.561.76C482.874,675.025,485.155,676.545,479.833,678.826Z" transform="translate(-360.478 -343.185)" fill="#f2c7a7"/>
      <path id="Path_10868" data-name="Path 10868" d="M482.643,687.322S477.322,682.76,472,682" transform="translate(-357.206 -347.88)" fill="none" stroke="#cf6859" stroke-miterlimit="10" stroke-width="1" opacity="0.11"/>
      <path id="Path_10869" data-name="Path 10869" d="M530.421,676.96s2.737,2.311,1.977,8.393c0,0-3.041-2.281-3.8-3.041s-38.011,15.2-38.011,15.2l-.76-1.521,37.251-15.2A4.917,4.917,0,0,0,530.421,676.96Z" transform="translate(-420.644 -346.672)" fill="#4e8464"/>
      <path id="Path_10870" data-name="Path 10870" d="M483.158,686.806s-4.516-4.546-10.6-5.306" transform="translate(-358.146 -347.76)" fill="none" stroke="#e1a684" stroke-miterlimit="10" stroke-width="1"/>
      <circle id="Ellipse_140" data-name="Ellipse 140" cx="1.5" cy="1.5" r="1.5" transform="translate(84.999 305.923)" fill="#dbb025"/>
      <ellipse id="Ellipse_141" data-name="Ellipse 141" cx="1" cy="2" rx="1" ry="2" transform="translate(84.999 298.923)" fill="#dbb025"/>
      <ellipse id="Ellipse_142" data-name="Ellipse 142" cx="3.5" cy="3" rx="3.5" ry="3" transform="translate(86.999 297.923)" fill="#dcb029"/>
      <ellipse id="Ellipse_143" data-name="Ellipse 143" cx="2" cy="1" rx="2" ry="1" transform="translate(88.999 304.923)" fill="#dcb029"/>
      <path id="Path_10871" data-name="Path 10871" d="M536.223,653.485s.76-11.4-1.52-14.444L532.422,636a22.535,22.535,0,0,0,3.041,19.766s-6.842,14.444-9.123,17.485-8.362,9.883-8.362,9.883l1.52.76s20.526-26.608,23.567-43.333c.192-1.057-1.308-.7-1.308-.7S540.024,649.684,536.223,653.485Z" transform="translate(-452.598 -336.851)" fill="#4e8464"/>
      <path id="Path_10872" data-name="Path 10872" d="M541.435,670.721s.487-3.984-1.034-5.5-4.562-3.041-5.322-2.281-3.041,6.082,0,7.6a18.907,18.907,0,0,0,5.626,1.825Z" transform="translate(-462.858 -343.261)" fill="#4e8464"/>
      <path id="Path_10873" data-name="Path 10873" d="M470.072,653s.76,5.322-.76,5.322S464.75,653,464.75,653" transform="translate(-339.312 -340.927)" fill="none" stroke="#c37fb8" stroke-miterlimit="10" stroke-width="1"/>
      <path id="Path_10874" data-name="Path 10874" d="M535.246,650.5s1.944,1.19,1.52,1.52c-34.59,26.988-40.292,34.97-40.292,34.97s-.12-.614,0-.76C506.737,673.687,531.825,650.88,535.246,650.5Z" transform="translate(-429.954 -340.327)" fill="#4e8464"/>
      <path id="Path_10875" data-name="Path 10875" d="M538.716,669.928l-.639-1.368s-28.8,22.381-28.8,23.141l.76,1.521s6.467-5.856,13.295-11.7C530.045,675.787,537.1,670.064,538.716,669.928Z" transform="translate(-441.62 -344.658)" fill="#4e8464"/>
      <path id="Path_10876" data-name="Path 10876" d="M523.812,684.787s9.883-1.52,10.643,0-17.485,9.415-17.485,5.322C516.97,689.348,523.812,684.787,523.812,684.787Z" transform="translate(-443.228 -348.386)" fill="#4e8464"/>
      <ellipse id="Ellipse_144" data-name="Ellipse 144" cx="3.801" cy="3.379" rx="3.801" ry="3.379" transform="translate(89.707 309.793)" fill="#deb529"/>
      <path id="Path_10877" data-name="Path 10877" d="M505.771,635.772s-2.281-3.8-1.521-3.8a5.832,5.832,0,0,1,5.687,2.068c.306.328-2.646,1.733-2.646,1.733s-.76,6.842-3.041,9.883c-.645.86-.76,0-.76,0S506.532,638.813,505.771,635.772Z" transform="translate(-408.462 -335.862)" fill="#4e8464"/>
      <path id="Path_10878" data-name="Path 10878" d="M520.561,658.733s-2.281,5.322-3.041,5.322H516s3.862-4.774,3.832-5.808S520.561,658.733,520.561,658.733Z" transform="translate(-428.574 -342.098)" fill="#4e8464"/>
      <ellipse id="Ellipse_145" data-name="Ellipse 145" cx="12" cy="9.5" rx="12" ry="9.5" transform="translate(101.999 293.923)" fill="#c081b8"/>
      <path id="Path_10879" data-name="Path 10879" d="M495.322,645.365s-7.085,10.917-16.6,3.649-2.737-14.414-2.737-14.414S473,658.471,495.322,645.365Z" transform="translate(-371.131 -336.515)" fill="#9b5299"/>
      <path id="Path_10880" data-name="Path 10880" d="M495.623,630s1.521,4.561-1.52,6.842a60.23,60.23,0,0,1-7.6,4.561" transform="translate(-381.589 -335.412)" fill="none" stroke="#9b5299" stroke-miterlimit="10" stroke-width="1"/>
      <path id="Path_10881" data-name="Path 10881" d="M479.6,637.72s-4.637,2.114-5.4,5.915a43.236,43.236,0,0,0-.806,7.04" transform="translate(-355.23 -337.263)" fill="none" stroke="#9b5299" stroke-miterlimit="10" stroke-width="1"/>
      <path id="Path_10882" data-name="Path 10882" d="M489.7,643.91s-8.515.821-9.2-1.87" transform="translate(-370.723 -338.299)" fill="none" stroke="#9b5299" stroke-miterlimit="10" stroke-width="1"/>
      <path id="Path_10883" data-name="Path 10883" d="M484.342,632.5s-.76,3.8-6.842,3.041" transform="translate(-363.086 -336.011)" fill="none" stroke="#9b5299" stroke-miterlimit="10" stroke-width="1"/>
      <line id="Line_25" data-name="Line 25" x1="2" y2="3" transform="translate(54.999 359.923)" fill="none" stroke="#4e8464" stroke-miterlimit="10" stroke-width="2"/>
      <path id="Path_10884" data-name="Path 10884" d="M576.578,713.8s-12.5,10.035-14.019,10.035" transform="translate(-519.987 -355.505)" fill="none" stroke="#4e8464" stroke-miterlimit="10" stroke-width="2"/>
      <path id="Path_10885" data-name="Path 10885" d="M564.36,725.641s6.295-13.2,8.089-13.821" transform="translate(-517.226 -355.03)" fill="none" stroke="#4e8464" stroke-miterlimit="10" stroke-width="2"/>
      <line id="Line_26" data-name="Line 26" x1="11.738" y2="13.213" transform="translate(41.432 354.737)" fill="none" stroke="#4e8464" stroke-miterlimit="10" stroke-width="2"/>
      <line id="Line_27" data-name="Line 27" y1="9.579" x2="14.885" transform="translate(38.011 354.19)" fill="none" stroke="#4e8464" stroke-miterlimit="10" stroke-width="2"/>
      <path id="Path_10886" data-name="Path 10886" d="M570,712.58,584.459,707l-6.462.38" transform="translate(-533.524 -353.874)" fill="none" stroke="#4e8464" stroke-miterlimit="10" stroke-width="2"/>
      <path id="Path_10887" data-name="Path 10887" d="M532.211,297.5c-2.281,2.281.091,23.506.046,23.917s-.806,4.212-6.127,6.492-12.164,4.561-13.684,8.362-1.52,8.363-.76,25.087c.142,3.131-.76,3.8-6.082,6.842s-12.164,8.362-12.164,13.684v5.322" transform="translate(-423.118 -255.687)" fill="none" stroke="#c87d43" stroke-miterlimit="10" stroke-width="1"/>
      <path id="Path_10888" data-name="Path 10888" d="M523.986,300.5s-19.006,6.842-22.047,9.883-6.082,6.082-5.322,14.444" transform="translate(-417.174 -256.407)" fill="none" stroke="#c87d43" stroke-miterlimit="10" stroke-width="1"/>
      <path id="Path_10889" data-name="Path 10889" d="M471.7,265.6s-1.262-15.585-5.823-17.105c-.721-.24,0,6.082.76,7.6s-3.8-3.041-3.8-3.041" transform="translate(-339.303 -243.937)" fill="none" stroke="#c87d43" stroke-miterlimit="10" stroke-width="1"/>
      <path id="Path_10890" data-name="Path 10890" d="M489.266,265.746s-2.281-9.883-9.883-13.684A97.879,97.879,0,0,0,469.5,247.5" transform="translate(-361.928 -243.699)" fill="none" stroke="#c87d43" stroke-miterlimit="10" stroke-width="1"/>
      <path id="Path_10891" data-name="Path 10891" d="M515.792,271.2s-17.485-13.684-22.047-15.2-9.123-2.281-12.164-.76a46.613,46.613,0,0,0-6.082,3.8" transform="translate(-393.015 -245.356)" fill="none" stroke="#c87d43" stroke-miterlimit="10" stroke-width="1"/>
      <path id="Path_10892" data-name="Path 10892" d="M549.112,302.5s12.164,30.409,11.4,38.011-2.281,9.883-8.363,15.2-9.883,6.082-8.362,14.444a118.436,118.436,0,0,0,4.561,16.725" transform="translate(-489.434 -256.886)" fill="none" stroke="#c87d43" stroke-miterlimit="10" stroke-width="1"/>
      <path id="Path_10893" data-name="Path 10893" d="M588.012,364.5a9.26,9.26,0,0,1-2.281,9.883c-4.561,4.561-9.883,8.362-10.643,13.684a23.9,23.9,0,0,0,0,8.362" transform="translate(-541.258 -271.752)" fill="none" stroke="#c87d43" stroke-miterlimit="10" stroke-width="1"/>
      <path id="Path_10894" data-name="Path 10894" d="M535.558,281.5s-9.123,5.322-13.684,5.322-25.087-1.521-31.93-.76-14.444,4.561-14.444,4.561" transform="translate(-412.781 -251.851)" fill="none" stroke="#c87d43" stroke-miterlimit="10" stroke-width="1"/>
      <g id="Group_439" data-name="Group 439" transform="translate(20.526 25.468)">
        <path id="Path_10796" data-name="Path 10796" d="M556.079,276h-4.561s-5.322,2.281-6.842,3.041-9.883,5.322-12.164,11.4,3.8,19.766,3.8,19.766l.76-1.52s-5.972-12.36-2.281-19.006c3.8-6.842,15.2-12.194,15.2-12.194Z" transform="translate(-496.781 -276)" fill="#7e302e"/>
        <path id="Path_10895" data-name="Path 10895" d="M595.853,345.993s-8.806-.406-12.164,2.281c-3.8,3.041-3.19,3.233-4.561,3.8-3.551,1.471-2.754-1.869-15.2,2.281-4.561,1.52-12.924,11.4-12.924,11.4l19.006-6.842a49.294,49.294,0,0,0,8.362-5.322c.916-.733.927-1.34,2.281-1.521C592.052,350.555,595.853,345.993,595.853,345.993Z" transform="translate(-551 -292.777)" fill="#7e302e"/>
        <path id="Path_10896" data-name="Path 10896" d="M590.731,329.842s-5.322,6.082-9.123,6.082-17.485,0-20.526.76L555,338.2s.76-3.8,10.643-5.322,12.924-1.52,14.444-2.281,9.123-7.6,9.123-7.6Z" transform="translate(-548.918 -287.269)" fill="#7e302e"/>
      </g>
      <path id="Path_10897" data-name="Path 10897" d="M541.322,266.521c0-.85-.76-1.521-3.041-1.521A2.234,2.234,0,0,0,536,267.281a2.812,2.812,0,0,0,2.281,1.52c1.52,0,3.041-1.52,3.041-2.281" transform="translate(-464.539 -247.895)" fill="#d6935e"/>
      <path id="Path_10898" data-name="Path 10898" d="M522.322,273.934v-3.041s-1.52,0-1.52.76v.76s-1.521-.76-1.521-1.52-1.52,0-1.52,0a1.053,1.053,0,0,0,0,1.52l.76.76v.76s-1.521,0-1.521.76c0,2.281,5.322,0,5.322,0Z" transform="translate(-431.094 -249.227)" fill="#fedac0"/>
      <path id="Path_10899" data-name="Path 10899" d="M514.8,284.123a25.863,25.863,0,0,0,0-4.561,4.011,4.011,0,0,0-3.8-3.041V275s3.8,1.521,4.561,3.8a20.059,20.059,0,0,1,.76,5.322Z" transform="translate(-420.533 -250.293)" fill="#508f74"/>
      <path id="Path_10900" data-name="Path 10900" d="M502.515,282.419s.76-13.684-.76-14.444c-.17-.085.615-.123.76,0,1.765,1.495,1.521,9.123,1.521,9.123s3.041-5.322,4.561-4.561c.78.39-.76,3.041-3.041,5.322-.389.389-1.52,1.233-1.52,1.52v3.041Z" transform="translate(-405.966 -248.589)" fill="#508f74"/>
      <path id="Path_10901" data-name="Path 10901" d="M511.9,266.082s2.281-3.041,2.281-3.8-.76-1.52-2.281-.76-.76-1.52-1.52-1.52-.76,0-1.521.76a2.354,2.354,0,0,1-1.52.76,1.053,1.053,0,0,0,0,1.52l3.041,3.041Z" transform="translate(-415.35 -246.696)" fill="#fedac0"/>
      <path id="Path_10902" data-name="Path 10902" d="M525.48,284.523l3.041-2.281s.76-3.041-.76-2.281-1.52,1.52-1.52,1.52a5.308,5.308,0,0,0-3.041-1.52,3.329,3.329,0,0,0-2.281.76S519.4,282.242,525.48,284.523Z" transform="translate(-440.335 -251.453)" fill="#fedac0"/>
      <path id="Path_10903" data-name="Path 10903" d="M524.314,283.234s.487-.182.487.578-.76.76-.76,1.52v.76H521l.122-.76s1.156.03,1.277-.365A2.524,2.524,0,0,1,524.314,283.234Z" transform="translate(-436.615 -252.262)" fill="#508f74"/>
      <path id="Path_10904" data-name="Path 10904" d="M512.966,669.889c-1.184,1.733-.317,4.387,1.936,5.926s5.04,1.381,6.224-.352.317-4.387-1.936-5.926a6.425,6.425,0,0,0-.749-.441C516.35,668.051,514.021,668.344,512.966,669.889Z" transform="translate(-426.959 -344.638)" fill="#c081b8"/>
      <path id="Path_10905" data-name="Path 10905" d="M520.561,671v3.8s0,.76-.76,0-.76-3.041-1.52-3.041-2.281,0-2.281,1.521" transform="translate(-428.574 -345.243)" fill="none" stroke="#9b5299" stroke-miterlimit="10" stroke-width="1"/>
      <circle id="Ellipse_146" data-name="Ellipse 146" cx="7.5" cy="7.5" r="7.5" transform="translate(94.999 313.923)" fill="#dbb025"/>
      <path id="Path_10906" data-name="Path 10906" d="M498.5,662.84s-8.439.5-6.918-6.34" transform="translate(-387.812 -341.766)" fill="none" stroke="#cd9303" stroke-miterlimit="10" stroke-width="1"/>
      <path id="Path_10907" data-name="Path 10907" d="M505.434,670.15a8.029,8.029,0,0,0,.043-4.561c-.738-2.288-3-3.83-2.223-6.1" transform="translate(-403.994 -342.482)" fill="none" stroke="#cd9303" stroke-miterlimit="10" stroke-width="1"/>
      <path id="Path_10908" data-name="Path 10908" d="M505.944,668.021s-3.041,5.322-6.842,4.561-7.6-2.281-7.6-6.082" transform="translate(-395.331 -344.164)" fill="none" stroke="#cd9303" stroke-miterlimit="10" stroke-width="1"/>
      <path id="Path_10909" data-name="Path 10909" d="M556.322,702l12.164,9.883h-7.6L551,702Z" transform="translate(-503.105 -352.676)" fill="#d97f65"/>
      <path id="Path_10910" data-name="Path 10910" d="M456.8,310.063c.76,0,2.281-6.842,0-6.082s-2.281,1.52-2.281,1.52S453.668,310.063,456.8,310.063Z" transform="translate(-319.201 -257.227)" fill="#395f83"/>
      <path id="Path_10911" data-name="Path 10911" d="M456.5,305c.38,0,.38,1.521,0,1.521C455.743,306.521,454.982,305,456.5,305Z" transform="translate(-318.902 -257.486)" fill="#f8f3ed"/>
      <path id="Path_10912" data-name="Path 10912" d="M458.21,301s.76.76-2.281,2.281l-3.041,1.52S455.93,301,458.21,301Z" transform="translate(-318.329 -256.527)" fill="#6f362d"/>
      <path id="Path_10913" data-name="Path 10913" d="M481.564,298.985c.567.057,1.52,2.281,0,2.281-.76,0-6.082-.76-10.643,5.322C470.921,306.587,473.962,298.224,481.564,298.985Z" transform="translate(-356.127 -256.032)" fill="#6f362d"/>
      <path id="Path_10914" data-name="Path 10914" d="M475.041,301.993l2.418-.023s1.384.783,1.384,4.584-1.521,4.561-2.281,4.561S472,308.835,472,305.794A4.057,4.057,0,0,1,475.041,301.993Z" transform="translate(-353.405 -256.759)" fill="#395f83"/>
      <path id="Path_10915" data-name="Path 10915" d="M476.723,304c1.52,0,.76,3.041,0,3.041S475.2,304,476.723,304Z" transform="translate(-355.087 -257.246)" fill="#f8f3ed"/>
      <path id="Path_10916" data-name="Path 10916" d="M553.287,416.521V422.6s-27.368,6.082-29.649,7.6,2.281-15.2,2.281-15.2Z" transform="translate(-466.621 -283.861)" fill="#ece5dd"/>
      <path id="Path_10917" data-name="Path 10917" d="M480.956,420A3.325,3.325,0,0,1,484,422.281c.76,2.281.608,2.8-.456,3.679S480.2,423.8,480.2,423.8,477.915,420.76,480.956,420Z" transform="translate(-364.641 -285.06)" fill="#f7e5d9"/>
      <path id="Path_10918" data-name="Path 10918" d="M479,429s2.281,0,2.281.76S479.76,432.041,479,429Z" transform="translate(-361.165 -287.218)" fill="#f7e5d9"/>
      <path id="Path_10919" data-name="Path 10919" d="M491.2,357.52,487.4,356s-1.52,4.561-2.281,5.322,2.281.76,2.281.76S489.683,357.52,491.2,357.52Z" transform="translate(-375.649 -269.714)" fill="#e09375"/>
      <path id="Path_10920" data-name="Path 10920" d="M459.5,369.676s.214,8.47,2.281,9.123c14.444,4.561,39.912,1.9,39.912,1.9.76-.76-3.8-20.526,3.041-24.327s12.164-9.883,15.2-19.006-3.8-22.807-3.8-22.807c-3.8-10.643-1.14-17.865-1.14-19.386s3.8-3.8,11.784-9.5c6.369-4.549,8.743-13.3,10.643-13.684s6.462,1.9,6.462,1.9" transform="translate(-408.945 -249.56)" fill="none" stroke="#a55b34" stroke-miterlimit="10" stroke-width="1"/>
    </g>
  </g>
</svg>
