<svg xmlns="http://www.w3.org/2000/svg" xmlns:xlink="http://www.w3.org/1999/xlink" width="877" height="218" viewBox="0 0 877 218">
  <defs>
    <clipPath id="clip-path">
      <rect id="Rectangle_598" data-name="Rectangle 598" width="877" height="218" transform="translate(457 1886)" fill="#fff" stroke="#707070" stroke-width="1"/>
    </clipPath>
  </defs>
  <g id="Mask_Group_19" data-name="Mask Group 19" transform="translate(-457 -1886)" clip-path="url(#clip-path)">
    <g id="Group_425" data-name="Group 425" transform="translate(498.024 1896.447)">
      <g id="Group_367" data-name="Group 367" transform="translate(307.352 154.957)" opacity="0.38">
        <path id="Path_11189" data-name="Path 11189" d="M136.469,90.224a5.658,5.658,0,1,1,5.659-5.659A5.665,5.665,0,0,1,136.469,90.224Zm0-8.782a3.124,3.124,0,1,0,3.131,3.123A3.131,3.131,0,0,0,136.469,81.443Z" transform="translate(-130.814 -78.908)" fill="#c186b8"/>
      </g>
      <g id="Group_368" data-name="Group 368" transform="translate(766.819 50.777)">
        <path id="Path_11190" data-name="Path 11190" d="M274.538,41.678a5.657,5.657,0,1,1,5.659-5.657A5.663,5.663,0,0,1,274.538,41.678Zm0-8.782a3.125,3.125,0,1,0,3.131,3.125A3.13,3.13,0,0,0,274.538,32.9Z" transform="translate(-268.883 -30.364)" fill="#de7b90"/>
      </g>
      <g id="Group_374" data-name="Group 374" transform="translate(647.526 33.355)">
        <g id="Group_369" data-name="Group 369" transform="translate(6.709)">
          <rect id="Rectangle_167" data-name="Rectangle 167" width="4.238" height="2.923" transform="matrix(0.707, -0.707, 0.707, 0.707, 0, 2.997)" fill="#c181a3"/>
        </g>
        <g id="Group_370" data-name="Group 370" transform="translate(0 6.703)">
          <rect id="Rectangle_168" data-name="Rectangle 168" width="4.242" height="2.927" transform="translate(0 3.004) rotate(-45.086)" fill="#c181a3"/>
        </g>
        <g id="Group_373" data-name="Group 373" transform="translate(0.002 0)">
          <g id="Group_371" data-name="Group 371" transform="translate(0)">
            <rect id="Rectangle_169" data-name="Rectangle 169" width="2.923" height="4.238" transform="translate(0 2.068) rotate(-45.031)" fill="#c181a3"/>
          </g>
          <g id="Group_372" data-name="Group 372" transform="translate(6.704 6.703)">
            <rect id="Rectangle_170" data-name="Rectangle 170" width="2.927" height="4.242" transform="translate(0 2.069) rotate(-44.973)" fill="#c181a3"/>
          </g>
        </g>
      </g>
      <g id="Group_380" data-name="Group 380" transform="translate(432.749 82.182)">
        <g id="Group_375" data-name="Group 375" transform="translate(6.709)">
          <rect id="Rectangle_171" data-name="Rectangle 171" width="4.239" height="2.923" transform="translate(0 2.997) rotate(-45.003)" fill="#fff"/>
        </g>
        <g id="Group_376" data-name="Group 376" transform="translate(0 6.703)">
          <rect id="Rectangle_172" data-name="Rectangle 172" width="4.243" height="2.927" transform="translate(0 3.004) rotate(-45.074)" fill="#fff"/>
        </g>
        <g id="Group_379" data-name="Group 379" transform="translate(0.002 0)">
          <g id="Group_377" data-name="Group 377" transform="translate(0)">
            <rect id="Rectangle_173" data-name="Rectangle 173" width="2.923" height="4.238" transform="translate(0 2.068) rotate(-45.029)" fill="#fff"/>
          </g>
          <g id="Group_378" data-name="Group 378" transform="translate(6.704 6.703)">
            <rect id="Rectangle_174" data-name="Rectangle 174" width="2.928" height="4.242" transform="matrix(0.707, -0.707, 0.707, 0.707, 0, 2.069)" fill="#fff"/>
          </g>
        </g>
      </g>
      <g id="Group_386" data-name="Group 386" transform="translate(1066.921 115.403)">
        <g id="Group_381" data-name="Group 381" transform="translate(6.709)">
          <rect id="Rectangle_175" data-name="Rectangle 175" width="4.239" height="2.923" transform="matrix(0.707, -0.707, 0.707, 0.707, 0, 2.997)" fill="#fff"/>
        </g>
        <g id="Group_382" data-name="Group 382" transform="translate(0 6.703)">
          <rect id="Rectangle_176" data-name="Rectangle 176" width="4.242" height="2.928" transform="translate(0 3.004) rotate(-45.086)" fill="#fff"/>
        </g>
        <g id="Group_385" data-name="Group 385" transform="translate(0.002 0)">
          <g id="Group_383" data-name="Group 383" transform="translate(0)">
            <rect id="Rectangle_177" data-name="Rectangle 177" width="2.923" height="4.238" transform="translate(0 2.068) rotate(-45.024)" fill="#fff"/>
          </g>
          <g id="Group_384" data-name="Group 384" transform="translate(6.704 6.703)">
            <rect id="Rectangle_178" data-name="Rectangle 178" width="2.928" height="4.242" transform="translate(0 2.069) rotate(-44.973)" fill="#fff"/>
          </g>
        </g>
      </g>
      <g id="Group_393" data-name="Group 393" transform="translate(54.975 173.008)">
        <g id="Group_392" data-name="Group 392" transform="translate(0)">
          <g id="Group_387" data-name="Group 387" transform="translate(6.709 0.001)">
            <rect id="Rectangle_179" data-name="Rectangle 179" width="4.236" height="2.923" transform="translate(0 2.995) rotate(-44.997)" fill="#ee77ad"/>
          </g>
          <g id="Group_388" data-name="Group 388" transform="translate(0 6.705)">
            <rect id="Rectangle_180" data-name="Rectangle 180" width="4.245" height="2.923" transform="matrix(0.707, -0.707, 0.707, 0.707, 0, 3.001)" fill="#ee77ad"/>
          </g>
          <g id="Group_391" data-name="Group 391" transform="translate(0.001)">
            <g id="Group_389" data-name="Group 389" transform="translate(0)">
              <rect id="Rectangle_181" data-name="Rectangle 181" width="2.923" height="4.24" transform="matrix(0.706, -0.708, 0.708, 0.706, 0, 2.069)" fill="#ee77ad"/>
            </g>
            <g id="Group_390" data-name="Group 390" transform="translate(6.708 6.704)">
              <path id="Path_11191" data-name="Path 11191" d="M61.1,95.512l-3-3,2.067-2.067,3,3Z" transform="translate(-58.102 -90.443)" fill="#ee77ad"/>
            </g>
          </g>
        </g>
      </g>
      <g id="Group_399" data-name="Group 399" transform="translate(885.54 161.409)">
        <g id="Group_394" data-name="Group 394" transform="translate(9.486 5.396)">
          <rect id="Rectangle_182" data-name="Rectangle 182" width="4.239" height="2.931" fill="#fff"/>
        </g>
        <g id="Group_395" data-name="Group 395" transform="translate(0 5.396)">
          <rect id="Rectangle_183" data-name="Rectangle 183" width="4.24" height="2.931" fill="#fff"/>
        </g>
        <g id="Group_398" data-name="Group 398" transform="translate(5.402)">
          <g id="Group_396" data-name="Group 396">
            <rect id="Rectangle_184" data-name="Rectangle 184" width="2.926" height="4.24" fill="#fff"/>
          </g>
          <g id="Group_397" data-name="Group 397" transform="translate(0 9.483)">
            <rect id="Rectangle_185" data-name="Rectangle 185" width="2.926" height="4.245" fill="#fff"/>
          </g>
        </g>
      </g>
      <g id="Group_405" data-name="Group 405" transform="translate(290.754 64.291)" opacity="0.38">
        <g id="Group_400" data-name="Group 400" transform="translate(9.483 5.395)">
          <rect id="Rectangle_186" data-name="Rectangle 186" width="4.245" height="2.931" fill="#c186b8"/>
        </g>
        <g id="Group_401" data-name="Group 401" transform="translate(0 5.395)">
          <rect id="Rectangle_187" data-name="Rectangle 187" width="4.24" height="2.931" fill="#c186b8"/>
        </g>
        <g id="Group_404" data-name="Group 404" transform="translate(5.396)">
          <g id="Group_402" data-name="Group 402">
            <rect id="Rectangle_188" data-name="Rectangle 188" width="2.931" height="4.239" fill="#c186b8"/>
          </g>
          <g id="Group_403" data-name="Group 403" transform="translate(0 9.483)">
            <rect id="Rectangle_189" data-name="Rectangle 189" width="2.931" height="4.24" fill="#c186b8"/>
          </g>
        </g>
      </g>
      <g id="Group_411" data-name="Group 411" transform="translate(734.485 109.903)">
        <g id="Group_406" data-name="Group 406" transform="translate(9.483 5.395)">
          <rect id="Rectangle_190" data-name="Rectangle 190" width="4.245" height="2.932" fill="#f25e74"/>
        </g>
        <g id="Group_407" data-name="Group 407" transform="translate(0 5.395)">
          <rect id="Rectangle_191" data-name="Rectangle 191" width="4.24" height="2.932" fill="#f25e74"/>
        </g>
        <g id="Group_410" data-name="Group 410" transform="translate(5.396)">
          <g id="Group_408" data-name="Group 408">
            <rect id="Rectangle_192" data-name="Rectangle 192" width="2.931" height="4.239" fill="#f25e74"/>
          </g>
          <g id="Group_409" data-name="Group 409" transform="translate(0 9.483)">
            <rect id="Rectangle_193" data-name="Rectangle 193" width="2.931" height="4.239" fill="#f25e74"/>
          </g>
        </g>
      </g>
      <g id="Group_417" data-name="Group 417" transform="translate(160.492 227.037)">
        <g id="Group_412" data-name="Group 412" transform="translate(9.483 5.395)">
          <rect id="Rectangle_194" data-name="Rectangle 194" width="4.245" height="2.932" fill="#fff"/>
        </g>
        <g id="Group_413" data-name="Group 413" transform="translate(0 5.395)">
          <rect id="Rectangle_195" data-name="Rectangle 195" width="4.239" height="2.932" fill="#fff"/>
        </g>
        <g id="Group_416" data-name="Group 416" transform="translate(5.395)">
          <g id="Group_414" data-name="Group 414">
            <rect id="Rectangle_196" data-name="Rectangle 196" width="2.931" height="4.239" fill="#fff"/>
          </g>
          <g id="Group_415" data-name="Group 415" transform="translate(0 9.483)">
            <rect id="Rectangle_197" data-name="Rectangle 197" width="2.931" height="4.239" fill="#fff"/>
          </g>
        </g>
      </g>
      <path id="Path_11192" data-name="Path 11192" d="M210.993,25.763c-1.9-1.9-4.369-.268-4.9.71-.537-.979-3-2.614-4.906-.71a3.166,3.166,0,0,0-.062,4.372l4.968,5.015,4.966-5.015A3.166,3.166,0,0,0,210.993,25.763Z" transform="translate(338.286 14.131)" fill="#90599f"/>
      <path id="Path_11193" data-name="Path 11193" d="M91.781,55.433c-1.9-1.9-4.369-.268-4.9.71-.537-.979-3-2.614-4.906-.71a3.169,3.169,0,0,0-.064,4.372l4.97,5.015L91.844,59.8A3.166,3.166,0,0,0,91.781,55.433Z" transform="translate(29.883 48.136)" fill="#ecac63"/>
      <path id="Path_11194" data-name="Path 11194" d="M319.18,33.47c-1.9-1.9-4.367-.268-4.9.71-.534-.979-3-2.614-4.9-.71a3.166,3.166,0,0,0-.064,4.372l4.968,5.015,4.968-5.015A3.166,3.166,0,0,0,319.18,33.47Z" transform="translate(656.504 22.964)" fill="none" stroke="#f6dde2" stroke-miterlimit="10" stroke-width="0.8"/>
      <path id="Path_11195" data-name="Path 11195" d="M164.447,13.433c-1.9-1.9-4.367-.268-4.9.71-.534-.979-3-2.614-4.9-.71a3.166,3.166,0,0,0-.064,4.372l4.968,5.015,4.968-5.015A3.166,3.166,0,0,0,164.447,13.433Z" transform="translate(229.908 0)" fill="#ee77ad"/>
    </g>
  </g>
</svg>
