<svg xmlns="http://www.w3.org/2000/svg" width="45.413" height="36.331" viewBox="0 0 45.413 36.331">
  <path id="Path_39" data-name="Path 39" d="M40.6,4H8.812A6.812,6.812,0,0,0,2,10.812V33.519a6.812,6.812,0,0,0,6.812,6.812H40.6a6.812,6.812,0,0,0,6.812-6.812V10.812A6.812,6.812,0,0,0,40.6,4ZM39.67,8.541,26.319,21.893a2.27,2.27,0,0,1-3.211.014l-.014-.014L9.743,8.541Zm3.2,24.977A2.271,2.271,0,0,1,40.6,35.789H8.812a2.271,2.271,0,0,1-2.271-2.271V11.743L19.893,25.094a6.811,6.811,0,0,0,9.628,0L42.872,11.743Z" transform="translate(-2 -4)" fill="#8c6f30"/>
</svg>
