<svg xmlns="http://www.w3.org/2000/svg" width="637.319" height="177.595" viewBox="0 0 637.319 177.595">
  <g id="Group_425" data-name="Group 425" transform="translate(618.483 246.05) rotate(-166)">
    <g id="Group_367" data-name="Group 367" transform="translate(480.017 47.044)" opacity="0.38">
      <path id="Path_11189" data-name="Path 11189" d="M3.574,0A3.574,3.574,0,1,1,0,3.574,3.578,3.578,0,0,1,3.574,0Zm0,5.546A1.973,1.973,0,1,0,1.6,3.574,1.977,1.977,0,0,0,3.574,5.546Z" fill="#c186b8"/>
    </g>
    <g id="Group_368" data-name="Group 368" transform="translate(189.828 112.843)">
      <path id="Path_11190" data-name="Path 11190" d="M3.574,0A3.573,3.573,0,1,1,0,3.573,3.577,3.577,0,0,1,3.574,0Zm0,5.546A1.973,1.973,0,1,0,1.6,3.573,1.977,1.977,0,0,0,3.574,5.546Z" transform="translate(0 0)" fill="#de7b90"/>
    </g>
    <g id="Group_374" data-name="Group 374" transform="translate(264.88 123.556)">
      <g id="Group_369" data-name="Group 369" transform="translate(0.002 4.238)">
        <rect id="Rectangle_167" data-name="Rectangle 167" width="2.677" height="1.846" transform="matrix(-0.707, 0.707, -0.707, -0.707, 3.198, 1.305)" fill="#c181a3"/>
      </g>
      <g id="Group_370" data-name="Group 370" transform="translate(4.236 0)">
        <rect id="Rectangle_168" data-name="Rectangle 168" width="2.679" height="1.849" transform="translate(3.201 1.305) rotate(134.914)" fill="#c181a3"/>
      </g>
      <g id="Group_373" data-name="Group 373" transform="translate(0 0)">
        <g id="Group_371" data-name="Group 371" transform="translate(4.237 4.238)">
          <rect id="Rectangle_169" data-name="Rectangle 169" width="1.846" height="2.677" transform="translate(3.199 1.892) rotate(134.969)" fill="#c181a3"/>
        </g>
        <g id="Group_372" data-name="Group 372" transform="translate(0 0)">
          <rect id="Rectangle_170" data-name="Rectangle 170" width="1.849" height="2.679" transform="matrix(-0.707, 0.707, -0.707, -0.707, 3.202, 1.896)" fill="#c181a3"/>
        </g>
      </g>
    </g>
    <g id="Group_380" data-name="Group 380" transform="translate(400.528 92.718)">
      <g id="Group_375" data-name="Group 375" transform="translate(0.002 4.238)">
        <rect id="Rectangle_171" data-name="Rectangle 171" width="2.677" height="1.846" transform="translate(3.198 1.305) rotate(134.997)" fill="#fff"/>
      </g>
      <g id="Group_376" data-name="Group 376" transform="translate(4.236 0)">
        <rect id="Rectangle_172" data-name="Rectangle 172" width="2.679" height="1.849" transform="translate(3.201 1.306) rotate(134.926)" fill="#fff"/>
      </g>
      <g id="Group_379" data-name="Group 379" transform="translate(0 0)">
        <g id="Group_377" data-name="Group 377" transform="translate(4.237 4.238)">
          <rect id="Rectangle_173" data-name="Rectangle 173" width="1.846" height="2.677" transform="matrix(-0.707, 0.707, -0.707, -0.707, 3.199, 1.892)" fill="#fff"/>
        </g>
        <g id="Group_378" data-name="Group 378" transform="translate(0 0)">
          <rect id="Rectangle_174" data-name="Rectangle 174" width="1.849" height="2.679" transform="translate(3.202 1.896) rotate(135.031)" fill="#fff"/>
        </g>
      </g>
    </g>
    <g id="Group_386" data-name="Group 386" transform="translate(0 71.736)">
      <g id="Group_381" data-name="Group 381" transform="translate(0.002 4.238)">
        <rect id="Rectangle_175" data-name="Rectangle 175" width="2.677" height="1.846" transform="matrix(-0.707, 0.707, -0.707, -0.707, 3.199, 1.306)" fill="#fff"/>
      </g>
      <g id="Group_382" data-name="Group 382" transform="translate(4.236 0)">
        <rect id="Rectangle_176" data-name="Rectangle 176" width="2.679" height="1.849" transform="translate(3.201 1.305) rotate(134.914)" fill="#fff"/>
      </g>
      <g id="Group_385" data-name="Group 385" transform="translate(0 0)">
        <g id="Group_383" data-name="Group 383" transform="translate(4.237 4.238)">
          <rect id="Rectangle_177" data-name="Rectangle 177" width="1.846" height="2.677" transform="translate(3.199 1.892) rotate(134.976)" fill="#fff"/>
        </g>
        <g id="Group_384" data-name="Group 384" transform="translate(0 0)">
          <rect id="Rectangle_178" data-name="Rectangle 178" width="1.849" height="2.679" transform="matrix(-0.707, 0.707, -0.707, -0.707, 3.202, 1.895)" fill="#fff"/>
        </g>
      </g>
    </g>
    <g id="Group_393" data-name="Group 393" transform="translate(639.123 35.355)">
      <g id="Group_392" data-name="Group 392" transform="translate(0 0)">
        <g id="Group_387" data-name="Group 387" transform="translate(0 4.238)">
          <rect id="Rectangle_179" data-name="Rectangle 179" width="2.676" height="1.846" transform="matrix(-0.707, 0.707, -0.707, -0.707, 3.197, 1.306)" fill="#ee77ad"/>
        </g>
        <g id="Group_388" data-name="Group 388" transform="translate(4.234 0)">
          <rect id="Rectangle_180" data-name="Rectangle 180" width="2.681" height="1.846" transform="matrix(-0.707, 0.707, -0.707, -0.707, 3.201, 1.306)" fill="#ee77ad"/>
        </g>
        <g id="Group_391" data-name="Group 391" transform="translate(0 0)">
          <g id="Group_389" data-name="Group 389" transform="translate(4.235 4.237)">
            <rect id="Rectangle_181" data-name="Rectangle 181" width="1.846" height="2.678" transform="matrix(-0.706, 0.708, -0.708, -0.706, 3.2, 1.892)" fill="#ee77ad"/>
          </g>
          <g id="Group_390" data-name="Group 390" transform="translate(0 0)">
            <path id="Path_11191" data-name="Path 11191" d="M1.306,0,3.2,1.9,1.892,3.2,0,1.306Z" fill="#ee77ad"/>
          </g>
        </g>
      </g>
    </g>
    <g id="Group_399" data-name="Group 399" transform="translate(113.324 41.445)">
      <g id="Group_394" data-name="Group 394" transform="translate(0 3.411)">
        <rect id="Rectangle_182" data-name="Rectangle 182" width="2.677" height="1.851" transform="translate(0 0)" fill="#fff"/>
      </g>
      <g id="Group_395" data-name="Group 395" transform="translate(5.991 3.411)">
        <rect id="Rectangle_183" data-name="Rectangle 183" width="2.678" height="1.851" transform="translate(0 0)" fill="#fff"/>
      </g>
      <g id="Group_398" data-name="Group 398" transform="translate(3.41 0)">
        <g id="Group_396" data-name="Group 396" transform="translate(0 5.993)">
          <rect id="Rectangle_184" data-name="Rectangle 184" width="1.848" height="2.678" transform="translate(0 0)" fill="#fff"/>
        </g>
        <g id="Group_397" data-name="Group 397" transform="translate(0 0)">
          <rect id="Rectangle_185" data-name="Rectangle 185" width="1.848" height="2.681" transform="translate(0 0)" fill="#fff"/>
        </g>
      </g>
    </g>
    <g id="Group_405" data-name="Group 405" transform="translate(488.975 102.787)" opacity="0.38">
      <g id="Group_400" data-name="Group 400" transform="translate(0 3.408)">
        <rect id="Rectangle_186" data-name="Rectangle 186" width="2.681" height="1.851" transform="translate(0 0)" fill="#c186b8"/>
      </g>
      <g id="Group_401" data-name="Group 401" transform="translate(5.993 3.408)">
        <rect id="Rectangle_187" data-name="Rectangle 187" width="2.678" height="1.851" transform="translate(0 0)" fill="#c186b8"/>
      </g>
      <g id="Group_404" data-name="Group 404" transform="translate(3.411 0)">
        <g id="Group_402" data-name="Group 402" transform="translate(0 5.989)">
          <rect id="Rectangle_188" data-name="Rectangle 188" width="1.851" height="2.677" transform="translate(0 0)" fill="#c186b8"/>
        </g>
        <g id="Group_403" data-name="Group 403" transform="translate(0 0)">
          <rect id="Rectangle_189" data-name="Rectangle 189" width="1.851" height="2.678" transform="translate(0 0)" fill="#c186b8"/>
        </g>
      </g>
    </g>
    <g id="Group_411" data-name="Group 411" transform="translate(208.725 73.979)">
      <g id="Group_406" data-name="Group 406" transform="translate(0 3.408)">
        <rect id="Rectangle_190" data-name="Rectangle 190" width="2.681" height="1.852" transform="translate(0 0)" fill="#f25e74"/>
      </g>
      <g id="Group_407" data-name="Group 407" transform="translate(5.993 3.408)">
        <rect id="Rectangle_191" data-name="Rectangle 191" width="2.678" height="1.852" transform="translate(0 0)" fill="#f25e74"/>
      </g>
      <g id="Group_410" data-name="Group 410" transform="translate(3.411 0)">
        <g id="Group_408" data-name="Group 408" transform="translate(0 5.989)">
          <rect id="Rectangle_192" data-name="Rectangle 192" width="1.851" height="2.677" transform="translate(0 0)" fill="#f25e74"/>
        </g>
        <g id="Group_409" data-name="Group 409" transform="translate(0 0)">
          <rect id="Rectangle_193" data-name="Rectangle 193" width="1.851" height="2.677" transform="translate(0 0)" fill="#f25e74"/>
        </g>
      </g>
    </g>
    <g id="Group_417" data-name="Group 417" transform="translate(571.246 0)">
      <g id="Group_412" data-name="Group 412" transform="translate(0 3.408)">
        <rect id="Rectangle_194" data-name="Rectangle 194" width="2.681" height="1.852" transform="translate(0 0)" fill="#fff"/>
      </g>
      <g id="Group_413" data-name="Group 413" transform="translate(5.993 3.408)">
        <rect id="Rectangle_195" data-name="Rectangle 195" width="2.677" height="1.852" transform="translate(0 0)" fill="#fff"/>
      </g>
      <g id="Group_416" data-name="Group 416" transform="translate(3.411 0)">
        <g id="Group_414" data-name="Group 414" transform="translate(0 5.989)">
          <rect id="Rectangle_196" data-name="Rectangle 196" width="1.851" height="2.677" transform="translate(0 0)" fill="#fff"/>
        </g>
        <g id="Group_415" data-name="Group 415" transform="translate(0 0)">
          <rect id="Rectangle_197" data-name="Rectangle 197" width="1.851" height="2.677" transform="translate(0 0)" fill="#fff"/>
        </g>
      </g>
    </g>
    <path id="Path_11192" data-name="Path 11192" d="M.583,5.929a2.034,2.034,0,0,0,3.1-.449,2.036,2.036,0,0,0,3.1.449,2,2,0,0,0,.039-2.761L3.68,0,.543,3.168A2,2,0,0,0,.583,5.929Z" transform="translate(333.785 120.933)" fill="#90599f"/>
    <path id="Path_11193" data-name="Path 11193" d="M.583,5.929a2.034,2.034,0,0,0,3.1-.449,2.036,2.036,0,0,0,3.1.449,2,2,0,0,0,.041-2.761L3.68,0,.543,3.168A2,2,0,0,0,.583,5.929Z" transform="translate(603.856 80.718)" fill="#ecac63"/>
    <path id="Path_11194" data-name="Path 11194" d="M.583,5.929a2.035,2.035,0,0,0,3.1-.449,2.034,2.034,0,0,0,3.1.449,2,2,0,0,0,.041-2.761L3.68,0,.543,3.168A2,2,0,0,0,.583,5.929Z" transform="translate(64.477 110.487)" fill="none" stroke="#f6dde2" stroke-miterlimit="10" stroke-width="0.8"/>
    <path id="Path_11195" data-name="Path 11195" d="M.583,5.929a2.034,2.034,0,0,0,3.1-.449,2.034,2.034,0,0,0,3.1.449,2,2,0,0,0,.041-2.761L3.68,0,.543,3.168A2,2,0,0,0,.583,5.929Z" transform="translate(431.63 137.646)" fill="#ee77ad"/>
  </g>
</svg>
